<svg width="515" height="121" viewBox="0 0 515 121" fill="none" xmlns="http://www.w3.org/2000/svg">
<path opacity="0.43" d="M19.32 18.76L20.7342 20.1742L20.741 20.1674L19.32 18.76ZM102.36 18.76L100.939 20.1674L100.946 20.1742L102.36 18.76ZM102.36 101.96L103.794 103.354L103.801 103.347L102.36 101.96ZM19.32 101.96L17.8791 103.347L17.8857 103.354L17.8924 103.361L19.32 101.96ZM31 91.56L29.5318 92.9181L31 91.56ZM90.68 91.56L89.2118 90.2019L90.68 91.56ZM90.68 29L89.229 30.3765L89.238 30.3858L90.68 29ZM31 29L32.4421 30.3859L32.4509 30.3765L31 29ZM4.84 59.72C4.84 43.9007 10.1431 30.7653 20.7342 20.1742L17.9058 17.3458C6.52354 28.728 0.84 42.8993 0.84 59.72H4.84ZM20.741 20.1674C31.3229 9.48275 44.6642 4.11999 60.92 4.11999V0.119991C43.6825 0.119991 29.2904 5.85057 17.899 17.3526L20.741 20.1674ZM60.92 4.11999C77.0652 4.11999 90.3545 9.48011 100.939 20.1674L103.781 17.3526C92.3922 5.85321 78.0548 0.119991 60.92 0.119991V4.11999ZM100.946 20.1742C111.537 30.7653 116.84 43.9007 116.84 59.72H120.84C120.84 42.8993 115.156 28.728 103.774 17.3458L100.946 20.1742ZM116.84 59.72C116.84 75.982 111.525 89.5551 100.919 100.573L103.801 103.347C115.168 91.5382 120.84 76.9513 120.84 59.72H116.84ZM100.926 100.566C90.3383 111.462 77.0531 116.92 60.92 116.92V120.92C78.0669 120.92 92.4084 115.071 103.794 103.354L100.926 100.566ZM60.92 116.92C44.7868 116.92 31.4442 111.462 20.7476 100.559L17.8924 103.361C29.3825 115.072 43.7732 120.92 60.92 120.92V116.92ZM20.7609 100.573C10.1549 89.5551 4.84 75.982 4.84 59.72H0.84C0.84 76.9513 6.51173 91.5382 17.8791 103.347L20.7609 100.573ZM17.16 59.72C17.16 72.8664 21.2638 83.9797 29.5318 92.9181L32.4682 90.2019C24.9495 82.0736 21.16 71.9602 21.16 59.72H17.16ZM29.5318 92.9181C37.8192 101.877 48.3325 106.36 60.92 106.36V102.36C49.4009 102.36 39.9675 98.3092 32.4682 90.2019L29.5318 92.9181ZM60.92 106.36C73.4066 106.36 83.8646 101.873 92.1482 92.9181L89.2118 90.2019C81.7088 98.3133 72.3267 102.36 60.92 102.36V106.36ZM92.1482 92.9181C100.416 83.9797 104.52 72.8664 104.52 59.72H100.52C100.52 71.9602 96.7305 82.0736 89.2118 90.2019L92.1482 92.9181ZM104.52 59.72C104.52 46.9803 100.403 36.2303 92.122 27.6142L89.238 30.3858C96.7442 38.1963 100.52 47.9264 100.52 59.72H104.52ZM92.1309 27.6235C83.8426 18.8871 73.3896 14.52 60.92 14.52V18.52C72.3437 18.52 81.7307 22.4729 89.2291 30.3765L92.1309 27.6235ZM60.92 14.52C48.3494 14.52 37.8411 18.8832 29.5491 27.6235L32.4509 30.3765C39.9455 22.4768 49.384 18.52 60.92 18.52V14.52ZM29.558 27.6142C21.2775 36.2303 17.16 46.9803 17.16 59.72H21.16C21.16 47.9264 24.9358 38.1963 32.442 30.3858L29.558 27.6142ZM145.599 46.28L144.194 44.8565L144.185 44.8658L145.599 46.28ZM207.199 45.96L208.855 47.0806L209.754 45.7514L208.652 44.5856L207.199 45.96ZM199.839 56.84L198.425 58.2542L200.138 59.9674L201.495 57.9606L199.839 56.84ZM157.279 55.88L158.707 57.2801L158.714 57.2732L158.72 57.2662L157.279 55.88ZM157.279 97.16L155.837 98.5462L155.844 98.5533L155.851 98.5604L157.279 97.16ZM191.359 102.6L192.147 104.438L192.157 104.434L192.167 104.429L191.359 102.6ZM202.879 94.6L204.632 93.6371L203.303 91.2186L201.418 93.2337L202.879 94.6ZM209.119 105.96L210.572 107.334L211.574 106.275L210.872 104.997L209.119 105.96ZM194.879 115.4L195.633 117.252L194.879 115.4ZM145.599 106.92L144.194 108.344L145.599 106.92ZM135.439 76.52C135.439 64.9668 139.302 55.4049 147.013 47.6942L144.185 44.8658C135.682 53.3684 131.439 63.9665 131.439 76.52H135.439ZM147.004 47.7034C154.807 40.0014 164.686 36.12 176.799 36.12V32.12C163.739 32.12 152.817 36.3452 144.194 44.8566L147.004 47.7034ZM176.799 36.12C189.155 36.12 198.724 39.9116 205.746 47.3344L208.652 44.5856C200.74 36.2218 190.042 32.12 176.799 32.12V36.12ZM205.542 44.8394L198.182 55.7194L201.495 57.9606L208.855 47.0806L205.542 44.8394ZM201.253 55.4258C194.691 48.8642 186.716 45.56 177.439 45.56V49.56C185.655 49.56 192.613 52.4425 198.425 58.2542L201.253 55.4258ZM177.439 45.56C168.821 45.56 161.569 48.5321 155.837 54.4938L158.72 57.2662C163.655 52.1346 169.844 49.56 177.439 49.56V45.56ZM155.851 54.4799C150.12 60.3247 147.279 67.6681 147.279 76.36H151.279C151.279 68.6252 153.77 62.3153 158.707 57.2801L155.851 54.4799ZM147.279 76.36C147.279 85.1508 150.115 92.595 155.837 98.5462L158.72 95.7738C153.776 90.6316 151.279 84.2092 151.279 76.36H147.279ZM155.851 98.5604C161.696 104.52 169.104 107.48 177.919 107.48V103.48C170.094 103.48 163.742 100.894 158.707 95.7596L155.851 98.5604ZM177.919 107.48C182.693 107.48 187.44 106.456 192.147 104.438L190.571 100.762C186.318 102.584 182.105 103.48 177.919 103.48V107.48ZM192.167 104.429C196.974 102.306 201.043 99.4898 204.339 95.9663L201.418 93.2337C198.528 96.3235 194.917 98.8411 190.55 100.771L192.167 104.429ZM201.126 95.5629L207.366 106.923L210.872 104.997L204.632 93.6371L201.126 95.5629ZM207.666 104.586C204.155 108.297 199.658 111.293 194.124 113.548L195.633 117.252C201.619 114.813 206.616 111.516 210.572 107.334L207.666 104.586ZM194.124 113.548C188.607 115.796 182.837 116.92 176.799 116.92V120.92C183.348 120.92 189.631 119.698 195.633 117.252L194.124 113.548ZM176.799 116.92C164.566 116.92 154.692 113.083 147.004 105.496L144.194 108.344C152.719 116.757 163.645 120.92 176.799 120.92V116.92ZM147.004 105.496C139.309 97.9032 135.439 88.2973 135.439 76.52H131.439C131.439 89.276 135.675 99.9368 144.194 108.344L147.004 105.496ZM224.946 36.04V34.04H222.946V36.04H224.946ZM240.466 36.04H242.466V34.04H240.466V36.04ZM243.666 99.24L241.956 100.277L243.666 99.24ZM274.866 95.56L273.307 94.3072L274.866 95.56ZM282.066 36.04V34.04H280.066V36.04H282.066ZM297.426 36.04H299.426V34.04H297.426V36.04ZM297.426 117V119H299.426V117H297.426ZM282.386 117H280.386V119H282.386V117ZM282.386 105.8L280.398 105.585L280.386 105.692V105.8H282.386ZM283.026 99.88L285.015 100.095L285.254 97.88H283.026V99.88ZM282.706 99.88V97.88H281.406L280.879 99.0677L282.706 99.88ZM271.506 113L272.696 114.608L271.506 113ZM226.946 87.88V36.04H222.946V87.88H226.946ZM224.946 38.04H240.466V34.04H224.946V38.04ZM238.466 36.04V84.36H242.466V36.04H238.466ZM238.466 84.36C238.466 90.9396 239.556 96.3162 241.956 100.277L245.377 98.2034C243.51 95.1238 242.466 90.5804 242.466 84.36H238.466ZM241.956 100.277C244.594 104.629 249.427 106.52 255.666 106.52V102.52C250.172 102.52 247.005 100.891 245.377 98.2034L241.956 100.277ZM255.666 106.52C264.241 106.52 271.227 103.282 276.425 96.8128L273.307 94.3072C268.906 99.7846 263.091 102.52 255.666 102.52V106.52ZM276.425 96.8128C281.54 90.4483 284.066 82.7939 284.066 73.96H280.066C280.066 81.9794 277.793 88.725 273.307 94.3072L276.425 96.8128ZM284.066 73.96V36.04H280.066V73.96H284.066ZM282.066 38.04H297.426V34.04H282.066V38.04ZM295.426 36.04V117H299.426V36.04H295.426ZM297.426 115H282.386V119H297.426V115ZM284.386 117V105.8H280.386V117H284.386ZM284.375 106.015L285.015 100.095L281.038 99.665L280.398 105.585L284.375 106.015ZM283.026 97.88H282.706V101.88H283.026V97.88ZM280.879 99.0677C278.918 103.479 275.444 107.598 270.317 111.392L272.696 114.608C278.235 110.509 282.228 105.881 284.534 100.692L280.879 99.0677ZM270.317 111.392C265.36 115.06 259.493 116.92 252.626 116.92V120.92C260.266 120.92 266.986 118.833 272.696 114.608L270.317 111.392ZM252.626 116.92C243.771 116.92 237.478 114.448 233.359 109.829C229.201 105.166 226.946 97.9713 226.946 87.88H222.946C222.946 98.4821 225.305 106.807 230.374 112.491C235.481 118.219 243.028 120.92 252.626 120.92V116.92ZM321.375 4.03999V2.03999H319.375V4.03999H321.375ZM336.735 4.03999H338.735V2.03999H336.735V4.03999ZM338.975 101.32L337.47 102.637L337.514 102.687L337.561 102.734L338.975 101.32ZM348.255 103.56H350.255V101.199L347.926 101.587L348.255 103.56ZM348.255 117.32L348.538 119.3L350.255 119.055V117.32H348.255ZM323.375 94.76V4.03999H319.375V94.76H323.375ZM321.375 6.03999H336.735V2.03999H321.375V6.03999ZM334.735 4.03999V92.2H338.735V4.03999H334.735ZM334.735 92.2C334.735 96.6676 335.471 100.352 337.47 102.637L340.48 100.003C339.493 98.8745 338.735 96.4791 338.735 92.2H334.735ZM337.561 102.734C339.617 104.791 342.358 105.72 345.535 105.72V101.72C343.165 101.72 341.533 101.049 340.389 99.9058L337.561 102.734ZM345.535 105.72C346.746 105.72 347.781 105.667 348.584 105.533L347.926 101.587C347.449 101.667 346.671 101.72 345.535 101.72V105.72ZM346.255 103.56V117.32H350.255V103.56H346.255ZM347.972 115.34C345.757 115.657 344.163 115.8 343.135 115.8V119.8C344.454 119.8 346.273 119.623 348.538 119.3L347.972 115.34ZM343.135 115.8C336.22 115.8 331.394 113.975 328.269 110.667C325.124 107.337 323.375 102.159 323.375 94.76H319.375C319.375 102.721 321.252 109.063 325.361 113.413C329.49 117.785 335.543 119.8 343.135 119.8V115.8ZM363.071 36.04V34.04H361.071V36.04H363.071ZM378.591 36.04H380.591V34.04H378.591V36.04ZM381.791 99.24L380.081 100.277L381.791 99.24ZM412.991 95.56L411.432 94.3072L412.991 95.56ZM420.191 36.04V34.04H418.191V36.04H420.191ZM435.551 36.04H437.551V34.04H435.551V36.04ZM435.551 117V119H437.551V117H435.551ZM420.511 117H418.511V119H420.511V117ZM420.511 105.8L418.523 105.585L418.511 105.692V105.8H420.511ZM421.151 99.88L423.14 100.095L423.379 97.88H421.151V99.88ZM420.831 99.88V97.88H419.531L419.004 99.0677L420.831 99.88ZM409.631 113L410.821 114.608L409.631 113ZM365.071 87.88V36.04H361.071V87.88H365.071ZM363.071 38.04H378.591V34.04H363.071V38.04ZM376.591 36.04V84.36H380.591V36.04H376.591ZM376.591 84.36C376.591 90.9396 377.681 96.3162 380.081 100.277L383.502 98.2034C381.635 95.1238 380.591 90.5804 380.591 84.36H376.591ZM380.081 100.277C382.719 104.629 387.552 106.52 393.791 106.52V102.52C388.297 102.52 385.13 100.891 383.502 98.2034L380.081 100.277ZM393.791 106.52C402.366 106.52 409.352 103.282 414.55 96.8128L411.432 94.3072C407.031 99.7846 401.216 102.52 393.791 102.52V106.52ZM414.55 96.8128C419.665 90.4483 422.191 82.7939 422.191 73.96H418.191C418.191 81.9794 415.918 88.725 411.432 94.3072L414.55 96.8128ZM422.191 73.96V36.04H418.191V73.96H422.191ZM420.191 38.04H435.551V34.04H420.191V38.04ZM433.551 36.04V117H437.551V36.04H433.551ZM435.551 115H420.511V119H435.551V115ZM422.511 117V105.8H418.511V117H422.511ZM422.5 106.015L423.14 100.095L419.163 99.665L418.523 105.585L422.5 106.015ZM421.151 97.88H420.831V101.88H421.151V97.88ZM419.004 99.0677C417.043 103.479 413.569 107.598 408.442 111.392L410.821 114.608C416.36 110.509 420.353 105.881 422.659 100.692L419.004 99.0677ZM408.442 111.392C403.485 115.06 397.618 116.92 390.751 116.92V120.92C398.391 120.92 405.111 118.833 410.821 114.608L408.442 111.392ZM390.751 116.92C381.896 116.92 375.603 114.448 371.484 109.829C367.326 105.166 365.071 97.9713 365.071 87.88H361.071C361.071 98.4821 363.43 106.807 368.499 112.491C373.606 118.219 381.153 120.92 390.751 120.92V116.92ZM452.62 107.08L450.979 105.936L450.028 107.301L451.196 108.485L452.62 107.08ZM459.98 96.52L461.37 95.0824L459.682 93.4495L458.339 95.3764L459.98 96.52ZM493.74 103.24L494.929 104.848L494.94 104.84L493.74 103.24ZM493.26 88.2L492.109 89.8356L493.26 88.2ZM482.86 82.92L483.551 81.0433L482.86 82.92ZM470.7 77.96L471.517 76.1344L470.7 77.96ZM460.3 70.12L458.752 71.3865L458.762 71.3982L458.771 71.4097L460.3 70.12ZM464.3 40.36L465.48 41.9748L465.49 41.9674L465.5 41.96L464.3 40.36ZM511.34 43.08L513.087 44.0534L513.862 42.6628L512.681 41.5958L511.34 43.08ZM505.1 54.28L503.719 55.7267L505.589 57.5116L506.847 55.2534L505.1 54.28ZM495.82 49L495.171 50.8919L495.179 50.8947L495.188 50.8974L495.82 49ZM474.54 49.64L473.431 47.9759L473.414 47.9869L473.398 47.9982L474.54 49.64ZM485.58 69.8L484.889 71.6767L484.911 71.6848L484.933 71.6923L485.58 69.8ZM497.74 74.6L496.923 76.4256L496.932 76.4296L496.941 76.4334L497.74 74.6ZM508.3 82.6L506.752 83.8665L506.762 83.8782L506.771 83.8897L508.3 82.6ZM504.46 112.2L505.731 113.744L504.46 112.2ZM454.261 108.224L461.621 97.6636L458.339 95.3764L450.979 105.936L454.261 108.224ZM458.59 97.9576C465.484 104.626 473.936 107.96 483.82 107.96V103.96C474.931 103.96 467.489 101 461.37 95.0824L458.59 97.9576ZM483.82 107.96C488.255 107.96 492.026 106.994 494.929 104.848L492.551 101.632C490.548 103.113 487.705 103.96 483.82 103.96V107.96ZM494.94 104.84C498.023 102.528 499.58 99.3115 499.58 95.4H495.58C495.58 98.1018 494.577 100.112 492.54 101.64L494.94 104.84ZM499.58 95.4C499.58 91.8017 497.663 88.8528 494.411 86.5644L492.109 89.8356C494.617 91.6005 495.58 93.4516 495.58 95.4H499.58ZM494.411 86.5644C491.361 84.4182 487.732 82.5837 483.551 81.0433L482.169 84.7967C486.094 86.243 489.399 87.9285 492.109 89.8356L494.411 86.5644ZM483.551 81.0433C479.542 79.566 475.53 77.9298 471.517 76.1344L469.883 79.7856C473.977 81.6169 478.072 83.2873 482.169 84.7967L483.551 81.0433ZM471.517 76.1344C467.74 74.4446 464.516 72.0151 461.829 68.8303L458.771 71.4097C461.844 75.0516 465.554 77.8487 469.883 79.7856L471.517 76.1344ZM461.848 68.8535C459.284 65.72 457.98 61.964 457.98 57.48H453.98C453.98 62.8093 455.556 67.48 458.752 71.3865L461.848 68.8535ZM457.98 57.48C457.98 50.7051 460.49 45.6212 465.48 41.9748L463.12 38.7452C457.016 43.2055 453.98 49.5349 453.98 57.48H457.98ZM465.5 41.96C470.635 38.1084 477.124 36.12 485.1 36.12V32.12C476.436 32.12 469.058 34.2916 463.1 38.76L465.5 41.96ZM485.1 36.12C495.599 36.12 503.831 38.9925 509.999 44.5642L512.681 41.5958C505.623 35.2209 496.361 32.12 485.1 32.12V36.12ZM509.593 42.1066L503.353 53.3066L506.847 55.2534L513.087 44.0534L509.593 42.1066ZM506.481 52.8333C503.875 50.3458 500.505 48.4534 496.452 47.1026L495.188 50.8974C498.815 52.1066 501.632 53.7342 503.719 55.7267L506.481 52.8333ZM496.469 47.1081C492.539 45.7606 488.586 45.08 484.62 45.08V49.08C488.12 49.08 491.635 49.6794 495.171 50.8919L496.469 47.1081ZM484.62 45.08C480.201 45.08 476.416 45.9855 473.431 47.9759L475.649 51.3041C477.784 49.8812 480.719 49.08 484.62 49.08V45.08ZM473.398 47.9982C470.344 50.1229 468.86 53.2801 468.86 57.16H472.86C472.86 54.4266 473.83 52.5704 475.682 51.2818L473.398 47.9982ZM468.86 57.16C468.86 60.8392 470.751 63.8487 474.029 66.1556L476.331 62.8844C473.849 61.138 472.86 59.2408 472.86 57.16H468.86ZM474.029 66.1556C477.079 68.3018 480.708 70.1363 484.889 71.6767L486.271 67.9233C482.346 66.477 479.041 64.7915 476.331 62.8844L474.029 66.1556ZM484.933 71.6923C488.926 73.0586 492.923 74.6362 496.923 76.4256L498.557 72.7744C494.45 70.9371 490.34 69.3147 486.227 67.9077L484.933 71.6923ZM496.941 76.4334C500.809 78.1196 504.073 80.5916 506.752 83.8665L509.848 81.3335C506.767 77.5684 502.991 74.7071 498.539 72.7666L496.941 76.4334ZM506.771 83.8897C509.316 86.9059 510.62 90.5955 510.62 95.08H514.62C514.62 89.7512 513.044 85.1208 509.829 81.3103L506.771 83.8897ZM510.62 95.08C510.62 101.404 508.176 106.549 503.189 110.656L505.731 113.744C511.624 108.891 514.62 102.622 514.62 95.08H510.62ZM503.189 110.656C498.178 114.783 491.671 116.92 483.5 116.92V120.92C492.396 120.92 499.862 118.577 505.731 113.744L503.189 110.656ZM483.5 116.92C471.145 116.92 461.396 113.128 454.044 105.675L451.196 108.485C459.417 116.818 470.255 120.92 483.5 120.92V116.92Z" fill="white"/>
</svg>
