<svg width="1064" height="1114" viewBox="0 0 1064 1114" fill="none" xmlns="http://www.w3.org/2000/svg">
<path opacity="0.43" d="M340.32 608.76L341.807 610.247L341.814 610.24L340.32 608.76ZM423.36 608.76L421.866 610.24L421.873 610.247L423.36 608.76ZM423.36 691.96L424.868 693.426L424.875 693.419L423.36 691.96ZM340.32 691.96L338.805 693.419L338.812 693.426L338.819 693.433L340.32 691.96ZM352 681.56L350.456 682.988L352 681.56ZM411.68 681.56L410.136 680.132L411.68 681.56ZM411.68 619L410.154 620.448L410.164 620.457L411.68 619ZM352 619L353.516 620.457L353.526 620.448L352 619ZM325.943 649.72C325.943 633.927 331.236 620.818 341.807 610.247L338.833 607.273C327.43 618.676 321.737 632.873 321.737 649.72H325.943ZM341.814 610.24C352.375 599.576 365.689 594.223 381.92 594.223V590.017C364.657 590.017 350.238 595.757 338.826 607.28L341.814 610.24ZM381.92 594.223C398.04 594.223 411.302 599.574 421.866 610.24L424.854 607.28C413.445 595.76 399.08 590.017 381.92 590.017V594.223ZM421.873 610.247C432.444 620.818 437.737 633.927 437.737 649.72H441.943C441.943 632.873 436.25 618.676 424.847 607.273L421.873 610.247ZM437.737 649.72C437.737 665.957 432.431 679.504 421.845 690.501L424.875 693.419C436.262 681.589 441.943 666.976 441.943 649.72H437.737ZM421.852 690.494C411.285 701.369 398.027 706.817 381.92 706.817V711.023C399.093 711.023 413.462 705.164 424.868 693.426L421.852 690.494ZM381.92 706.817C365.813 706.817 352.497 701.368 341.821 690.487L338.819 693.433C350.329 705.165 364.747 711.023 381.92 711.023V706.817ZM341.835 690.501C331.249 679.504 325.943 665.957 325.943 649.72H321.737C321.737 666.976 327.418 681.589 338.805 693.419L341.835 690.501ZM338.057 649.72C338.057 662.89 342.169 674.029 350.456 682.988L353.544 680.132C346.045 672.024 342.263 661.937 342.263 649.72H338.057ZM350.456 682.988C358.764 691.969 369.305 696.463 381.92 696.463V692.257C370.428 692.257 361.023 688.217 353.544 680.132L350.456 682.988ZM381.92 696.463C394.434 696.463 404.92 691.965 413.224 682.988L410.136 680.132C402.653 688.222 393.299 692.257 381.92 692.257V696.463ZM413.224 682.988C421.511 674.029 425.623 662.89 425.623 649.72H421.417C421.417 661.937 417.635 672.024 410.136 680.132L413.224 682.988ZM425.623 649.72C425.623 636.956 421.497 626.18 413.196 617.543L410.164 620.457C417.65 628.247 421.417 637.951 421.417 649.72H425.623ZM413.206 617.552C404.897 608.795 394.417 604.417 381.92 604.417V608.623C393.317 608.623 402.676 612.565 410.154 620.448L413.206 617.552ZM381.92 604.417C369.323 604.417 358.787 608.791 350.474 617.552L353.526 620.448C361 612.569 370.411 608.623 381.92 608.623V604.417ZM350.484 617.543C342.183 626.18 338.057 636.956 338.057 649.72H342.263C342.263 637.951 346.03 628.247 353.516 620.457L350.484 617.543ZM466.599 636.28L465.121 634.783L465.112 634.793L466.599 636.28ZM528.199 635.96L529.941 637.138L530.886 635.741L529.727 634.515L528.199 635.96ZM520.839 646.84L519.352 648.327L521.153 650.129L522.581 648.018L520.839 646.84ZM478.279 645.88L479.781 647.352L479.788 647.345L479.795 647.338L478.279 645.88ZM478.279 687.16L476.763 688.618L476.77 688.625L476.777 688.633L478.279 687.16ZM512.359 692.6L513.187 694.533L513.198 694.528L513.209 694.524L512.359 692.6ZM523.879 684.6L525.722 683.587L524.325 681.044L522.343 683.163L523.879 684.6ZM530.119 695.96L531.647 697.405L532.7 696.291L531.962 694.947L530.119 695.96ZM515.879 705.4L516.672 707.348L515.879 705.4ZM466.599 696.92L465.121 698.417L466.599 696.92ZM456.542 666.52C456.542 654.993 460.396 645.457 468.086 637.767L465.112 634.793C456.589 643.316 452.336 653.941 452.336 666.52H456.542ZM468.076 637.777C475.858 630.096 485.71 626.223 497.799 626.223V622.017C484.714 622.017 473.766 626.251 465.121 634.783L468.076 637.777ZM497.799 626.223C510.132 626.223 519.672 630.007 526.671 637.405L529.727 634.515C521.792 626.127 511.065 622.017 497.799 622.017V626.223ZM526.457 634.782L519.097 645.662L522.581 648.018L529.941 637.138L526.457 634.782ZM522.326 645.353C515.745 638.772 507.743 635.457 498.439 635.457V639.663C506.627 639.663 513.559 642.535 519.352 648.327L522.326 645.353ZM498.439 635.457C489.794 635.457 482.516 638.439 476.763 644.422L479.795 647.338C484.708 642.227 490.87 639.663 498.439 639.663V635.457ZM476.777 644.408C471.026 650.273 468.176 657.643 468.176 666.36H472.382C472.382 658.65 474.865 652.367 479.781 647.352L476.777 644.408ZM468.176 666.36C468.176 675.175 471.02 682.646 476.763 688.618L479.795 685.702C474.87 680.581 472.382 674.185 472.382 666.36H468.176ZM476.777 688.633C482.643 694.613 490.078 697.583 498.919 697.583V693.377C491.119 693.377 484.795 690.8 479.78 685.687L476.777 688.633ZM498.919 697.583C503.708 697.583 508.469 696.555 513.187 694.533L511.53 690.667C507.289 692.485 503.09 693.377 498.919 693.377V697.583ZM513.209 694.524C518.027 692.395 522.108 689.571 525.415 686.037L522.343 683.163C519.463 686.242 515.864 688.752 511.509 690.676L513.209 694.524ZM522.035 685.613L528.275 696.973L531.962 694.947L525.722 683.587L522.035 685.613ZM528.591 694.515C525.092 698.214 520.608 701.202 515.085 703.452L516.672 707.348C522.67 704.904 527.679 701.599 531.647 697.405L528.591 694.515ZM515.085 703.452C509.58 705.695 503.823 706.817 497.799 706.817V711.023C504.361 711.023 510.657 709.798 516.672 707.348L515.085 703.452ZM497.799 706.817C485.589 706.817 475.742 702.989 468.076 695.423L465.121 698.417C473.668 706.851 484.622 711.023 497.799 711.023V706.817ZM468.076 695.423C460.403 687.851 456.542 678.272 456.542 666.52H452.336C452.336 679.301 456.581 689.989 465.121 698.417L468.076 695.423ZM545.946 626.04V623.937H543.843V626.04H545.946ZM561.466 626.04H563.569V623.937H561.466V626.04ZM564.666 689.24L562.868 690.33L564.666 689.24ZM595.866 685.56L594.227 684.243L595.866 685.56ZM603.066 626.04V623.937H600.963V626.04H603.066ZM618.426 626.04H620.529V623.937H618.426V626.04ZM618.426 707V709.103H620.529V707H618.426ZM603.386 707H601.283V709.103H603.386V707ZM603.386 695.8L601.295 695.574L601.283 695.687V695.8H603.386ZM604.026 689.88L606.117 690.106L606.369 687.777H604.026V689.88ZM603.706 689.88V687.777H602.339L601.784 689.026L603.706 689.88ZM592.506 703L593.757 704.691L592.506 703ZM548.049 677.88V626.04H543.843V677.88H548.049ZM545.946 628.143H561.466V623.937H545.946V628.143ZM559.363 626.04V674.36H563.569V626.04H559.363ZM559.363 674.36C559.363 680.949 560.454 686.347 562.868 690.33L566.465 688.15C564.612 685.093 563.569 680.571 563.569 674.36H559.363ZM562.868 690.33C565.532 694.726 570.408 696.623 576.666 696.623V692.417C571.191 692.417 568.067 690.794 566.465 688.15L562.868 690.33ZM576.666 696.623C585.271 696.623 592.287 693.372 597.506 686.877L594.227 684.243C589.846 689.694 584.061 692.417 576.666 692.417V696.623ZM597.506 686.877C602.636 680.493 605.169 672.815 605.169 663.96H600.963C600.963 671.958 598.696 678.681 594.227 684.243L597.506 686.877ZM605.169 663.96V626.04H600.963V663.96H605.169ZM603.066 628.143H618.426V623.937H603.066V628.143ZM616.323 626.04V707H620.529V626.04H616.323ZM618.426 704.897H603.386V709.103H618.426V704.897ZM605.489 707V695.8H601.283V707H605.489ZM605.477 696.026L606.117 690.106L601.935 689.654L601.295 695.574L605.477 696.026ZM604.026 687.777H603.706V691.983H604.026V687.777ZM601.784 689.026C599.833 693.417 596.372 697.523 591.255 701.309L593.757 704.691C599.307 700.584 603.313 695.943 605.628 690.734L601.784 689.026ZM591.255 701.309C586.318 704.963 580.473 706.817 573.626 706.817V711.023C581.286 711.023 588.028 708.93 593.757 704.691L591.255 701.309ZM573.626 706.817C564.79 706.817 558.53 704.351 554.436 699.76C550.301 695.124 548.049 687.958 548.049 677.88H543.843C543.843 688.495 546.204 696.849 551.297 702.56C556.43 708.316 564.009 711.023 573.626 711.023V706.817ZM642.375 594.04V591.937H640.272V594.04H642.375ZM657.735 594.04H659.838V591.937H657.735V594.04ZM659.975 691.32L658.392 692.705L658.438 692.758L658.488 692.807L659.975 691.32ZM669.255 693.56H671.358V691.077L668.909 691.485L669.255 693.56ZM669.255 707.32L669.552 709.402L671.358 709.144V707.32H669.255ZM644.478 684.76V594.04H640.272V684.76H644.478ZM642.375 596.143H657.735V591.937H642.375V596.143ZM655.632 594.04V682.2H659.838V594.04H655.632ZM655.632 682.2C655.632 686.672 656.367 690.39 658.392 692.705L661.558 689.935C660.596 688.836 659.838 686.474 659.838 682.2H655.632ZM658.488 692.807C660.568 694.887 663.338 695.823 666.535 695.823V691.617C664.186 691.617 662.582 690.953 661.462 689.833L658.488 692.807ZM666.535 695.823C667.748 695.823 668.79 695.77 669.601 695.635L668.909 691.485C668.44 691.564 667.669 691.617 666.535 691.617V695.823ZM667.152 693.56V707.32H671.358V693.56H667.152ZM668.958 705.238C666.743 705.554 665.156 705.697 664.135 705.697V709.903C665.461 709.903 667.287 709.726 669.552 709.402L668.958 705.238ZM664.135 705.697C657.238 705.697 652.443 703.877 649.344 700.596C646.224 697.292 644.478 692.145 644.478 684.76H640.272C640.272 692.735 642.153 699.108 646.286 703.484C650.441 707.883 656.526 709.903 664.135 709.903V705.697ZM684.071 626.04V623.937H681.968V626.04H684.071ZM699.591 626.04H701.694V623.937H699.591V626.04ZM702.791 689.24L700.993 690.33L702.791 689.24ZM733.991 685.56L732.352 684.243L733.991 685.56ZM741.191 626.04V623.937H739.088V626.04H741.191ZM756.551 626.04H758.654V623.937H756.551V626.04ZM756.551 707V709.103H758.654V707H756.551ZM741.511 707H739.408V709.103H741.511V707ZM741.511 695.8L739.42 695.574L739.408 695.687V695.8H741.511ZM742.151 689.88L744.242 690.106L744.494 687.777H742.151V689.88ZM741.831 689.88V687.777H740.464L739.909 689.026L741.831 689.88ZM730.631 703L731.882 704.691L730.631 703ZM686.174 677.88V626.04H681.968V677.88H686.174ZM684.071 628.143H699.591V623.937H684.071V628.143ZM697.488 626.04V674.36H701.694V626.04H697.488ZM697.488 674.36C697.488 680.949 698.579 686.347 700.993 690.33L704.59 688.15C702.737 685.093 701.694 680.571 701.694 674.36H697.488ZM700.993 690.33C703.657 694.726 708.533 696.623 714.791 696.623V692.417C709.316 692.417 706.192 690.794 704.59 688.15L700.993 690.33ZM714.791 696.623C723.396 696.623 730.412 693.372 735.631 686.877L732.352 684.243C727.971 689.694 722.186 692.417 714.791 692.417V696.623ZM735.631 686.877C740.761 680.493 743.294 672.815 743.294 663.96H739.088C739.088 671.958 736.821 678.681 732.352 684.243L735.631 686.877ZM743.294 663.96V626.04H739.088V663.96H743.294ZM741.191 628.143H756.551V623.937H741.191V628.143ZM754.448 626.04V707H758.654V626.04H754.448ZM756.551 704.897H741.511V709.103H756.551V704.897ZM743.614 707V695.8H739.408V707H743.614ZM743.602 696.026L744.242 690.106L740.06 689.654L739.42 695.574L743.602 696.026ZM742.151 687.777H741.831V691.983H742.151V687.777ZM739.909 689.026C737.958 693.417 734.497 697.523 729.38 701.309L731.882 704.691C737.432 700.584 741.438 695.943 743.753 690.734L739.909 689.026ZM729.38 701.309C724.443 704.963 718.598 706.817 711.751 706.817V711.023C719.411 711.023 726.153 708.93 731.882 704.691L729.38 701.309ZM711.751 706.817C702.915 706.817 696.655 704.351 692.561 699.76C688.426 695.124 686.174 687.958 686.174 677.88H681.968C681.968 688.495 684.329 696.849 689.422 702.56C694.555 708.316 702.134 711.023 711.751 711.023V706.817ZM773.62 697.08L771.895 695.877L770.895 697.312L772.123 698.557L773.62 697.08ZM780.98 686.52L782.442 685.008L780.667 683.291L779.255 685.317L780.98 686.52ZM814.74 693.24L815.99 694.931L815.996 694.927L816.002 694.923L814.74 693.24ZM814.26 678.2L813.05 679.92V679.92L814.26 678.2ZM803.86 672.92L804.587 670.947L803.86 672.92ZM791.7 667.96L792.559 666.04L791.7 667.96ZM781.3 660.12L779.672 661.452L779.682 661.464L779.693 661.476L781.3 660.12ZM785.3 630.36L786.541 632.058L786.551 632.05L786.562 632.043L785.3 630.36ZM832.34 633.08L834.177 634.104L834.992 632.641L833.75 631.519L832.34 633.08ZM826.1 644.28L824.648 645.801L826.614 647.678L827.937 645.304L826.1 644.28ZM816.82 639L816.138 640.989L816.146 640.992L816.155 640.995L816.82 639ZM795.54 639.64L794.373 637.89L794.356 637.902L794.339 637.914L795.54 639.64ZM806.58 659.8L805.853 661.773L805.876 661.782L805.899 661.79L806.58 659.8ZM818.74 664.6L817.881 666.52L817.89 666.524L817.9 666.528L818.74 664.6ZM829.3 672.6L827.672 673.932L827.682 673.944L827.693 673.956L829.3 672.6ZM825.46 702.2L826.797 703.823L825.46 702.2ZM775.345 698.283L782.705 687.723L779.255 685.317L771.895 695.877L775.345 698.283ZM779.518 688.032C786.433 694.72 794.91 698.063 804.82 698.063V693.857C795.957 693.857 788.541 690.907 782.442 685.008L779.518 688.032ZM804.82 698.063C809.269 698.063 813.064 697.094 815.99 694.931L813.49 691.549C811.509 693.013 808.691 693.857 804.82 693.857V698.063ZM816.002 694.923C819.112 692.59 820.683 689.343 820.683 685.4H816.477C816.477 688.071 815.488 690.05 813.478 691.557L816.002 694.923ZM820.683 685.4C820.683 681.759 818.742 678.782 815.47 676.48L813.05 679.92C815.539 681.671 816.477 683.494 816.477 685.4H820.683ZM815.47 676.48C812.412 674.328 808.775 672.489 804.587 670.947L803.133 674.893C807.052 676.337 810.348 678.019 813.05 679.92L815.47 676.48ZM804.587 670.947C800.579 669.47 796.57 667.835 792.559 666.04L790.841 669.88C794.937 671.712 799.034 673.383 803.133 674.893L804.587 670.947ZM792.559 666.04C788.796 664.357 785.585 661.937 782.907 658.764L779.693 661.476C782.775 665.13 786.497 667.937 790.841 669.88L792.559 666.04ZM782.928 658.788C780.38 655.675 779.083 651.942 779.083 647.48H774.877C774.877 652.831 776.46 657.525 779.672 661.452L782.928 658.788ZM779.083 647.48C779.083 640.735 781.58 635.683 786.541 632.058L784.059 628.662C777.927 633.143 774.877 639.505 774.877 647.48H779.083ZM786.562 632.043C791.676 628.207 798.141 626.223 806.1 626.223V622.017C797.419 622.017 790.017 624.193 784.038 628.677L786.562 632.043ZM806.1 626.223C816.58 626.223 824.785 629.09 830.93 634.641L833.75 631.519C826.669 625.124 817.38 622.017 806.1 622.017V626.223ZM830.503 632.056L824.263 643.256L827.937 645.304L834.177 634.104L830.503 632.056ZM827.552 642.759C824.933 640.258 821.548 638.359 817.485 637.005L816.155 640.995C819.772 642.201 822.574 643.822 824.648 645.801L827.552 642.759ZM817.502 637.011C813.562 635.66 809.598 634.977 805.62 634.977V639.183C809.108 639.183 812.611 639.78 816.138 640.989L817.502 637.011ZM805.62 634.977C801.187 634.977 797.381 635.885 794.373 637.89L796.707 641.39C798.819 639.982 801.733 639.183 805.62 639.183V634.977ZM794.339 637.914C791.254 640.06 789.757 643.25 789.757 647.16H793.963C793.963 644.456 794.92 642.633 796.741 641.366L794.339 637.914ZM789.757 647.16C789.757 650.88 791.671 653.919 794.97 656.24L797.39 652.8C794.929 651.068 793.963 649.2 793.963 647.16H789.757ZM794.97 656.24C798.028 658.392 801.665 660.231 805.853 661.773L807.307 657.827C803.388 656.383 800.092 654.701 797.39 652.8L794.97 656.24ZM805.899 661.79C809.89 663.155 813.884 664.732 817.881 666.52L819.599 662.68C815.489 660.842 811.377 659.218 807.261 657.81L805.899 661.79ZM817.9 666.528C821.753 668.208 825.003 670.67 827.672 673.932L830.928 671.268C827.837 667.49 824.047 664.619 819.58 662.672L817.9 666.528ZM827.693 673.956C830.22 676.952 831.517 680.617 831.517 685.08H835.723C835.723 679.729 834.14 675.075 830.907 671.244L827.693 673.956ZM831.517 685.08C831.517 691.373 829.087 696.488 824.123 700.577L826.797 703.823C832.713 698.952 835.723 692.654 835.723 685.08H831.517ZM824.123 700.577C819.134 704.685 812.652 706.817 804.5 706.817V711.023C813.414 711.023 820.906 708.675 826.797 703.823L824.123 700.577ZM804.5 706.817C792.168 706.817 782.447 703.033 775.117 695.603L772.123 698.557C780.366 706.913 791.232 711.023 804.5 711.023V706.817Z" fill="white"/>
<g opacity="0.23" filter="url(#filter0_f)">
<path fill-rule="evenodd" clip-rule="evenodd" d="M627.59 367.351C589.513 371.368 562.398 409.952 539.149 443.785C520.779 470.519 385.705 419.365 372.401 449.596C355.519 487.957 382.628 618.763 393.47 659.744C404.204 700.32 490.75 704.887 524.315 724.665C551.085 740.438 597.315 746.227 627.59 746.988C657.998 747.752 677.735 713 705.153 698.332C741.681 678.792 795.912 687.182 814.435 647.032C832.518 607.836 802.071 562.396 786.574 521.848C772.498 485.019 756.174 450.061 729.097 423.748C699.889 395.364 666.176 363.281 627.59 367.351Z" fill="#AD8EDE"/>
</g>
<g filter="url(#filter1_d)">
<path d="M728.954 586.832H728.72L728.837 586.656L717.281 566.513H717.048L717.164 566.278L705.609 546.135H705.317L705.492 545.9L693.994 525.815H693.644L693.819 525.521L682.263 505.378H682.03L682.147 505.143L670.591 485H670.299L670.474 484.765L658.918 464.68H658.568L658.743 464.387L647.246 444.302L635.573 464.622L647.129 484.706L647.304 484.941L658.86 505.085L658.977 505.319L670.532 525.463L670.708 525.756L682.205 545.841L682.38 546.076L693.936 566.219L694.053 566.454L705.609 586.597L705.725 586.774L717.281 606.917L717.398 607.093H670.532L670.649 606.917L659.093 586.774H658.86L658.977 586.597L647.421 566.454H647.187L647.304 566.219L635.748 546.076H635.456L635.631 545.841L624.134 525.756H623.784L623.959 525.463L635.515 505.319L635.631 505.085L624.075 484.941L612.403 464.622L635.748 423.924L624.075 403.604L600.73 362.907L589.058 342.587L577.385 362.907L554.04 403.604L542.367 423.924L495.677 505.319L484.004 525.639L484.063 525.756H507.291L507.35 525.639L519.022 505.319L565.713 423.924L577.385 403.604L589.058 383.285L600.73 403.604L612.403 423.924L565.713 505.319H542.367L530.695 525.639L530.753 525.756H530.636L519.022 546.017L519.081 546.135H472.273L425.583 627.53H635.631L635.69 627.413L624.075 607.211H460.426L460.484 607.093L483.771 566.513L483.829 566.454L483.888 566.513H507.116L507.174 566.454L507.233 566.513H530.461L530.52 566.454L530.578 566.513H553.806L553.865 566.454L553.923 566.513H577.152L577.21 566.454L577.268 566.513L588.824 586.656L588.941 586.832H612.053L612.169 586.656L612.286 586.832H635.398L635.515 586.656L635.631 586.832L647.187 606.976L647.304 607.152L658.918 627.354L658.977 627.471H682.147L682.205 627.354L682.263 627.471H705.434L705.492 627.354L705.55 627.471H752.241L728.954 586.832ZM623.667 566.454H600.555H600.322L600.438 566.219L588.883 546.076H588.766H565.537H542.076L542.134 545.958L553.748 525.698L553.806 525.58L553.865 525.698H577.093L577.152 525.58L588.824 505.261L600.497 484.941L612.169 505.261L600.497 525.58L600.555 525.698L612.053 545.782L612.228 546.017L623.784 566.16L623.9 566.395H623.667V566.454Z" fill="#9AB5EA"/>
</g>
<defs>
<filter id="filter0_f" x="0.766235" y="0.766235" width="1185.47" height="1112.47" filterUnits="userSpaceOnUse" color-interpolation-filters="sRGB">
<feFlood flood-opacity="0" result="BackgroundImageFix"/>
<feBlend mode="normal" in="SourceGraphic" in2="BackgroundImageFix" result="shape"/>
<feGaussianBlur stdDeviation="183.117" result="effect1_foregroundBlur"/>
</filter>
<filter id="filter1_d" x="375" y="296" width="428" height="386" filterUnits="userSpaceOnUse" color-interpolation-filters="sRGB">
<feFlood flood-opacity="0" result="BackgroundImageFix"/>
<feColorMatrix in="SourceAlpha" type="matrix" values="0 0 0 0 0 0 0 0 0 0 0 0 0 0 0 0 0 0 127 0"/>
<feOffset dy="4"/>
<feGaussianBlur stdDeviation="25"/>
<feColorMatrix type="matrix" values="0 0 0 0 0.1775 0 0 0 0 0.4615 0 0 0 0 0.8875 0 0 0 0.25 0"/>
<feBlend mode="normal" in2="BackgroundImageFix" result="effect1_dropShadow"/>
<feBlend mode="normal" in="SourceGraphic" in2="effect1_dropShadow" result="shape"/>
</filter>
</defs>
</svg>
