<svg width="328" height="286" viewBox="0 0 328 286" fill="none" xmlns="http://www.w3.org/2000/svg">
<path d="M303.954 244.832H303.72L303.837 244.656L292.281 224.513H292.048L292.164 224.278L280.609 204.135H280.317L280.492 203.9L268.994 183.815H268.644L268.819 183.521L257.263 163.378H257.03L257.147 163.143L245.591 143H245.299L245.474 142.765L233.918 122.68H233.568L233.743 122.387L222.246 102.302L210.573 122.622L222.129 142.706L222.304 142.941L233.86 163.085L233.977 163.319L245.532 183.463L245.708 183.756L257.205 203.841L257.38 204.076L268.936 224.219L269.053 224.454L280.609 244.597L280.725 244.774L292.281 264.917L292.398 265.093H245.532L245.649 264.917L234.093 244.774H233.86L233.977 244.597L222.421 224.454H222.187L222.304 224.219L210.748 204.076H210.456L210.631 203.841L199.134 183.756H198.784L198.959 183.463L210.515 163.319L210.631 163.085L199.075 142.941L187.403 122.622L210.748 81.9239L199.075 61.6044L175.73 20.9067L164.058 0.587158L152.385 20.9067L129.04 61.6044L117.367 81.9239L70.6769 163.319L59.0043 183.639L59.0627 183.756H82.2912L82.3495 183.639L94.0221 163.319L140.713 81.9239L152.385 61.6044L164.058 41.2849L175.73 61.6044L187.403 81.9239L140.713 163.319H117.367L105.695 183.639L105.753 183.756H105.636L94.0221 204.017L94.0805 204.135H47.2734L0.583008 285.53H210.631L210.69 285.413L199.075 265.211H35.4257L35.4841 265.093L58.7709 224.513L58.8293 224.454L58.8876 224.513H82.1161L82.1745 224.454L82.2328 224.513H105.461L105.52 224.454L105.578 224.513H128.806L128.865 224.454L128.923 224.513H152.152L152.21 224.454L152.268 224.513L163.824 244.656L163.941 244.832H187.053L187.169 244.656L187.286 244.832H210.398L210.515 244.656L210.631 244.832L222.187 264.976L222.304 265.152L233.918 285.354L233.977 285.471H257.147L257.205 285.354L257.263 285.471H280.434L280.492 285.354L280.55 285.471H327.241L303.954 244.832ZM198.667 224.454H175.555H175.322L175.438 224.219L163.883 204.076H163.766H140.537H117.076L117.134 203.958L128.748 183.698L128.806 183.58L128.865 183.698H152.093L152.152 183.58L163.824 163.261L175.497 142.941L187.169 163.261L175.497 183.58L175.555 183.698L187.053 203.782L187.228 204.017L198.784 224.16L198.9 224.395H198.667V224.454Z" fill="#9AB5EA"/>
</svg>
