<svg width="44" height="45" viewBox="0 0 44 45" fill="none" xmlns="http://www.w3.org/2000/svg">
<g clip-path="url(#clip0)">
<path d="M42.5704 23.0299L42.5218 22.9812L31.7376 13.7987L31.7279 10.949L25.3037 10.9711L21.1169 15.1576C20.4606 15.8138 19.3834 15.8246 18.7154 15.1814C18.3951 14.8729 18.2159 14.4479 18.2115 13.9843C18.2068 13.4976 18.3991 13.0236 18.7389 12.6838L22.1529 9.04155C24.8985 6.11128 28.7768 4.43046 32.7927 4.43046H43.9985V0.999664H32.7927C28.7942 0.999664 24.9069 2.34949 21.7729 4.76817C18.6063 2.27362 14.7075 0.914062 10.6389 0.914062H0.0856934V4.34486H10.6389C13.7538 4.34486 16.7458 5.32877 19.23 7.14387L16.2913 10.2799C15.3178 11.2655 14.7676 12.6258 14.781 14.0172C14.7945 15.4093 15.3467 16.7007 16.3363 17.6534C17.3118 18.5924 18.5992 19.1023 19.9504 19.0905C21.3073 19.0785 22.5832 18.5434 23.5426 17.5836L26.7294 14.3969L27.1467 14.3952L40.183 25.4956C40.7127 26.0666 40.6996 26.9622 40.1444 27.5178C39.8715 27.7907 39.5056 27.9408 39.1135 27.9408C38.7214 27.9408 38.3555 27.7907 38.0826 27.5178L37.7304 27.1657L35.3047 29.5914L35.6565 29.9435C35.8213 30.108 35.9949 30.2584 36.1758 30.3947L36.1416 30.4286C36.7102 30.9973 36.7102 31.9221 36.1416 32.4908C35.5732 33.0591 34.6481 33.0591 34.0797 32.4908L33.4977 31.9131L31.0719 34.3388L31.4664 34.7332C31.7618 35.03 31.94 35.4519 31.9551 35.8917C31.9632 36.1317 31.9266 36.5849 31.5869 36.924C31.0501 37.4611 30.1206 37.4053 29.5156 36.8004L29.4676 36.7521L29.1585 36.4886L26.8324 39.0069C27.1188 39.2929 27.2789 39.6676 27.2833 40.0617C27.2876 40.443 27.1433 40.7999 26.8771 41.0661C26.3084 41.6348 25.3718 41.6233 24.785 41.0362L24.541 40.7942C25.2419 39.0079 24.8723 36.8954 23.4312 35.454C22.786 34.8088 21.9998 34.3572 21.1478 34.1306C21.3593 32.657 20.8994 31.1047 19.7681 29.9734C18.9205 29.1258 17.8362 28.6562 16.726 28.5625C16.6421 27.4587 16.1705 26.3758 15.3084 25.5137C14.4557 24.6611 13.3637 24.1911 12.2465 24.1011C12.1569 22.9839 11.6869 21.8919 10.8343 21.0393C8.9319 19.1375 5.83949 19.1332 3.93207 21.0275L1.53522 23.3418L1.51374 23.3629C0.592927 24.2837 0.0856934 25.5114 0.0856934 26.8196C0.0856934 28.1281 0.592927 29.3557 1.51374 30.2765C2.24253 31.0053 3.14621 31.4545 4.09086 31.626C4.04655 32.9329 4.52088 34.2542 5.51655 35.2495C6.40413 36.1374 7.58913 36.6228 8.86241 36.6228C8.88658 36.6228 8.91075 36.6225 8.93526 36.6222C9.0739 37.6417 9.53212 38.6236 10.3119 39.4034C11.2606 40.3521 12.5074 40.8257 13.7582 40.8254C13.8632 40.8254 13.9683 40.821 14.0734 40.8143C14.255 41.8127 14.7313 42.7308 15.4601 43.4596C16.43 44.4294 17.7036 44.9141 18.9775 44.9141C20.2216 44.9138 21.465 44.4502 22.4258 43.5254C23.3825 44.4499 24.6209 44.9141 25.8569 44.9138C27.1074 44.9138 28.3548 44.4405 29.3032 43.4918C30.0618 42.7331 30.5355 41.7673 30.6728 40.7203C31.8937 40.7183 33.0999 40.2631 34.0129 39.3497C34.8152 38.5477 35.2876 37.4943 35.3728 36.3392C36.536 36.2771 37.6811 35.8031 38.5676 34.9165C39.563 33.9212 40.0383 32.6002 39.9943 31.2937C40.9386 31.1222 41.842 30.672 42.5704 29.9435C44.4765 28.0375 44.4765 24.936 42.5704 23.0299ZM3.51649 26.8196C3.51649 26.4318 3.66352 26.0696 3.93073 25.7974L6.3249 23.4865L6.34639 23.4653C6.61931 23.1921 6.98555 23.042 7.3773 23.042C7.76939 23.042 8.13564 23.1921 8.40855 23.4653C8.68114 23.7382 8.83153 24.1041 8.83153 24.4962C8.83153 24.8219 8.72646 25.1293 8.53477 25.3808C8.48979 25.4221 8.44514 25.4637 8.40117 25.507L6.6418 27.2321L6.02311 27.8297L6.00163 27.8508C5.72871 28.1237 5.36247 28.2741 4.97038 28.2741C4.57862 28.2741 4.21238 28.1237 3.93946 27.8508C3.66654 27.5779 3.51649 27.2117 3.51649 26.8196ZM7.94228 32.8238C7.37529 32.2568 7.37395 31.3353 7.93758 30.7667L9.03597 29.6894L10.8128 27.974L10.8343 27.9532C10.8803 27.9072 10.9239 27.8599 10.9679 27.8126C11.5389 27.3762 12.3607 27.4174 12.8827 27.9394C13.4473 28.5044 13.4507 29.3218 12.8914 29.8861L9.96416 32.756C9.36394 33.3099 8.45992 33.3414 7.94228 32.8238ZM12.7377 36.9777C12.17 36.4097 12.1807 35.4751 12.7612 34.8923L15.2742 32.4055L15.2805 32.3991C15.5531 32.1262 15.9194 31.9762 16.3115 31.9762C16.7032 31.9762 17.0695 32.1262 17.3424 32.3991C17.91 32.9668 17.9107 33.89 17.3451 34.4586L14.8317 36.9458L14.8253 36.9518C14.2429 37.5346 13.3063 37.546 12.7377 36.9777ZM17.8859 41.0335C17.5901 40.7378 17.425 40.3413 17.4206 39.917C17.4162 39.5014 17.5693 39.1174 17.8516 38.8354L18.8809 37.8062C19.1555 37.5312 19.512 37.3953 19.8765 37.3953C20.275 37.3953 20.6835 37.5577 21.0055 37.8797C21.6074 38.4816 21.6074 39.4611 21.0055 40.063L20.0602 41.0426C19.4576 41.6354 18.4847 41.6324 17.8859 41.0335Z" fill="#4B71F8"/>
<path d="M44 2.71793C44 2.71793 37.0505 2.34986 31.0773 2.71793C26.5 3 24.9321 4.70307 22.5 6.49996C19.9706 8.36876 17.2322 11.3619 16.5 13.5C15.7678 15.638 18.7796 17.8667 20.6398 17.4333C22.5 16.9999 26.1071 12.528 26.1071 12.528L31.8 12.5" stroke="#FFE57E" stroke-width="3.45"/>
</g>
<defs>
<clipPath id="clip0">
<rect width="44.0001" height="45" fill="white"/>
</clipPath>
</defs>
</svg>
