<svg width="43" height="43" viewBox="0 0 43 43" fill="none" xmlns="http://www.w3.org/2000/svg">
<path d="M22.0039 16.208H5.71094V19.5674H22.0039V16.208Z" fill="#4B71F8"/>
<path d="M37.9609 1.42676H5.03906C2.26052 1.42676 0 3.68728 0 6.46582V27.9658C0 30.7444 2.26052 33.0049 5.03906 33.0049H19.4844V29.6455H5.03906C4.11288 29.6455 3.35938 28.892 3.35938 27.9658V13.6885H39.6406V17.562H43V6.46582C43 3.68728 40.7395 1.42676 37.9609 1.42676ZM39.6406 8.64941H3.35938V6.46582C3.35938 5.53964 4.11288 4.78613 5.03906 4.78613H37.9609C38.8871 4.78613 39.6406 5.53964 39.6406 6.46582V8.64941Z" fill="#4B71F8"/>
<path d="M40.1853 20.489C38.1607 20.1251 36.2341 18.9326 35.4998 18.4366C34.7338 17.9194 33.8423 17.646 32.9219 17.646C32.0014 17.646 31.11 17.9194 30.3439 18.4366C29.6096 18.9325 27.683 20.125 25.6585 20.489C24.0275 20.7825 22.8438 22.1971 22.8438 23.8529V29.0932C22.8438 36.9839 31.8536 41.0965 32.2372 41.2677L32.9219 41.5734L33.6065 41.2677C33.9902 41.0965 43 36.984 43 29.0933V23.853C43 22.1971 41.8162 20.7825 40.1853 20.489ZM39.6408 29.0933C39.6408 33.7481 34.7565 36.8496 32.922 37.8502C31.0851 36.8483 26.2031 33.7471 26.2031 29.0933V23.853C26.2031 23.8245 26.2237 23.8008 26.253 23.7955C28.8118 23.3354 31.0923 21.9849 32.2238 21.2209C32.4325 21.08 32.6739 21.0055 32.922 21.0055C33.17 21.0055 33.4113 21.08 33.62 21.2209C34.7516 21.985 37.0321 23.3355 39.5909 23.7955C39.6203 23.8008 39.6408 23.8245 39.6408 23.853V29.0933Z" fill="#FFE57E"/>
</svg>
