<svg width="42" height="42" viewBox="0 0 42 42" fill="none" xmlns="http://www.w3.org/2000/svg">
<g clip-path="url(#clip0)">
<path d="M30.4986 6.46899H20.6721V9.7445H30.4986V6.46899Z" fill="#4B71F8"/>
<path d="M4.95007 37.8318V29.8888C4.95007 29.4373 5.3174 29.07 5.7689 29.07H17.3968V25.7945H5.7689C5.3174 25.7945 4.95007 25.4271 4.95007 24.9756V16.9507C4.95007 16.4992 5.3174 16.1319 5.7689 16.1319H32.9554C33.4069 16.1319 33.7742 16.4992 33.7742 16.9507H37.0497C37.0497 16.0297 36.7439 15.1789 36.2287 14.4941C36.7439 13.8093 37.0497 12.9585 37.0497 12.0375V4.09434C37.0497 1.83676 35.213 0 32.9554 0H5.7689C3.51132 0 1.67456 1.83676 1.67456 4.09434V12.0373C1.67456 12.9583 1.98037 13.8091 2.49561 14.4939C1.98037 15.1787 1.67456 16.0296 1.67456 16.9505V24.9755C1.67456 25.8964 1.98037 26.7473 2.49561 27.4321C1.98037 28.1169 1.67456 28.9677 1.67456 29.8887V37.8317C1.67456 40.0892 3.51132 41.926 5.7689 41.926H20.6723V38.6505H5.7689C5.31749 38.6507 4.95007 38.2833 4.95007 37.8318ZM4.95007 4.09434C4.95007 3.64284 5.3174 3.27551 5.7689 3.27551H32.9554C33.4069 3.27551 33.7742 3.64284 33.7742 4.09434V12.0373C33.7742 12.4888 33.4069 12.8562 32.9554 12.8562H5.7689C5.3174 12.8562 4.95007 12.4888 4.95007 12.0373V4.09434Z" fill="#4B71F8"/>
<path d="M9.69976 9.7445C10.6043 9.7445 11.3375 9.01125 11.3375 8.10675C11.3375 7.20224 10.6043 6.46899 9.69976 6.46899C8.79526 6.46899 8.06201 7.20224 8.06201 8.10675C8.06201 9.01125 8.79526 9.7445 9.69976 9.7445Z" fill="#4B71F8"/>
<path d="M37.5805 21.4422C35.6066 21.0873 33.7281 19.9245 33.012 19.4409C32.2651 18.9367 31.396 18.6702 30.4986 18.6702C29.6011 18.6702 28.732 18.9367 27.985 19.441C27.269 19.9245 25.3906 21.0873 23.4166 21.4422C21.8263 21.7281 20.6721 23.1075 20.6721 24.722V29.8315C20.6721 37.5251 29.457 41.535 29.831 41.7019L30.4986 41.9999L31.1661 41.7019C31.5402 41.535 40.325 37.5251 40.325 29.8315V24.722C40.325 23.1076 39.1708 21.7281 37.5805 21.4422ZM37.0494 24.722V29.8315C37.0494 34.3723 32.2823 37.3972 30.4959 38.3711C28.7051 37.4013 23.9475 34.3945 23.9475 29.8315V24.722C23.9475 24.6942 23.9676 24.6712 23.9962 24.666C26.4912 24.2174 28.7146 22.9006 29.8178 22.1557C30.0214 22.0183 30.2567 21.9457 30.4985 21.9457C30.7402 21.9457 30.9757 22.0183 31.1791 22.1557C32.2824 22.9007 34.5059 24.2175 37.0008 24.6661C37.0296 24.6712 37.0495 24.6942 37.0494 24.722Z" fill="#FFE57E"/>
<path d="M9.69976 35.5389C10.6043 35.5389 11.3375 34.8057 11.3375 33.9012C11.3375 32.9967 10.6043 32.2634 9.69976 32.2634C8.79526 32.2634 8.06201 32.9967 8.06201 33.9012C8.06201 34.8057 8.79526 35.5389 9.69976 35.5389Z" fill="#4B71F8"/>
<path d="M9.69976 22.6007C10.6043 22.6007 11.3375 21.8675 11.3375 20.963C11.3375 20.0584 10.6043 19.3252 9.69976 19.3252C8.79526 19.3252 8.06201 20.0584 8.06201 20.963C8.06201 21.8675 8.79526 22.6007 9.69976 22.6007Z" fill="#4B71F8"/>
</g>
<defs>
<clipPath id="clip0">
<rect width="42" height="42" fill="white"/>
</clipPath>
</defs>
</svg>
