<svg width="43" height="43" viewBox="0 0 43 43" fill="none" xmlns="http://www.w3.org/2000/svg">
<path d="M12.9216 30.171L15.2971 32.5465L19.8203 28.0232V42.9999H23.1797V27.958L27.7681 32.5465L30.1436 30.1711L21.5326 21.5601L12.9216 30.171Z" fill="#FFE57E"/>
<path d="M27.2397 22.5163C28.8749 20.8296 29.8984 18.4334 29.8984 15.7788C29.8984 10.6848 26.131 6.55078 21.5 6.55078C16.869 6.55078 13.1016 10.6848 13.1016 15.7788C13.1016 18.4508 14.1385 20.861 15.7925 22.5493L18.1631 20.1787C17.1201 19.1008 16.4609 17.5284 16.4609 15.7788C16.4609 12.5372 18.7215 9.89991 21.5 9.89991C24.2785 9.89991 26.5391 12.5372 26.5391 15.7788C26.5391 17.5104 25.8937 19.0691 24.8693 20.1459L27.2397 22.5163Z" fill="#4B71F8"/>
<path d="M37.9609 0H5.03906C2.26052 0 0 2.26052 0 5.03906V26.5391C0 29.3176 2.26052 31.5781 5.03906 31.5781H10.0781V26.5391C10.0781 23.7605 7.8176 21.5 5.03906 21.5C4.4521 21.5 3.35938 21.5 3.35938 18.8125V12.7656C3.35938 10.0781 4.4521 10.0781 5.03906 10.0781C7.8176 10.0781 10.0781 7.8176 10.0781 5.03906C10.0781 4.06577 11.1378 3.35938 12.5977 3.35938H30.4023C31.8622 3.35938 32.9219 4.06577 32.9219 5.03906C32.9219 7.8176 35.1824 10.0781 37.9609 10.0781C38.5479 10.0781 39.6406 10.0781 39.6406 12.7656V18.8125C39.6406 21.5 38.5479 21.5 37.9609 21.5C35.1824 21.5 32.9219 23.7605 32.9219 26.5391V31.5781H37.9609C40.7395 31.5781 43 29.3176 43 26.5391V5.03906C43 2.26052 40.7395 0 37.9609 0ZM5.03906 24.8594C5.96524 24.8594 6.71875 25.6129 6.71875 26.5391V28.2188H5.03906C4.11288 28.2188 3.35938 27.4652 3.35938 26.5391V24.6052C3.87538 24.7725 4.43765 24.8594 5.03906 24.8594ZM6.71875 5.03906C6.71875 5.96524 5.96524 6.71875 5.03906 6.71875C4.43765 6.71875 3.87538 6.80576 3.35938 6.97297V5.03906C3.35938 4.11288 4.11288 3.35938 5.03906 3.35938H7.03008C6.8286 3.88058 6.71875 4.44437 6.71875 5.03906ZM39.6406 26.5391C39.6406 27.4652 38.8871 28.2188 37.9609 28.2188H36.2812V26.5391C36.2812 25.6129 37.0348 24.8594 37.9609 24.8594C38.5624 24.8594 39.1246 24.7725 39.6406 24.6052V26.5391ZM39.6406 6.97297C39.1246 6.80576 38.5624 6.71875 37.9609 6.71875C37.0348 6.71875 36.2812 5.96524 36.2812 5.03906C36.2812 4.44437 36.1714 3.88058 35.9699 3.35938H37.9609C38.8871 3.35938 39.6406 4.11288 39.6406 5.03906V6.97297Z" fill="#4B71F8"/>
<path d="M34.8535 17.4688C35.7812 17.4688 36.5332 16.7167 36.5332 15.7891C36.5332 14.8614 35.7812 14.1094 34.8535 14.1094C33.9258 14.1094 33.1738 14.8614 33.1738 15.7891C33.1738 16.7167 33.9258 17.4688 34.8535 17.4688Z" fill="#4B71F8"/>
<path d="M8.14648 17.3008C9.07415 17.3008 9.82617 16.5488 9.82617 15.6211C9.82617 14.6934 9.07415 13.9414 8.14648 13.9414C7.21882 13.9414 6.4668 14.6934 6.4668 15.6211C6.4668 16.5488 7.21882 17.3008 8.14648 17.3008Z" fill="#4B71F8"/>
</svg>
