<svg width="22" height="20" viewBox="0 0 22 20" fill="none" xmlns="http://www.w3.org/2000/svg">
<path d="M4.39073 8.33723C4.26423 8.6188 4.31451 8.94861 4.51919 9.17919L10.412 15.8204C10.7106 16.1564 11.2897 16.1564 11.5883 15.8204L17.4811 9.17919C17.6858 8.94821 17.7361 8.61841 17.6096 8.33723C17.4827 8.05606 17.2022 7.87488 16.893 7.87488H13.3573V0.790173C13.3573 0.357232 13.0053 0.00585938 12.5716 0.00585938H9.42873C8.99501 0.00585938 8.64301 0.357232 8.64301 0.790173V7.87449H5.1073C4.79812 7.87488 4.51762 8.05606 4.39073 8.33723Z" fill="#FFE57E"/>
<path d="M0.196533 18.8173C0.196533 19.4671 0.72414 19.9938 1.3751 19.9938H20.6251C21.2761 19.9938 21.8037 19.4671 21.8037 18.8173C21.8037 18.1675 21.2761 17.6409 20.6251 17.6409H1.3751C0.72414 17.6409 0.196533 18.1675 0.196533 18.8173Z" fill="#FFE57E"/>
</svg>
