<svg width="25" height="21" viewBox="0 0 25 21" fill="none" xmlns="http://www.w3.org/2000/svg">
<path d="M24.8324 2.88635C23.9193 3.28691 22.9462 3.55242 21.9318 3.68134C22.9754 3.05824 23.7719 2.07909 24.1464 0.898886C23.1734 1.47901 22.0991 1.88878 20.9542 2.11746C20.0303 1.1337 18.7135 0.524414 17.277 0.524414C14.4899 0.524414 12.2462 2.78659 12.2462 5.55984C12.2462 5.95887 12.2799 6.34255 12.3628 6.70781C8.17761 6.50369 4.47432 4.49781 1.98654 1.44218C1.55221 2.19573 1.29745 3.05824 1.29745 3.98675C1.29745 5.73019 2.19526 7.27566 3.53354 8.1704C2.72474 8.15505 1.93129 7.92024 1.25908 7.55037C1.25908 7.56572 1.25908 7.58567 1.25908 7.60562C1.25908 10.052 3.00406 12.0839 5.29233 12.552C4.88256 12.6641 4.43595 12.7178 3.97247 12.7178C3.65017 12.7178 3.32481 12.6994 3.0194 12.6318C3.67166 14.6254 5.52254 16.0911 7.72333 16.1387C6.01058 17.4785 3.83588 18.2858 1.48161 18.2858C1.06877 18.2858 0.672814 18.2673 0.276855 18.2167C2.50681 19.6547 5.1496 20.4758 7.99958 20.4758C17.2632 20.4758 22.3277 12.8022 22.3277 6.15071C22.3277 5.92817 22.3201 5.71331 22.3093 5.49998C23.3084 4.79094 24.1479 3.90541 24.8324 2.88635Z" fill="white"/>
</svg>
