<svg width="44" height="52" viewBox="0 0 44 52" fill="none" xmlns="http://www.w3.org/2000/svg">
<path d="M23.1001 50.5V51.6H39.7001C40.3001 51.6 40.8001 51.1 40.8001 50.5V26.5H23.1001V50.5Z" fill="#FF506F"/>
<path d="M3.30005 50.5C3.30005 51.1 3.80005 51.6 4.40005 51.6H21V50.5V26.5H3.30005V50.5Z" fill="#FF506F"/>
<path d="M42.0999 16H23.2999C27.5999 14.4 31.2 12.5 33.7 10.4C36.5 8.19999 37.7999 5.99999 37.5999 4.09999C37.5 2.99999 36.7 1.09999 32.9 0.499989C30.8 0.199989 28.7999 0.799989 27 2.39999C25.7 3.59999 24.5 5.29999 23.4 7.49999C23.1 8.19999 22.7999 8.89999 22.5 9.59999C22.5 9.49999 22.5 9.39999 22.4 9.19999C22.1 7.39999 21.7 5.79999 21.2 4.59999C20.5 2.89999 19.5 1.79999 18.4 1.39999C16.7 0.699989 14.7 1.39999 12.6 3.59999C10.3 5.89999 9.49995 7.99999 10.2 9.99999C10.9 12 13.1 13.7 16.7 15C17.8 15.4 18.9 15.7 19.7999 15.9H1.79995C1.19995 15.9 0.699951 16.4 0.699951 17V24.3H3.09995H20.7999V23.2V16.9V16H22.9V17.1V23.4V24.5H40.5999H43V17.2C43.0999 16.5 42.6999 16 42.0999 16ZM25.4 8.39999C26.3 6.49999 27.4 4.99999 28.5 3.99999C29.6 2.99999 30.7 2.59999 31.9 2.59999C32.1 2.59999 32.3999 2.59999 32.5999 2.69999C33.6999 2.89999 35.4 3.29999 35.5 4.39999C35.7 6.29999 32 10.2 23.5 13.7C23.9 12.3 24.5 10.3 25.4 8.39999ZM17.5 13.1C14.6 12.1 12.8 10.8 12.3 9.49999C11.9 8.29999 12.5 6.89999 14.2 5.19999C15.1 4.29999 16.2 3.39999 17.2 3.39999C17.4 3.39999 17.5 3.39999 17.7 3.49999C18.9 3.99999 19.9 6.19999 20.4 9.59999C20.7 11.3 20.8 12.9 20.9 14C20 13.9 18.7999 13.6 17.5 13.1Z" fill="#FF506F"/>
</svg>
