<svg width="655" height="550" viewBox="0 0 655 550" fill="none" xmlns="http://www.w3.org/2000/svg">
<path opacity="0.2" fill-rule="evenodd" clip-rule="evenodd" d="M376.791 0.508243C321.736 6.32167 282.53 62.1669 248.914 111.136C222.351 149.83 27.0458 75.7911 7.80939 119.546C-16.6005 175.069 22.5973 364.394 38.2729 423.708C53.7938 482.437 178.933 489.048 227.465 517.673C266.171 540.502 333.016 548.881 376.791 549.982C420.758 551.088 449.297 500.79 488.941 479.56C541.757 451.277 620.171 463.422 646.953 405.31C673.1 348.579 629.076 282.81 606.669 224.122C586.316 170.816 562.713 120.22 523.562 82.1353C481.33 41.0535 432.583 -5.383 376.791 0.508243Z" fill="#AD8EDE"/>
</svg>
