<svg width="552" height="514" viewBox="0 0 552 514" fill="none" xmlns="http://www.w3.org/2000/svg">
<g opacity="0.5" filter="url(#filter0_f)">
<path d="M78.1069 412.036L122.036 390.201L165.964 412.036L122.036 433.871L78.1069 412.036Z" fill="black"/>
</g>
<g opacity="0.5" filter="url(#filter1_f)">
<path d="M246 412.036L289.929 390.201L333.857 412.036L289.929 433.871L246 412.036Z" fill="black"/>
</g>
<g opacity="0.5" filter="url(#filter2_f)">
<path d="M401 412.036L444.929 390.201L488.857 412.036L444.929 433.871L401 412.036Z" fill="black"/>
</g>
<g opacity="0.67" filter="url(#filter3_f)">
<ellipse cx="276" cy="418.5" rx="256" ry="15.5" fill="#0A0B30"/>
</g>
<path opacity="0.2" d="M122 237.629L151 223V406.371L122 421V237.629Z" fill="#4B71F8"/>
<path opacity="0.2" d="M289 158.648L318 144V406.352L289 421V158.648Z" fill="#FCCF44"/>
<path opacity="0.2" d="M446 56.6278L475 42V406.372L446 421V56.6278Z" fill="#FF506F"/>
<path d="M122 344.512L151 330V406.488L122 421V344.512Z" fill="#4B71F8"/>
<path d="M289 418.562L318 404V406.438L289 421V418.562Z" fill="#FCCF44"/>
<path d="M446 419.531L475 405V406.469L446 421V419.531Z" fill="#FF506F"/>
<path opacity="0.1" d="M122 421L93 406.371L93 223L122 237.629L122 421Z" fill="#4B71F8"/>
<path opacity="0.1" d="M289 421L260 406.352L260 144L289 158.648L289 421Z" fill="#FCCF44"/>
<path opacity="0.1" d="M446 421L417 406.372L417 42L446 56.6278L446 421Z" fill="#FF506F"/>
<path opacity="0.7" d="M122 421L93 406.446L93 330L122 344.554L122 421Z" fill="#4B71F8"/>
<path opacity="0.7" d="M289 421L260 406.395L260 404L289 418.605L289 421Z" fill="#FCCF44"/>
<path opacity="0.7" d="M446 421L417 406.427L417 405L446 419.573L446 421Z" fill="#FF506F"/>
<path opacity="0.5" d="M93 330.683L122.036 316.25L151.071 330.683L122.036 345.115L93 330.683Z" fill="#4B71F8"/>
<g opacity="0.5" filter="url(#filter4_d)">
<path d="M93 325.683L122.036 311.25L151.071 325.683L122.036 340.115L93 325.683Z" fill="#4B71F8"/>
</g>
<path opacity="0.5" d="M93 208.683L122.036 194.25L151.071 208.683L122.036 223.115L93 208.683Z" fill="#4B71F8"/>
<path opacity="0.5" d="M260 130.036L289.036 115.603L318.071 130.036L289.036 144.468L260 130.036Z" fill="#FCCF44"/>
<path opacity="0.5" d="M417 29.0356L446.036 14.6033L475.071 29.0356L446.036 43.468L417 29.0356Z" fill="#FF506F"/>
<path opacity="0.15" d="M260 144.036L289.036 129.603L318.071 144.036L289.036 158.468L260 144.036Z" fill="#FCCF44"/>
<path opacity="0.5" d="M259.541 404.271L288.576 389.839L317.612 404.271L288.576 418.703L259.541 404.271Z" fill="#FCCF44"/>
<path opacity="0.5" d="M259.541 399.271L288.576 384.839L317.612 399.271L288.576 413.703L259.541 399.271Z" fill="#FCCF44"/>
<path opacity="0.5" d="M417 405L446 390.585L475 405L446 419.415L417 405Z" fill="#FF506F"/>
<path opacity="0.5" d="M417.081 400.51L446.117 386.077L475.152 400.51L446.117 414.942L417.081 400.51Z" fill="#FF506F"/>
<path opacity="0.15" d="M93 223.065L122.036 208.633L151.071 223.065L122.036 237.497L93 223.065Z" fill="#4B71F8"/>
<path opacity="0.15" d="M417.081 42.0356L446.117 27.6033L475.152 42.0356L446.117 56.468L417.081 42.0356Z" fill="#FF506F"/>
<path d="M96.5312 483.437C96.5312 483.017 96.3831 482.664 96.0869 482.377C95.7952 482.09 95.3008 481.83 94.6035 481.598C93.6328 481.301 92.9242 480.916 92.4775 480.442C92.0355 479.964 91.8145 479.358 91.8145 478.624C91.8145 477.877 92.0309 477.264 92.4639 476.785C92.9014 476.307 93.5007 476.022 94.2617 475.931V474.434H95.2803V475.938C96.0459 476.042 96.6406 476.364 97.0645 476.901C97.4928 477.439 97.707 478.175 97.707 479.109H96.4492C96.4492 478.467 96.2965 477.956 95.9912 477.578C95.6859 477.2 95.2734 477.011 94.7539 477.011C94.2116 477.011 93.7969 477.152 93.5098 477.435C93.2227 477.713 93.0791 478.102 93.0791 478.604C93.0791 479.068 93.2295 479.44 93.5303 479.718C93.8356 479.991 94.3346 480.242 95.0273 480.47C95.7246 480.693 96.2669 480.941 96.6543 481.215C97.0462 481.484 97.3333 481.798 97.5156 482.158C97.7025 482.518 97.7959 482.94 97.7959 483.423C97.7959 484.193 97.5635 484.813 97.0986 485.282C96.6383 485.752 95.9912 486.03 95.1572 486.116V487.422H94.1455V486.116C93.2979 486.039 92.6325 485.738 92.1494 485.214C91.6709 484.685 91.4316 483.97 91.4316 483.067H92.6963C92.6963 483.701 92.8626 484.188 93.1953 484.53C93.528 484.872 93.9997 485.043 94.6104 485.043C95.2074 485.043 95.6768 484.899 96.0186 484.612C96.3604 484.325 96.5312 483.933 96.5312 483.437ZM109.267 476.758L105.145 486H103.818L107.927 477.086H102.54V476.047H109.267V476.758ZM111.283 481.01L111.789 476.047H116.889V477.216H112.862L112.562 479.93C113.049 479.643 113.603 479.499 114.223 479.499C115.13 479.499 115.85 479.8 116.383 480.401C116.916 480.998 117.183 481.807 117.183 482.828C117.183 483.854 116.905 484.662 116.349 485.255C115.797 485.843 115.025 486.137 114.031 486.137C113.152 486.137 112.434 485.893 111.878 485.405C111.322 484.918 111.005 484.243 110.928 483.382H112.124C112.201 483.951 112.404 484.382 112.732 484.674C113.061 484.961 113.493 485.104 114.031 485.104C114.619 485.104 115.079 484.904 115.412 484.503C115.749 484.102 115.918 483.548 115.918 482.842C115.918 482.176 115.736 481.643 115.371 481.242C115.011 480.837 114.53 480.634 113.929 480.634C113.377 480.634 112.944 480.755 112.63 480.996L112.295 481.27L111.283 481.01ZM128.277 481.755C128.277 483.236 128.024 484.337 127.519 485.057C127.013 485.777 126.222 486.137 125.146 486.137C124.085 486.137 123.299 485.786 122.788 485.084C122.278 484.378 122.013 483.325 121.995 481.926V480.237C121.995 478.774 122.248 477.688 122.754 476.977C123.26 476.266 124.053 475.91 125.133 475.91C126.204 475.91 126.992 476.254 127.498 476.942C128.004 477.626 128.264 478.683 128.277 480.114V481.755ZM127.013 480.025C127.013 478.954 126.862 478.175 126.562 477.688C126.261 477.195 125.785 476.949 125.133 476.949C124.486 476.949 124.014 477.193 123.718 477.681C123.422 478.168 123.269 478.918 123.26 479.93V481.953C123.26 483.029 123.415 483.824 123.725 484.339C124.039 484.849 124.513 485.104 125.146 485.104C125.771 485.104 126.233 484.863 126.534 484.38C126.84 483.897 126.999 483.136 127.013 482.097V480.025ZM136.139 481.755C136.139 483.236 135.886 484.337 135.38 485.057C134.874 485.777 134.083 486.137 133.008 486.137C131.946 486.137 131.16 485.786 130.649 485.084C130.139 484.378 129.875 483.325 129.856 481.926V480.237C129.856 478.774 130.109 477.688 130.615 476.977C131.121 476.266 131.914 475.91 132.994 475.91C134.065 475.91 134.854 476.254 135.359 476.942C135.865 477.626 136.125 478.683 136.139 480.114V481.755ZM134.874 480.025C134.874 478.954 134.724 478.175 134.423 477.688C134.122 477.195 133.646 476.949 132.994 476.949C132.347 476.949 131.875 477.193 131.579 477.681C131.283 478.168 131.13 478.918 131.121 479.93V481.953C131.121 483.029 131.276 483.824 131.586 484.339C131.9 484.849 132.374 485.104 133.008 485.104C133.632 485.104 134.095 484.863 134.396 484.38C134.701 483.897 134.86 483.136 134.874 482.097V480.025ZM144 481.755C144 483.236 143.747 484.337 143.241 485.057C142.735 485.777 141.945 486.137 140.869 486.137C139.807 486.137 139.021 485.786 138.511 485.084C138 484.378 137.736 483.325 137.718 481.926V480.237C137.718 478.774 137.971 477.688 138.477 476.977C138.982 476.266 139.775 475.91 140.855 475.91C141.926 475.91 142.715 476.254 143.221 476.942C143.727 477.626 143.986 478.683 144 480.114V481.755ZM142.735 480.025C142.735 478.954 142.585 478.175 142.284 477.688C141.983 477.195 141.507 476.949 140.855 476.949C140.208 476.949 139.737 477.193 139.44 477.681C139.144 478.168 138.992 478.918 138.982 479.93V481.953C138.982 483.029 139.137 483.824 139.447 484.339C139.762 484.849 140.236 485.104 140.869 485.104C141.493 485.104 141.956 484.863 142.257 484.38C142.562 483.897 142.722 483.136 142.735 482.097V480.025Z" fill="#8F93D4"/>
<path d="M77.9834 505H76.7119V496.571L74.1621 497.508V496.359L77.7852 494.999H77.9834V505ZM88.7363 498.861L91.1221 495.047H92.667L89.5225 499.982L92.7422 505H91.1836L88.7363 501.117L86.2754 505H84.7236L87.9502 499.982L84.7988 495.047H86.3369L88.7363 498.861ZM99.8926 500.399H95.5791V503.927H100.59V505H94.2666V495.047H100.521V496.127H95.5791V499.326H99.8926V500.399ZM107.85 500.399H103.536V503.927H108.547V505H102.224V495.047H108.479V496.127H103.536V499.326H107.85V500.399ZM119.238 499.436H113.537V498.335H119.238V499.436ZM119.238 502.272H113.537V501.179H119.238V502.272ZM129.506 502.437C129.506 502.017 129.358 501.664 129.062 501.377C128.77 501.09 128.275 500.83 127.578 500.598C126.607 500.301 125.899 499.916 125.452 499.442C125.01 498.964 124.789 498.358 124.789 497.624C124.789 496.877 125.006 496.264 125.438 495.785C125.876 495.307 126.475 495.022 127.236 494.931V493.434H128.255V494.938C129.021 495.042 129.615 495.364 130.039 495.901C130.467 496.439 130.682 497.175 130.682 498.109H129.424C129.424 497.467 129.271 496.956 128.966 496.578C128.66 496.2 128.248 496.011 127.729 496.011C127.186 496.011 126.771 496.152 126.484 496.435C126.197 496.713 126.054 497.102 126.054 497.604C126.054 498.068 126.204 498.44 126.505 498.718C126.81 498.991 127.309 499.242 128.002 499.47C128.699 499.693 129.242 499.941 129.629 500.215C130.021 500.484 130.308 500.798 130.49 501.158C130.677 501.518 130.771 501.94 130.771 502.423C130.771 503.193 130.538 503.813 130.073 504.282C129.613 504.752 128.966 505.03 128.132 505.116V506.422H127.12V505.116C126.272 505.039 125.607 504.738 125.124 504.214C124.646 503.685 124.406 502.97 124.406 502.067H125.671C125.671 502.701 125.837 503.188 126.17 503.53C126.503 503.872 126.974 504.043 127.585 504.043C128.182 504.043 128.651 503.899 128.993 503.612C129.335 503.325 129.506 502.933 129.506 502.437ZM142.057 500.755C142.057 502.236 141.804 503.337 141.298 504.057C140.792 504.777 140.001 505.137 138.926 505.137C137.864 505.137 137.078 504.786 136.567 504.084C136.057 503.378 135.793 502.325 135.774 500.926V499.237C135.774 497.774 136.027 496.688 136.533 495.977C137.039 495.266 137.832 494.91 138.912 494.91C139.983 494.91 140.771 495.254 141.277 495.942C141.783 496.626 142.043 497.683 142.057 499.114V500.755ZM140.792 499.025C140.792 497.954 140.642 497.175 140.341 496.688C140.04 496.195 139.564 495.949 138.912 495.949C138.265 495.949 137.793 496.193 137.497 496.681C137.201 497.168 137.048 497.918 137.039 498.93V500.953C137.039 502.029 137.194 502.824 137.504 503.339C137.818 503.849 138.292 504.104 138.926 504.104C139.55 504.104 140.013 503.863 140.313 503.38C140.619 502.897 140.778 502.136 140.792 501.097V499.025ZM143.834 504.337C143.834 504.118 143.898 503.936 144.025 503.79C144.158 503.644 144.354 503.571 144.613 503.571C144.873 503.571 145.069 503.644 145.201 503.79C145.338 503.936 145.406 504.118 145.406 504.337C145.406 504.547 145.338 504.722 145.201 504.863C145.069 505.005 144.873 505.075 144.613 505.075C144.354 505.075 144.158 505.005 144.025 504.863C143.898 504.722 143.834 504.547 143.834 504.337ZM151.524 505H150.253V496.571L147.703 497.508V496.359L151.326 494.999H151.524V505ZM155.811 500.01L156.316 495.047H161.416V496.216H157.39L157.089 498.93C157.576 498.643 158.13 498.499 158.75 498.499C159.657 498.499 160.377 498.8 160.91 499.401C161.443 499.998 161.71 500.807 161.71 501.828C161.71 502.854 161.432 503.662 160.876 504.255C160.325 504.843 159.552 505.137 158.559 505.137C157.679 505.137 156.961 504.893 156.405 504.405C155.849 503.918 155.533 503.243 155.455 502.382H156.651C156.729 502.951 156.932 503.382 157.26 503.674C157.588 503.961 158.021 504.104 158.559 504.104C159.146 504.104 159.607 503.904 159.939 503.503C160.277 503.102 160.445 502.548 160.445 501.842C160.445 501.176 160.263 500.643 159.898 500.242C159.538 499.837 159.058 499.634 158.456 499.634C157.905 499.634 157.472 499.755 157.157 499.996L156.822 500.27L155.811 500.01Z" fill="#8F93D4"/>
<path d="M85.0078 452.99V458H83.3203V445.203H88.04C89.4404 445.203 90.5361 445.561 91.3271 446.275C92.124 446.99 92.5225 447.937 92.5225 449.114C92.5225 450.356 92.1328 451.314 91.3535 451.988C90.5801 452.656 89.4697 452.99 88.0225 452.99H85.0078ZM85.0078 451.61H88.04C88.9424 451.61 89.6338 451.399 90.1143 450.978C90.5947 450.55 90.835 449.935 90.835 449.132C90.835 448.37 90.5947 447.761 90.1143 447.304C89.6338 446.847 88.9746 446.609 88.1367 446.592H85.0078V451.61ZM99.0176 449.949C98.7715 449.908 98.5049 449.888 98.2178 449.888C97.1514 449.888 96.4277 450.342 96.0469 451.25V458H94.4209V448.49H96.0029L96.0293 449.589C96.5625 448.739 97.3184 448.314 98.2969 448.314C98.6133 448.314 98.8535 448.355 99.0176 448.438V449.949ZM104.291 458.176C103.002 458.176 101.953 457.754 101.145 456.91C100.336 456.061 99.9316 454.927 99.9316 453.509V453.21C99.9316 452.267 100.11 451.426 100.468 450.688C100.831 449.943 101.335 449.363 101.979 448.947C102.63 448.525 103.333 448.314 104.089 448.314C105.325 448.314 106.286 448.722 106.972 449.536C107.657 450.351 108 451.517 108 453.034V453.711H101.558C101.581 454.648 101.854 455.407 102.375 455.987C102.902 456.562 103.57 456.849 104.379 456.849C104.953 456.849 105.439 456.731 105.838 456.497C106.236 456.263 106.585 455.952 106.884 455.565L107.877 456.339C107.08 457.563 105.885 458.176 104.291 458.176ZM104.089 449.65C103.433 449.65 102.882 449.891 102.437 450.371C101.991 450.846 101.716 451.514 101.61 452.375H106.374V452.252C106.327 451.426 106.104 450.787 105.706 450.336C105.308 449.879 104.769 449.65 104.089 449.65ZM113.273 453.228H108.984V451.9H113.273V453.228ZM120.401 455.478C120.401 455.038 120.234 454.698 119.9 454.458C119.572 454.212 118.995 454.001 118.169 453.825C117.349 453.649 116.695 453.438 116.209 453.192C115.729 452.946 115.371 452.653 115.137 452.313C114.908 451.974 114.794 451.569 114.794 451.101C114.794 450.321 115.122 449.662 115.778 449.123C116.44 448.584 117.284 448.314 118.31 448.314C119.388 448.314 120.261 448.593 120.929 449.149C121.603 449.706 121.939 450.418 121.939 451.285H120.305C120.305 450.84 120.114 450.456 119.733 450.134C119.358 449.812 118.884 449.65 118.31 449.65C117.718 449.65 117.255 449.779 116.921 450.037C116.587 450.295 116.42 450.632 116.42 451.048C116.42 451.44 116.575 451.736 116.886 451.936C117.196 452.135 117.756 452.325 118.564 452.507C119.379 452.688 120.038 452.905 120.542 453.157C121.046 453.409 121.418 453.714 121.658 454.071C121.904 454.423 122.027 454.854 122.027 455.363C122.027 456.213 121.688 456.896 121.008 457.411C120.328 457.921 119.446 458.176 118.362 458.176C117.601 458.176 116.927 458.041 116.341 457.771C115.755 457.502 115.295 457.127 114.961 456.646C114.633 456.16 114.469 455.636 114.469 455.073H116.095C116.124 455.618 116.341 456.052 116.745 456.374C117.155 456.69 117.694 456.849 118.362 456.849C118.978 456.849 119.47 456.726 119.839 456.479C120.214 456.228 120.401 455.894 120.401 455.478ZM128.092 458.176C126.803 458.176 125.754 457.754 124.945 456.91C124.137 456.061 123.732 454.927 123.732 453.509V453.21C123.732 452.267 123.911 451.426 124.269 450.688C124.632 449.943 125.136 449.363 125.78 448.947C126.431 448.525 127.134 448.314 127.89 448.314C129.126 448.314 130.087 448.722 130.772 449.536C131.458 450.351 131.801 451.517 131.801 453.034V453.711H125.358C125.382 454.648 125.654 455.407 126.176 455.987C126.703 456.562 127.371 456.849 128.18 456.849C128.754 456.849 129.24 456.731 129.639 456.497C130.037 456.263 130.386 455.952 130.685 455.565L131.678 456.339C130.881 457.563 129.686 458.176 128.092 458.176ZM127.89 449.65C127.233 449.65 126.683 449.891 126.237 450.371C125.792 450.846 125.517 451.514 125.411 452.375H130.175V452.252C130.128 451.426 129.905 450.787 129.507 450.336C129.108 449.879 128.569 449.65 127.89 449.65ZM137.637 458.176C136.348 458.176 135.299 457.754 134.49 456.91C133.682 456.061 133.277 454.927 133.277 453.509V453.21C133.277 452.267 133.456 451.426 133.813 450.688C134.177 449.943 134.681 449.363 135.325 448.947C135.976 448.525 136.679 448.314 137.435 448.314C138.671 448.314 139.632 448.722 140.317 449.536C141.003 450.351 141.346 451.517 141.346 453.034V453.711H134.903C134.927 454.648 135.199 455.407 135.721 455.987C136.248 456.562 136.916 456.849 137.725 456.849C138.299 456.849 138.785 456.731 139.184 456.497C139.582 456.263 139.931 455.952 140.229 455.565L141.223 456.339C140.426 457.563 139.23 458.176 137.637 458.176ZM137.435 449.65C136.778 449.65 136.228 449.891 135.782 450.371C135.337 450.846 135.062 451.514 134.956 452.375H139.72V452.252C139.673 451.426 139.45 450.787 139.052 450.336C138.653 449.879 138.114 449.65 137.435 449.65ZM142.84 453.166C142.84 451.707 143.186 450.535 143.877 449.65C144.568 448.76 145.474 448.314 146.593 448.314C147.706 448.314 148.588 448.695 149.238 449.457V444.5H150.864V458H149.37L149.291 456.98C148.641 457.777 147.735 458.176 146.575 458.176C145.474 458.176 144.574 457.725 143.877 456.822C143.186 455.92 142.84 454.742 142.84 453.289V453.166ZM144.466 453.351C144.466 454.429 144.688 455.272 145.134 455.882C145.579 456.491 146.194 456.796 146.979 456.796C148.011 456.796 148.764 456.333 149.238 455.407V451.039C148.752 450.143 148.005 449.694 146.997 449.694C146.2 449.694 145.579 450.002 145.134 450.617C144.688 451.232 144.466 452.144 144.466 453.351Z" fill="#DEE0FF"/>
<path d="M263.864 483.437C263.864 483.017 263.716 482.664 263.42 482.377C263.128 482.09 262.634 481.83 261.937 481.598C260.966 481.301 260.257 480.916 259.811 480.442C259.368 479.964 259.147 479.358 259.147 478.624C259.147 477.877 259.364 477.264 259.797 476.785C260.234 476.307 260.834 476.022 261.595 475.931V474.434H262.613V475.938C263.379 476.042 263.974 476.364 264.397 476.901C264.826 477.439 265.04 478.175 265.04 479.109H263.782C263.782 478.467 263.63 477.956 263.324 477.578C263.019 477.2 262.606 477.011 262.087 477.011C261.545 477.011 261.13 477.152 260.843 477.435C260.556 477.713 260.412 478.102 260.412 478.604C260.412 479.068 260.562 479.44 260.863 479.718C261.169 479.991 261.668 480.242 262.36 480.47C263.058 480.693 263.6 480.941 263.987 481.215C264.379 481.484 264.666 481.798 264.849 482.158C265.035 482.518 265.129 482.94 265.129 483.423C265.129 484.193 264.896 484.813 264.432 485.282C263.971 485.752 263.324 486.03 262.49 486.116V487.422H261.479V486.116C260.631 486.039 259.965 485.738 259.482 485.214C259.004 484.685 258.765 483.97 258.765 483.067H260.029C260.029 483.701 260.196 484.188 260.528 484.53C260.861 484.872 261.333 485.043 261.943 485.043C262.54 485.043 263.01 484.899 263.352 484.612C263.693 484.325 263.864 483.933 263.864 483.437ZM276.6 476.758L272.478 486H271.151L275.26 477.086H269.873V476.047H276.6V476.758ZM278.616 481.01L279.122 476.047H284.222V477.216H280.195L279.895 479.93C280.382 479.643 280.936 479.499 281.556 479.499C282.463 479.499 283.183 479.8 283.716 480.401C284.249 480.998 284.516 481.807 284.516 482.828C284.516 483.854 284.238 484.662 283.682 485.255C283.13 485.843 282.358 486.137 281.364 486.137C280.485 486.137 279.767 485.893 279.211 485.405C278.655 484.918 278.338 484.243 278.261 483.382H279.457C279.535 483.951 279.737 484.382 280.065 484.674C280.394 484.961 280.826 485.104 281.364 485.104C281.952 485.104 282.412 484.904 282.745 484.503C283.082 484.102 283.251 483.548 283.251 482.842C283.251 482.176 283.069 481.643 282.704 481.242C282.344 480.837 281.863 480.634 281.262 480.634C280.71 480.634 280.277 480.755 279.963 480.996L279.628 481.27L278.616 481.01ZM292.138 481.755C292.138 483.236 291.885 484.337 291.379 485.057C290.873 485.777 290.082 486.137 289.007 486.137C287.945 486.137 287.159 485.786 286.648 485.084C286.138 484.378 285.874 483.325 285.855 481.926V480.237C285.855 478.774 286.108 477.688 286.614 476.977C287.12 476.266 287.913 475.91 288.993 475.91C290.064 475.91 290.853 476.254 291.358 476.942C291.864 477.626 292.124 478.683 292.138 480.114V481.755ZM290.873 480.025C290.873 478.954 290.723 478.175 290.422 477.688C290.121 477.195 289.645 476.949 288.993 476.949C288.346 476.949 287.874 477.193 287.578 477.681C287.282 478.168 287.129 478.918 287.12 479.93V481.953C287.12 483.029 287.275 483.824 287.585 484.339C287.899 484.849 288.373 485.104 289.007 485.104C289.631 485.104 290.094 484.863 290.395 484.38C290.7 483.897 290.859 483.136 290.873 482.097V480.025ZM303.472 481.755C303.472 483.236 303.219 484.337 302.713 485.057C302.207 485.777 301.416 486.137 300.341 486.137C299.279 486.137 298.493 485.786 297.982 485.084C297.472 484.378 297.208 483.325 297.189 481.926V480.237C297.189 478.774 297.442 477.688 297.948 476.977C298.454 476.266 299.247 475.91 300.327 475.91C301.398 475.91 302.187 476.254 302.692 476.942C303.198 477.626 303.458 478.683 303.472 480.114V481.755ZM302.207 480.025C302.207 478.954 302.057 478.175 301.756 477.688C301.455 477.195 300.979 476.949 300.327 476.949C299.68 476.949 299.208 477.193 298.912 477.681C298.616 478.168 298.463 478.918 298.454 479.93V481.953C298.454 483.029 298.609 483.824 298.919 484.339C299.233 484.849 299.707 485.104 300.341 485.104C300.965 485.104 301.428 484.863 301.729 484.38C302.034 483.897 302.193 483.136 302.207 482.097V480.025ZM311.333 481.755C311.333 483.236 311.08 484.337 310.574 485.057C310.068 485.777 309.278 486.137 308.202 486.137C307.14 486.137 306.354 485.786 305.844 485.084C305.333 484.378 305.069 483.325 305.051 481.926V480.237C305.051 478.774 305.304 477.688 305.81 476.977C306.315 476.266 307.108 475.91 308.188 475.91C309.259 475.91 310.048 476.254 310.554 476.942C311.06 477.626 311.319 478.683 311.333 480.114V481.755ZM310.068 480.025C310.068 478.954 309.918 478.175 309.617 477.688C309.316 477.195 308.84 476.949 308.188 476.949C307.541 476.949 307.07 477.193 306.773 477.681C306.477 478.168 306.325 478.918 306.315 479.93V481.953C306.315 483.029 306.47 483.824 306.78 484.339C307.095 484.849 307.569 485.104 308.202 485.104C308.826 485.104 309.289 484.863 309.59 484.38C309.895 483.897 310.055 483.136 310.068 482.097V480.025ZM319.194 481.755C319.194 483.236 318.941 484.337 318.436 485.057C317.93 485.777 317.139 486.137 316.063 486.137C315.002 486.137 314.215 485.786 313.705 485.084C313.195 484.378 312.93 483.325 312.912 481.926V480.237C312.912 478.774 313.165 477.688 313.671 476.977C314.177 476.266 314.97 475.91 316.05 475.91C317.121 475.91 317.909 476.254 318.415 476.942C318.921 477.626 319.181 478.683 319.194 480.114V481.755ZM317.93 480.025C317.93 478.954 317.779 478.175 317.479 477.688C317.178 477.195 316.701 476.949 316.05 476.949C315.403 476.949 314.931 477.193 314.635 477.681C314.339 478.168 314.186 478.918 314.177 479.93V481.953C314.177 483.029 314.332 483.824 314.642 484.339C314.956 484.849 315.43 485.104 316.063 485.104C316.688 485.104 317.15 484.863 317.451 484.38C317.757 483.897 317.916 483.136 317.93 482.097V480.025Z" fill="#8F93D4"/>
<path d="M250.983 505H249.712V496.571L247.162 497.508V496.359L250.785 494.999H250.983V505ZM261.736 498.861L264.122 495.047H265.667L262.522 499.982L265.742 505H264.184L261.736 501.117L259.275 505H257.724L260.95 499.982L257.799 495.047H259.337L261.736 498.861ZM272.893 500.399H268.579V503.927H273.59V505H267.267V495.047H273.521V496.127H268.579V499.326H272.893V500.399ZM280.85 500.399H276.536V503.927H281.547V505H275.224V495.047H281.479V496.127H276.536V499.326H280.85V500.399ZM292.238 499.436H286.537V498.335H292.238V499.436ZM292.238 502.272H286.537V501.179H292.238V502.272ZM302.506 502.437C302.506 502.017 302.358 501.664 302.062 501.377C301.77 501.09 301.275 500.83 300.578 500.598C299.607 500.301 298.899 499.916 298.452 499.442C298.01 498.964 297.789 498.358 297.789 497.624C297.789 496.877 298.006 496.264 298.438 495.785C298.876 495.307 299.475 495.022 300.236 494.931V493.434H301.255V494.938C302.021 495.042 302.615 495.364 303.039 495.901C303.467 496.439 303.682 497.175 303.682 498.109H302.424C302.424 497.467 302.271 496.956 301.966 496.578C301.66 496.2 301.248 496.011 300.729 496.011C300.186 496.011 299.771 496.152 299.484 496.435C299.197 496.713 299.054 497.102 299.054 497.604C299.054 498.068 299.204 498.44 299.505 498.718C299.81 498.991 300.309 499.242 301.002 499.47C301.699 499.693 302.242 499.941 302.629 500.215C303.021 500.484 303.308 500.798 303.49 501.158C303.677 501.518 303.771 501.94 303.771 502.423C303.771 503.193 303.538 503.813 303.073 504.282C302.613 504.752 301.966 505.03 301.132 505.116V506.422H300.12V505.116C299.272 505.039 298.607 504.738 298.124 504.214C297.646 503.685 297.406 502.97 297.406 502.067H298.671C298.671 502.701 298.837 503.188 299.17 503.53C299.503 503.872 299.974 504.043 300.585 504.043C301.182 504.043 301.651 503.899 301.993 503.612C302.335 503.325 302.506 502.933 302.506 502.437ZM315.057 500.755C315.057 502.236 314.804 503.337 314.298 504.057C313.792 504.777 313.001 505.137 311.926 505.137C310.864 505.137 310.078 504.786 309.567 504.084C309.057 503.378 308.793 502.325 308.774 500.926V499.237C308.774 497.774 309.027 496.688 309.533 495.977C310.039 495.266 310.832 494.91 311.912 494.91C312.983 494.91 313.771 495.254 314.277 495.942C314.783 496.626 315.043 497.683 315.057 499.114V500.755ZM313.792 499.025C313.792 497.954 313.642 497.175 313.341 496.688C313.04 496.195 312.564 495.949 311.912 495.949C311.265 495.949 310.793 496.193 310.497 496.681C310.201 497.168 310.048 497.918 310.039 498.93V500.953C310.039 502.029 310.194 502.824 310.504 503.339C310.818 503.849 311.292 504.104 311.926 504.104C312.55 504.104 313.013 503.863 313.313 503.38C313.619 502.897 313.778 502.136 313.792 501.097V499.025ZM316.834 504.337C316.834 504.118 316.898 503.936 317.025 503.79C317.158 503.644 317.354 503.571 317.613 503.571C317.873 503.571 318.069 503.644 318.201 503.79C318.338 503.936 318.406 504.118 318.406 504.337C318.406 504.547 318.338 504.722 318.201 504.863C318.069 505.005 317.873 505.075 317.613 505.075C317.354 505.075 317.158 505.005 317.025 504.863C316.898 504.722 316.834 504.547 316.834 504.337ZM322.207 499.408H323.157C323.754 499.399 324.224 499.242 324.565 498.937C324.907 498.631 325.078 498.219 325.078 497.699C325.078 496.533 324.497 495.949 323.335 495.949C322.788 495.949 322.351 496.106 322.022 496.421C321.699 496.731 321.537 497.143 321.537 497.658H320.272C320.272 496.87 320.56 496.216 321.134 495.696C321.713 495.172 322.446 494.91 323.335 494.91C324.274 494.91 325.01 495.159 325.543 495.655C326.076 496.152 326.343 496.842 326.343 497.727C326.343 498.16 326.201 498.579 325.919 498.984C325.641 499.39 325.26 499.693 324.777 499.894C325.324 500.067 325.746 500.354 326.042 500.755C326.343 501.156 326.493 501.646 326.493 502.225C326.493 503.118 326.201 503.826 325.618 504.351C325.035 504.875 324.276 505.137 323.342 505.137C322.408 505.137 321.646 504.884 321.059 504.378C320.475 503.872 320.184 503.204 320.184 502.375H321.455C321.455 502.899 321.626 503.318 321.968 503.633C322.31 503.947 322.768 504.104 323.342 504.104C323.952 504.104 324.42 503.945 324.743 503.626C325.067 503.307 325.229 502.849 325.229 502.252C325.229 501.673 325.051 501.229 324.695 500.919C324.34 500.609 323.827 500.45 323.157 500.44H322.207V499.408ZM334.471 500.755C334.471 502.236 334.218 503.337 333.712 504.057C333.206 504.777 332.415 505.137 331.34 505.137C330.278 505.137 329.492 504.786 328.981 504.084C328.471 503.378 328.207 502.325 328.188 500.926V499.237C328.188 497.774 328.441 496.688 328.947 495.977C329.453 495.266 330.246 494.91 331.326 494.91C332.397 494.91 333.186 495.254 333.691 495.942C334.197 496.626 334.457 497.683 334.471 499.114V500.755ZM333.206 499.025C333.206 497.954 333.056 497.175 332.755 496.688C332.454 496.195 331.978 495.949 331.326 495.949C330.679 495.949 330.207 496.193 329.911 496.681C329.615 497.168 329.462 497.918 329.453 498.93V500.953C329.453 502.029 329.608 502.824 329.918 503.339C330.232 503.849 330.706 504.104 331.34 504.104C331.964 504.104 332.427 503.863 332.728 503.38C333.033 502.897 333.192 502.136 333.206 501.097V499.025Z" fill="#8F93D4"/>
<path d="M275.287 452.296C273.84 451.88 272.785 451.37 272.123 450.767C271.467 450.157 271.139 449.407 271.139 448.517C271.139 447.509 271.54 446.677 272.343 446.021C273.151 445.358 274.2 445.027 275.489 445.027C276.368 445.027 277.15 445.197 277.836 445.537C278.527 445.877 279.061 446.346 279.436 446.943C279.816 447.541 280.007 448.194 280.007 448.903H278.311C278.311 448.13 278.064 447.523 277.572 447.084C277.08 446.639 276.386 446.416 275.489 446.416C274.657 446.416 274.007 446.601 273.538 446.97C273.075 447.333 272.844 447.84 272.844 448.49C272.844 449.012 273.063 449.454 273.503 449.817C273.948 450.175 274.701 450.503 275.762 450.802C276.828 451.101 277.66 451.432 278.258 451.795C278.861 452.152 279.307 452.571 279.594 453.052C279.887 453.532 280.033 454.098 280.033 454.748C280.033 455.785 279.629 456.617 278.82 457.244C278.012 457.865 276.931 458.176 275.577 458.176C274.698 458.176 273.878 458.009 273.116 457.675C272.354 457.335 271.766 456.872 271.35 456.286C270.939 455.7 270.734 455.035 270.734 454.291H272.431C272.431 455.064 272.715 455.677 273.283 456.128C273.857 456.573 274.622 456.796 275.577 456.796C276.468 456.796 277.15 456.614 277.625 456.251C278.1 455.888 278.337 455.393 278.337 454.766C278.337 454.139 278.117 453.655 277.678 453.315C277.238 452.97 276.441 452.63 275.287 452.296ZM285.896 458.176C284.606 458.176 283.558 457.754 282.749 456.91C281.94 456.061 281.536 454.927 281.536 453.509V453.21C281.536 452.267 281.715 451.426 282.072 450.688C282.436 449.943 282.939 449.363 283.584 448.947C284.234 448.525 284.938 448.314 285.693 448.314C286.93 448.314 287.891 448.722 288.576 449.536C289.262 450.351 289.604 451.517 289.604 453.034V453.711H283.162C283.186 454.648 283.458 455.407 283.979 455.987C284.507 456.562 285.175 456.849 285.983 456.849C286.558 456.849 287.044 456.731 287.442 456.497C287.841 456.263 288.189 455.952 288.488 455.565L289.481 456.339C288.685 457.563 287.489 458.176 285.896 458.176ZM285.693 449.65C285.037 449.65 284.486 449.891 284.041 450.371C283.596 450.846 283.32 451.514 283.215 452.375H287.979V452.252C287.932 451.426 287.709 450.787 287.311 450.336C286.912 449.879 286.373 449.65 285.693 449.65ZM295.44 458.176C294.151 458.176 293.103 457.754 292.294 456.91C291.485 456.061 291.081 454.927 291.081 453.509V453.21C291.081 452.267 291.26 451.426 291.617 450.688C291.98 449.943 292.484 449.363 293.129 448.947C293.779 448.525 294.482 448.314 295.238 448.314C296.475 448.314 297.436 448.722 298.121 449.536C298.807 450.351 299.149 451.517 299.149 453.034V453.711H292.707C292.73 454.648 293.003 455.407 293.524 455.987C294.052 456.562 294.72 456.849 295.528 456.849C296.103 456.849 296.589 456.731 296.987 456.497C297.386 456.263 297.734 455.952 298.033 455.565L299.026 456.339C298.229 457.563 297.034 458.176 295.44 458.176ZM295.238 449.65C294.582 449.65 294.031 449.891 293.586 450.371C293.141 450.846 292.865 451.514 292.76 452.375H297.523V452.252C297.477 451.426 297.254 450.787 296.855 450.336C296.457 449.879 295.918 449.65 295.238 449.65ZM300.644 453.166C300.644 451.707 300.989 450.535 301.681 449.65C302.372 448.76 303.277 448.314 304.396 448.314C305.51 448.314 306.392 448.695 307.042 449.457V444.5H308.668V458H307.174L307.095 456.98C306.444 457.777 305.539 458.176 304.379 458.176C303.277 458.176 302.378 457.725 301.681 456.822C300.989 455.92 300.644 454.742 300.644 453.289V453.166ZM302.27 453.351C302.27 454.429 302.492 455.272 302.938 455.882C303.383 456.491 303.998 456.796 304.783 456.796C305.814 456.796 306.567 456.333 307.042 455.407V451.039C306.556 450.143 305.809 449.694 304.801 449.694C304.004 449.694 303.383 450.002 302.938 450.617C302.492 451.232 302.27 452.144 302.27 453.351Z" fill="#DEE0FF"/>
<path d="M415.197 483.437C415.197 483.017 415.049 482.664 414.753 482.377C414.461 482.09 413.967 481.83 413.27 481.598C412.299 481.301 411.59 480.916 411.144 480.442C410.701 479.964 410.48 479.358 410.48 478.624C410.48 477.877 410.697 477.264 411.13 476.785C411.567 476.307 412.167 476.022 412.928 475.931V474.434H413.946V475.938C414.712 476.042 415.307 476.364 415.73 476.901C416.159 477.439 416.373 478.175 416.373 479.109H415.115C415.115 478.467 414.963 477.956 414.657 477.578C414.352 477.2 413.939 477.011 413.42 477.011C412.878 477.011 412.463 477.152 412.176 477.435C411.889 477.713 411.745 478.102 411.745 478.604C411.745 479.068 411.896 479.44 412.196 479.718C412.502 479.991 413.001 480.242 413.693 480.47C414.391 480.693 414.933 480.941 415.32 481.215C415.712 481.484 415.999 481.798 416.182 482.158C416.368 482.518 416.462 482.94 416.462 483.423C416.462 484.193 416.229 484.813 415.765 485.282C415.304 485.752 414.657 486.03 413.823 486.116V487.422H412.812V486.116C411.964 486.039 411.299 485.738 410.815 485.214C410.337 484.685 410.098 483.97 410.098 483.067H411.362C411.362 483.701 411.529 484.188 411.861 484.53C412.194 484.872 412.666 485.043 413.276 485.043C413.873 485.043 414.343 484.899 414.685 484.612C415.026 484.325 415.197 483.933 415.197 483.437ZM427.933 476.758L423.811 486H422.484L426.593 477.086H421.206V476.047H427.933V476.758ZM433.422 481.01L433.928 476.047H439.027V477.216H435.001L434.7 479.93C435.188 479.643 435.742 479.499 436.361 479.499C437.268 479.499 437.988 479.8 438.521 480.401C439.055 480.998 439.321 481.807 439.321 482.828C439.321 483.854 439.043 484.662 438.487 485.255C437.936 485.843 437.163 486.137 436.17 486.137C435.29 486.137 434.573 485.893 434.017 485.405C433.461 484.918 433.144 484.243 433.066 483.382H434.263C434.34 483.951 434.543 484.382 434.871 484.674C435.199 484.961 435.632 485.104 436.17 485.104C436.758 485.104 437.218 484.904 437.551 484.503C437.888 484.102 438.057 483.548 438.057 482.842C438.057 482.176 437.874 481.643 437.51 481.242C437.15 480.837 436.669 480.634 436.067 480.634C435.516 480.634 435.083 480.755 434.769 480.996L434.434 481.27L433.422 481.01ZM446.943 481.755C446.943 483.236 446.69 484.337 446.185 485.057C445.679 485.777 444.888 486.137 443.812 486.137C442.751 486.137 441.965 485.786 441.454 485.084C440.944 484.378 440.679 483.325 440.661 481.926V480.237C440.661 478.774 440.914 477.688 441.42 476.977C441.926 476.266 442.719 475.91 443.799 475.91C444.87 475.91 445.658 476.254 446.164 476.942C446.67 477.626 446.93 478.683 446.943 480.114V481.755ZM445.679 480.025C445.679 478.954 445.528 478.175 445.228 477.688C444.927 477.195 444.451 476.949 443.799 476.949C443.152 476.949 442.68 477.193 442.384 477.681C442.088 478.168 441.935 478.918 441.926 479.93V481.953C441.926 483.029 442.081 483.824 442.391 484.339C442.705 484.849 443.179 485.104 443.812 485.104C444.437 485.104 444.899 484.863 445.2 484.38C445.506 483.897 445.665 483.136 445.679 482.097V480.025ZM454.805 481.755C454.805 483.236 454.552 484.337 454.046 485.057C453.54 485.777 452.749 486.137 451.674 486.137C450.612 486.137 449.826 485.786 449.315 485.084C448.805 484.378 448.541 483.325 448.522 481.926V480.237C448.522 478.774 448.775 477.688 449.281 476.977C449.787 476.266 450.58 475.91 451.66 475.91C452.731 475.91 453.52 476.254 454.025 476.942C454.531 477.626 454.791 478.683 454.805 480.114V481.755ZM453.54 480.025C453.54 478.954 453.39 478.175 453.089 477.688C452.788 477.195 452.312 476.949 451.66 476.949C451.013 476.949 450.541 477.193 450.245 477.681C449.949 478.168 449.796 478.918 449.787 479.93V481.953C449.787 483.029 449.942 483.824 450.252 484.339C450.566 484.849 451.04 485.104 451.674 485.104C452.298 485.104 452.761 484.863 453.062 484.38C453.367 483.897 453.526 483.136 453.54 482.097V480.025ZM466.139 481.755C466.139 483.236 465.886 484.337 465.38 485.057C464.874 485.777 464.083 486.137 463.008 486.137C461.946 486.137 461.16 485.786 460.649 485.084C460.139 484.378 459.875 483.325 459.856 481.926V480.237C459.856 478.774 460.109 477.688 460.615 476.977C461.121 476.266 461.914 475.91 462.994 475.91C464.065 475.91 464.854 476.254 465.359 476.942C465.865 477.626 466.125 478.683 466.139 480.114V481.755ZM464.874 480.025C464.874 478.954 464.724 478.175 464.423 477.688C464.122 477.195 463.646 476.949 462.994 476.949C462.347 476.949 461.875 477.193 461.579 477.681C461.283 478.168 461.13 478.918 461.121 479.93V481.953C461.121 483.029 461.276 483.824 461.586 484.339C461.9 484.849 462.374 485.104 463.008 485.104C463.632 485.104 464.095 484.863 464.396 484.38C464.701 483.897 464.86 483.136 464.874 482.097V480.025ZM474 481.755C474 483.236 473.747 484.337 473.241 485.057C472.735 485.777 471.945 486.137 470.869 486.137C469.807 486.137 469.021 485.786 468.511 485.084C468 484.378 467.736 483.325 467.718 481.926V480.237C467.718 478.774 467.971 477.688 468.477 476.977C468.982 476.266 469.775 475.91 470.855 475.91C471.926 475.91 472.715 476.254 473.221 476.942C473.727 477.626 473.986 478.683 474 480.114V481.755ZM472.735 480.025C472.735 478.954 472.585 478.175 472.284 477.688C471.983 477.195 471.507 476.949 470.855 476.949C470.208 476.949 469.737 477.193 469.44 477.681C469.144 478.168 468.992 478.918 468.982 479.93V481.953C468.982 483.029 469.137 483.824 469.447 484.339C469.762 484.849 470.236 485.104 470.869 485.104C471.493 485.104 471.956 484.863 472.257 484.38C472.562 483.897 472.722 483.136 472.735 482.097V480.025ZM481.861 481.755C481.861 483.236 481.608 484.337 481.103 485.057C480.597 485.777 479.806 486.137 478.73 486.137C477.669 486.137 476.882 485.786 476.372 485.084C475.862 484.378 475.597 483.325 475.579 481.926V480.237C475.579 478.774 475.832 477.688 476.338 476.977C476.844 476.266 477.637 475.91 478.717 475.91C479.788 475.91 480.576 476.254 481.082 476.942C481.588 477.626 481.848 478.683 481.861 480.114V481.755ZM480.597 480.025C480.597 478.954 480.446 478.175 480.146 477.688C479.845 477.195 479.368 476.949 478.717 476.949C478.07 476.949 477.598 477.193 477.302 477.681C477.006 478.168 476.853 478.918 476.844 479.93V481.953C476.844 483.029 476.999 483.824 477.309 484.339C477.623 484.849 478.097 485.104 478.73 485.104C479.355 485.104 479.817 484.863 480.118 484.38C480.424 483.897 480.583 483.136 480.597 482.097V480.025Z" fill="#8F93D4"/>
<path d="M407.983 505H406.712V496.571L404.162 497.508V496.359L407.785 494.999H407.983V505ZM418.736 498.861L421.122 495.047H422.667L419.522 499.982L422.742 505H421.184L418.736 501.117L416.275 505H414.724L417.95 499.982L414.799 495.047H416.337L418.736 498.861ZM429.893 500.399H425.579V503.927H430.59V505H424.267V495.047H430.521V496.127H425.579V499.326H429.893V500.399ZM437.85 500.399H433.536V503.927H438.547V505H432.224V495.047H438.479V496.127H433.536V499.326H437.85V500.399ZM449.238 499.436H443.537V498.335H449.238V499.436ZM449.238 502.272H443.537V501.179H449.238V502.272ZM459.506 502.437C459.506 502.017 459.358 501.664 459.062 501.377C458.77 501.09 458.275 500.83 457.578 500.598C456.607 500.301 455.899 499.916 455.452 499.442C455.01 498.964 454.789 498.358 454.789 497.624C454.789 496.877 455.006 496.264 455.438 495.785C455.876 495.307 456.475 495.022 457.236 494.931V493.434H458.255V494.938C459.021 495.042 459.615 495.364 460.039 495.901C460.467 496.439 460.682 497.175 460.682 498.109H459.424C459.424 497.467 459.271 496.956 458.966 496.578C458.66 496.2 458.248 496.011 457.729 496.011C457.186 496.011 456.771 496.152 456.484 496.435C456.197 496.713 456.054 497.102 456.054 497.604C456.054 498.068 456.204 498.44 456.505 498.718C456.81 498.991 457.309 499.242 458.002 499.47C458.699 499.693 459.242 499.941 459.629 500.215C460.021 500.484 460.308 500.798 460.49 501.158C460.677 501.518 460.771 501.94 460.771 502.423C460.771 503.193 460.538 503.813 460.073 504.282C459.613 504.752 458.966 505.03 458.132 505.116V506.422H457.12V505.116C456.272 505.039 455.607 504.738 455.124 504.214C454.646 503.685 454.406 502.97 454.406 502.067H455.671C455.671 502.701 455.837 503.188 456.17 503.53C456.503 503.872 456.974 504.043 457.585 504.043C458.182 504.043 458.651 503.899 458.993 503.612C459.335 503.325 459.506 502.933 459.506 502.437ZM472.057 500.755C472.057 502.236 471.804 503.337 471.298 504.057C470.792 504.777 470.001 505.137 468.926 505.137C467.864 505.137 467.078 504.786 466.567 504.084C466.057 503.378 465.793 502.325 465.774 500.926V499.237C465.774 497.774 466.027 496.688 466.533 495.977C467.039 495.266 467.832 494.91 468.912 494.91C469.983 494.91 470.771 495.254 471.277 495.942C471.783 496.626 472.043 497.683 472.057 499.114V500.755ZM470.792 499.025C470.792 497.954 470.642 497.175 470.341 496.688C470.04 496.195 469.564 495.949 468.912 495.949C468.265 495.949 467.793 496.193 467.497 496.681C467.201 497.168 467.048 497.918 467.039 498.93V500.953C467.039 502.029 467.194 502.824 467.504 503.339C467.818 503.849 468.292 504.104 468.926 504.104C469.55 504.104 470.013 503.863 470.313 503.38C470.619 502.897 470.778 502.136 470.792 501.097V499.025ZM473.834 504.337C473.834 504.118 473.898 503.936 474.025 503.79C474.158 503.644 474.354 503.571 474.613 503.571C474.873 503.571 475.069 503.644 475.201 503.79C475.338 503.936 475.406 504.118 475.406 504.337C475.406 504.547 475.338 504.722 475.201 504.863C475.069 505.005 474.873 505.075 474.613 505.075C474.354 505.075 474.158 505.005 474.025 504.863C473.898 504.722 473.834 504.547 473.834 504.337ZM482.331 495.04V496.113H482.099C481.114 496.132 480.33 496.423 479.747 496.988C479.164 497.553 478.826 498.349 478.735 499.374C479.259 498.772 479.975 498.472 480.882 498.472C481.748 498.472 482.438 498.777 482.953 499.388C483.473 499.998 483.732 500.787 483.732 501.753C483.732 502.778 483.452 503.599 482.892 504.214C482.336 504.829 481.588 505.137 480.649 505.137C479.697 505.137 478.924 504.772 478.332 504.043C477.74 503.309 477.443 502.366 477.443 501.213V500.728C477.443 498.896 477.833 497.496 478.612 496.53C479.396 495.56 480.561 495.063 482.105 495.04H482.331ZM480.67 499.524C480.237 499.524 479.838 499.654 479.474 499.914C479.109 500.174 478.856 500.5 478.715 500.892V501.356C478.715 502.177 478.899 502.838 479.269 503.339C479.638 503.84 480.098 504.091 480.649 504.091C481.219 504.091 481.666 503.881 481.989 503.462C482.317 503.043 482.481 502.493 482.481 501.814C482.481 501.131 482.315 500.579 481.982 500.16C481.654 499.736 481.217 499.524 480.67 499.524ZM491.471 500.755C491.471 502.236 491.218 503.337 490.712 504.057C490.206 504.777 489.415 505.137 488.34 505.137C487.278 505.137 486.492 504.786 485.981 504.084C485.471 503.378 485.207 502.325 485.188 500.926V499.237C485.188 497.774 485.441 496.688 485.947 495.977C486.453 495.266 487.246 494.91 488.326 494.91C489.397 494.91 490.186 495.254 490.691 495.942C491.197 496.626 491.457 497.683 491.471 499.114V500.755ZM490.206 499.025C490.206 497.954 490.056 497.175 489.755 496.688C489.454 496.195 488.978 495.949 488.326 495.949C487.679 495.949 487.207 496.193 486.911 496.681C486.615 497.168 486.462 497.918 486.453 498.93V500.953C486.453 502.029 486.608 502.824 486.918 503.339C487.232 503.849 487.706 504.104 488.34 504.104C488.964 504.104 489.427 503.863 489.728 503.38C490.033 502.897 490.192 502.136 490.206 501.097V499.025Z" fill="#8F93D4"/>
<path d="M420.264 452.99V458H418.576V445.203H423.296C424.696 445.203 425.792 445.561 426.583 446.275C427.38 446.99 427.778 447.937 427.778 449.114C427.778 450.356 427.389 451.314 426.609 451.988C425.836 452.656 424.726 452.99 423.278 452.99H420.264ZM420.264 451.61H423.296C424.198 451.61 424.89 451.399 425.37 450.978C425.851 450.55 426.091 449.935 426.091 449.132C426.091 448.37 425.851 447.761 425.37 447.304C424.89 446.847 424.23 446.609 423.393 446.592H420.264V451.61ZM434.273 449.949C434.027 449.908 433.761 449.888 433.474 449.888C432.407 449.888 431.684 450.342 431.303 451.25V458H429.677V448.49H431.259L431.285 449.589C431.818 448.739 432.574 448.314 433.553 448.314C433.869 448.314 434.109 448.355 434.273 448.438V449.949ZM439.547 458.176C438.258 458.176 437.209 457.754 436.4 456.91C435.592 456.061 435.188 454.927 435.188 453.509V453.21C435.188 452.267 435.366 451.426 435.724 450.688C436.087 449.943 436.591 449.363 437.235 448.947C437.886 448.525 438.589 448.314 439.345 448.314C440.581 448.314 441.542 448.722 442.228 449.536C442.913 450.351 443.256 451.517 443.256 453.034V453.711H436.813C436.837 454.648 437.109 455.407 437.631 455.987C438.158 456.562 438.826 456.849 439.635 456.849C440.209 456.849 440.695 456.731 441.094 456.497C441.492 456.263 441.841 455.952 442.14 455.565L443.133 456.339C442.336 457.563 441.141 458.176 439.547 458.176ZM439.345 449.65C438.688 449.65 438.138 449.891 437.692 450.371C437.247 450.846 436.972 451.514 436.866 452.375H441.63V452.252C441.583 451.426 441.36 450.787 440.962 450.336C440.563 449.879 440.024 449.65 439.345 449.65ZM450.683 455.478C450.683 455.038 450.516 454.698 450.182 454.458C449.854 454.212 449.276 454.001 448.45 453.825C447.63 453.649 446.977 453.438 446.49 453.192C446.01 452.946 445.652 452.653 445.418 452.313C445.189 451.974 445.075 451.569 445.075 451.101C445.075 450.321 445.403 449.662 446.06 449.123C446.722 448.584 447.565 448.314 448.591 448.314C449.669 448.314 450.542 448.593 451.21 449.149C451.884 449.706 452.221 450.418 452.221 451.285H450.586C450.586 450.84 450.396 450.456 450.015 450.134C449.64 449.812 449.165 449.65 448.591 449.65C447.999 449.65 447.536 449.779 447.202 450.037C446.868 450.295 446.701 450.632 446.701 451.048C446.701 451.44 446.856 451.736 447.167 451.936C447.478 452.135 448.037 452.325 448.846 452.507C449.66 452.688 450.319 452.905 450.823 453.157C451.327 453.409 451.699 453.714 451.939 454.071C452.186 454.423 452.309 454.854 452.309 455.363C452.309 456.213 451.969 456.896 451.289 457.411C450.609 457.921 449.728 458.176 448.644 458.176C447.882 458.176 447.208 458.041 446.622 457.771C446.036 457.502 445.576 457.127 445.242 456.646C444.914 456.16 444.75 455.636 444.75 455.073H446.376C446.405 455.618 446.622 456.052 447.026 456.374C447.437 456.69 447.976 456.849 448.644 456.849C449.259 456.849 449.751 456.726 450.12 456.479C450.495 456.228 450.683 455.894 450.683 455.478ZM460.298 458C460.204 457.812 460.128 457.479 460.069 456.998C459.313 457.783 458.411 458.176 457.362 458.176C456.425 458.176 455.654 457.912 455.051 457.385C454.453 456.852 454.154 456.178 454.154 455.363C454.154 454.373 454.529 453.605 455.279 453.061C456.035 452.51 457.096 452.234 458.461 452.234H460.043V451.487C460.043 450.919 459.873 450.468 459.533 450.134C459.193 449.794 458.692 449.624 458.03 449.624C457.45 449.624 456.964 449.771 456.571 450.063C456.179 450.356 455.982 450.711 455.982 451.127H454.348C454.348 450.652 454.515 450.195 454.849 449.756C455.188 449.311 455.646 448.959 456.22 448.701C456.8 448.443 457.436 448.314 458.127 448.314C459.223 448.314 460.081 448.59 460.702 449.141C461.323 449.686 461.646 450.438 461.669 451.399V455.776C461.669 456.649 461.78 457.344 462.003 457.859V458H460.298ZM457.6 456.761C458.109 456.761 458.593 456.629 459.05 456.365C459.507 456.102 459.838 455.759 460.043 455.337V453.386H458.769C456.776 453.386 455.78 453.969 455.78 455.135C455.78 455.645 455.95 456.043 456.29 456.33C456.63 456.617 457.066 456.761 457.6 456.761ZM465.984 458H464.358V444.5H465.984V458ZM472.541 458.176C471.252 458.176 470.203 457.754 469.395 456.91C468.586 456.061 468.182 454.927 468.182 453.509V453.21C468.182 452.267 468.36 451.426 468.718 450.688C469.081 449.943 469.585 449.363 470.229 448.947C470.88 448.525 471.583 448.314 472.339 448.314C473.575 448.314 474.536 448.722 475.222 449.536C475.907 450.351 476.25 451.517 476.25 453.034V453.711H469.808C469.831 454.648 470.104 455.407 470.625 455.987C471.152 456.562 471.82 456.849 472.629 456.849C473.203 456.849 473.689 456.731 474.088 456.497C474.486 456.263 474.835 455.952 475.134 455.565L476.127 456.339C475.33 457.563 474.135 458.176 472.541 458.176ZM472.339 449.65C471.683 449.65 471.132 449.891 470.687 450.371C470.241 450.846 469.966 451.514 469.86 452.375H474.624V452.252C474.577 451.426 474.354 450.787 473.956 450.336C473.558 449.879 473.019 449.65 472.339 449.65Z" fill="#DEE0FF"/>
<path d="M83 398.472L83 400.126L75.0088 400.126L75.8428 402.566L74.4414 402.566L73.0127 398.684L73.0127 398.472L83 398.472ZM78.8096 388.525C80.2406 388.525 81.3206 388.794 82.0498 389.332C82.7744 389.865 83.1367 390.679 83.1367 391.772C83.1367 392.848 82.7835 393.659 82.0771 394.206C81.3662 394.748 80.3158 395.026 78.9258 395.04L77.2031 395.04C75.7721 395.04 74.6989 394.773 73.9834 394.24C73.2679 393.702 72.9102 392.884 72.9102 391.786C72.9102 390.697 73.2588 389.886 73.9561 389.353C74.6533 388.815 75.6969 388.539 77.0869 388.525L78.8096 388.525ZM76.9502 390.187C76.0159 390.187 75.3324 390.314 74.8994 390.569C74.4619 390.825 74.2432 391.23 74.2432 391.786C74.2432 392.328 74.4505 392.727 74.8652 392.982C75.2754 393.238 75.918 393.372 76.793 393.386L79.0488 393.386C79.9785 393.386 80.6712 393.256 81.127 392.996C81.5827 392.736 81.8105 392.328 81.8105 391.772C81.8105 391.239 81.6009 390.845 81.1816 390.59C80.7578 390.335 80.097 390.2 79.1992 390.187L76.9502 390.187ZM78.8096 377.082C80.2406 377.082 81.3206 377.351 82.0498 377.889C82.7744 378.422 83.1367 379.235 83.1367 380.329C83.1367 381.405 82.7835 382.216 82.0771 382.763C81.3662 383.305 80.3158 383.583 78.9258 383.597L77.2031 383.597C75.7721 383.597 74.6989 383.33 73.9834 382.797C73.2679 382.259 72.9102 381.441 72.9102 380.343C72.9102 379.254 73.2588 378.442 73.9561 377.909C74.6533 377.371 75.6969 377.096 77.0869 377.082L78.8096 377.082ZM76.9502 378.743C76.0159 378.743 75.3324 378.871 74.8994 379.126C74.4619 379.381 74.2432 379.787 74.2432 380.343C74.2432 380.885 74.4505 381.284 74.8652 381.539C75.2754 381.794 75.918 381.929 76.793 381.942L79.0488 381.942C79.9785 381.942 80.6712 381.812 81.127 381.553C81.5827 381.293 81.8105 380.885 81.8105 380.329C81.8105 379.796 81.6009 379.402 81.1816 379.146C80.7578 378.891 80.097 378.757 79.1992 378.743L76.9502 378.743ZM78.8096 369.125C80.2406 369.125 81.3206 369.394 82.0498 369.932C82.7744 370.465 83.1367 371.278 83.1367 372.372C83.1367 373.448 82.7835 374.259 82.0771 374.806C81.3662 375.348 80.3158 375.626 78.9258 375.64L77.2031 375.64C75.7721 375.64 74.6989 375.373 73.9834 374.84C73.2679 374.302 72.9102 373.484 72.9102 372.386C72.9102 371.297 73.2588 370.485 73.9561 369.952C74.6533 369.414 75.6969 369.139 77.0869 369.125L78.8096 369.125ZM76.9502 370.786C76.0159 370.786 75.3324 370.914 74.8994 371.169C74.4619 371.424 74.2432 371.83 74.2432 372.386C74.2432 372.928 74.4505 373.327 74.8652 373.582C75.2754 373.837 75.918 373.972 76.793 373.985L79.0488 373.985C79.9785 373.985 80.6712 373.855 81.127 373.596C81.5827 373.336 81.8105 372.928 81.8105 372.372C81.8105 371.839 81.6009 371.445 81.1816 371.189C80.7578 370.934 80.097 370.8 79.1992 370.786L76.9502 370.786ZM78.8096 361.168C80.2406 361.168 81.3206 361.437 82.0498 361.975C82.7744 362.508 83.1367 363.321 83.1367 364.415C83.1367 365.491 82.7835 366.302 82.0771 366.849C81.3662 367.391 80.3158 367.669 78.9258 367.683L77.2031 367.683C75.7721 367.683 74.6989 367.416 73.9834 366.883C73.2679 366.345 72.9102 365.527 72.9102 364.429C72.9102 363.34 73.2588 362.528 73.9561 361.995C74.6533 361.457 75.6969 361.182 77.0869 361.168L78.8096 361.168ZM76.9502 362.829C76.0159 362.829 75.3324 362.957 74.8994 363.212C74.4619 363.467 74.2432 363.873 74.2432 364.429C74.2432 364.971 74.4505 365.37 74.8652 365.625C75.2754 365.88 75.918 366.015 76.793 366.028L79.0488 366.028C79.9785 366.028 80.6712 365.898 81.127 365.639C81.5827 365.379 81.8105 364.971 81.8105 364.415C81.8105 363.882 81.6009 363.488 81.1816 363.232C80.7578 362.977 80.097 362.843 79.1992 362.829L76.9502 362.829ZM80.4023 354.845C80.015 354.845 79.696 354.968 79.4453 355.214C79.1901 355.46 78.9622 355.87 78.7617 356.444C78.5566 357.019 78.3675 357.465 78.1943 357.784C77.6247 358.846 76.7816 359.377 75.665 359.377C74.9085 359.377 74.2865 359.147 73.7988 358.687C73.3112 358.226 73.0218 357.602 72.9307 356.813L71.4404 356.813L71.4404 355.72L72.9443 355.72C73.0583 354.927 73.3955 354.314 73.9561 353.881C74.512 353.448 75.2367 353.231 76.1299 353.231L76.1299 354.886C75.5557 354.886 75.1045 355.016 74.7764 355.275C74.4437 355.531 74.2773 355.879 74.2773 356.321C74.2773 356.759 74.3958 357.101 74.6328 357.347C74.8698 357.593 75.2093 357.716 75.6514 357.716C76.0478 357.716 76.3669 357.595 76.6084 357.354C76.8454 357.107 77.071 356.693 77.2852 356.109C77.4993 355.526 77.6976 355.068 77.8799 354.735C78.0622 354.403 78.2718 354.122 78.5088 353.895C78.7412 353.667 79.0101 353.491 79.3154 353.368C79.6208 353.245 79.9785 353.184 80.3887 353.184C81.1589 353.184 81.7832 353.421 82.2617 353.895C82.7402 354.364 83.0228 355.02 83.1094 355.863L84.4424 355.863L84.4424 356.95L83.1162 356.95C83.0159 357.853 82.6924 358.548 82.1455 359.035C81.5986 359.518 80.874 359.76 79.9717 359.76L79.9717 358.099C80.5459 358.099 80.9902 357.955 81.3047 357.668C81.6191 357.376 81.7764 356.966 81.7764 356.437C81.7764 355.918 81.651 355.524 81.4004 355.255C81.1497 354.981 80.8171 354.845 80.4023 354.845Z" fill="#5E6196"/>
<path d="M397.81 397.168C399.241 397.168 400.321 397.437 401.05 397.975C401.774 398.508 402.137 399.321 402.137 400.415C402.137 401.491 401.784 402.302 401.077 402.849C400.366 403.391 399.316 403.669 397.926 403.683L396.203 403.683C394.772 403.683 393.699 403.416 392.983 402.883C392.268 402.345 391.91 401.527 391.91 400.429C391.91 399.34 392.259 398.528 392.956 397.995C393.653 397.457 394.697 397.182 396.087 397.168L397.81 397.168ZM395.95 398.829C395.016 398.829 394.332 398.957 393.899 399.212C393.462 399.467 393.243 399.873 393.243 400.429C393.243 400.971 393.451 401.37 393.865 401.625C394.275 401.88 394.918 402.015 395.793 402.028L398.049 402.028C398.979 402.028 399.671 401.898 400.127 401.639C400.583 401.379 400.811 400.971 400.811 400.415C400.811 399.882 400.601 399.488 400.182 399.232C399.758 398.977 399.097 398.843 398.199 398.829L395.95 398.829ZM399.402 390.845C399.015 390.845 398.696 390.968 398.445 391.214C398.19 391.46 397.962 391.87 397.762 392.444C397.557 393.019 397.368 393.465 397.194 393.784C396.625 394.846 395.782 395.377 394.665 395.377C393.909 395.377 393.286 395.147 392.799 394.687C392.311 394.226 392.022 393.602 391.931 392.813L390.44 392.813L390.44 391.72L391.944 391.72C392.058 390.927 392.396 390.314 392.956 389.881C393.512 389.448 394.237 389.231 395.13 389.231L395.13 390.886C394.556 390.886 394.104 391.016 393.776 391.275C393.444 391.531 393.277 391.879 393.277 392.321C393.277 392.759 393.396 393.101 393.633 393.347C393.87 393.593 394.209 393.716 394.651 393.716C395.048 393.716 395.367 393.595 395.608 393.354C395.845 393.107 396.071 392.693 396.285 392.109C396.499 391.526 396.698 391.068 396.88 390.735C397.062 390.403 397.272 390.122 397.509 389.895C397.741 389.667 398.01 389.491 398.315 389.368C398.621 389.245 398.979 389.184 399.389 389.184C400.159 389.184 400.783 389.421 401.262 389.895C401.74 390.364 402.023 391.02 402.109 391.863L403.442 391.863L403.442 392.95L402.116 392.95C402.016 393.853 401.692 394.548 401.146 395.035C400.599 395.518 399.874 395.76 398.972 395.76L398.972 394.099C399.546 394.099 399.99 393.955 400.305 393.668C400.619 393.376 400.776 392.966 400.776 392.437C400.776 391.918 400.651 391.524 400.4 391.255C400.15 390.981 399.817 390.845 399.402 390.845Z" fill="#5E6196"/>
<path d="M238.81 397.168C240.241 397.168 241.321 397.437 242.05 397.975C242.774 398.508 243.137 399.321 243.137 400.415C243.137 401.491 242.784 402.302 242.077 402.849C241.366 403.391 240.316 403.669 238.926 403.683L237.203 403.683C235.772 403.683 234.699 403.416 233.983 402.883C233.268 402.345 232.91 401.527 232.91 400.429C232.91 399.34 233.259 398.528 233.956 397.995C234.653 397.457 235.697 397.182 237.087 397.168L238.81 397.168ZM236.95 398.829C236.016 398.829 235.332 398.957 234.899 399.212C234.462 399.467 234.243 399.873 234.243 400.429C234.243 400.971 234.451 401.37 234.865 401.625C235.275 401.88 235.918 402.015 236.793 402.028L239.049 402.028C239.979 402.028 240.671 401.898 241.127 401.639C241.583 401.379 241.811 400.971 241.811 400.415C241.811 399.882 241.601 399.488 241.182 399.232C240.758 398.977 240.097 398.843 239.199 398.829L236.95 398.829ZM240.402 390.845C240.015 390.845 239.696 390.968 239.445 391.214C239.19 391.46 238.962 391.87 238.762 392.444C238.557 393.019 238.368 393.465 238.194 393.784C237.625 394.846 236.782 395.377 235.665 395.377C234.909 395.377 234.286 395.147 233.799 394.687C233.311 394.226 233.022 393.602 232.931 392.813L231.44 392.813L231.44 391.72L232.944 391.72C233.058 390.927 233.396 390.314 233.956 389.881C234.512 389.448 235.237 389.231 236.13 389.231L236.13 390.886C235.556 390.886 235.104 391.016 234.776 391.275C234.444 391.531 234.277 391.879 234.277 392.321C234.277 392.759 234.396 393.101 234.633 393.347C234.87 393.593 235.209 393.716 235.651 393.716C236.048 393.716 236.367 393.595 236.608 393.354C236.845 393.107 237.071 392.693 237.285 392.109C237.499 391.526 237.698 391.068 237.88 390.735C238.062 390.403 238.272 390.122 238.509 389.895C238.741 389.667 239.01 389.491 239.315 389.368C239.621 389.245 239.979 389.184 240.389 389.184C241.159 389.184 241.783 389.421 242.262 389.895C242.74 390.364 243.023 391.02 243.109 391.863L244.442 391.863L244.442 392.95L243.116 392.95C243.016 393.853 242.692 394.548 242.146 395.035C241.599 395.518 240.874 395.76 239.972 395.76L239.972 394.099C240.546 394.099 240.99 393.955 241.305 393.668C241.619 393.376 241.776 392.966 241.776 392.437C241.776 391.918 241.651 391.524 241.4 391.255C241.15 390.981 240.817 390.845 240.402 390.845Z" fill="#5E6196"/>
<defs>
<filter id="filter0_f" x="68.1069" y="358.107" width="107.857" height="107.857" filterUnits="userSpaceOnUse" color-interpolation-filters="sRGB">
<feFlood flood-opacity="0" result="BackgroundImageFix"/>
<feBlend mode="normal" in="SourceGraphic" in2="BackgroundImageFix" result="shape"/>
<feGaussianBlur stdDeviation="5" result="effect1_foregroundBlur"/>
</filter>
<filter id="filter1_f" x="236" y="358.107" width="107.857" height="107.857" filterUnits="userSpaceOnUse" color-interpolation-filters="sRGB">
<feFlood flood-opacity="0" result="BackgroundImageFix"/>
<feBlend mode="normal" in="SourceGraphic" in2="BackgroundImageFix" result="shape"/>
<feGaussianBlur stdDeviation="5" result="effect1_foregroundBlur"/>
</filter>
<filter id="filter2_f" x="391" y="358.107" width="107.857" height="107.857" filterUnits="userSpaceOnUse" color-interpolation-filters="sRGB">
<feFlood flood-opacity="0" result="BackgroundImageFix"/>
<feBlend mode="normal" in="SourceGraphic" in2="BackgroundImageFix" result="shape"/>
<feGaussianBlur stdDeviation="5" result="effect1_foregroundBlur"/>
</filter>
<filter id="filter3_f" x="0" y="383" width="552" height="71" filterUnits="userSpaceOnUse" color-interpolation-filters="sRGB">
<feFlood flood-opacity="0" result="BackgroundImageFix"/>
<feBlend mode="normal" in="SourceGraphic" in2="BackgroundImageFix" result="shape"/>
<feGaussianBlur stdDeviation="10" result="effect1_foregroundBlur"/>
</filter>
<filter id="filter4_d" x="73" y="279.647" width="98.0711" height="98.0711" filterUnits="userSpaceOnUse" color-interpolation-filters="sRGB">
<feFlood flood-opacity="0" result="BackgroundImageFix"/>
<feColorMatrix in="SourceAlpha" type="matrix" values="0 0 0 0 0 0 0 0 0 0 0 0 0 0 0 0 0 0 127 0"/>
<feOffset dy="3"/>
<feGaussianBlur stdDeviation="10"/>
<feColorMatrix type="matrix" values="0 0 0 0 0.117647 0 0 0 0 0.368627 0 0 0 0 1 0 0 0 0.2 0"/>
<feBlend mode="normal" in2="BackgroundImageFix" result="effect1_dropShadow"/>
<feBlend mode="normal" in="SourceGraphic" in2="effect1_dropShadow" result="shape"/>
</filter>
</defs>
</svg>
