<svg width="154" height="31" viewBox="0 0 154 31" fill="none" xmlns="http://www.w3.org/2000/svg">
<path d="M45.404 14.718C45.404 12.1007 46.288 9.89933 48.056 8.114C49.8413 6.31133 52.06 5.41 54.712 5.41C57.3813 5.41 59.6 6.30267 61.368 8.088C63.136 9.87333 64.02 12.0833 64.02 14.718C64.02 17.422 63.136 19.7013 61.368 21.556C59.6 23.3933 57.3813 24.312 54.712 24.312C52.06 24.312 49.8413 23.3933 48.056 21.556C46.288 19.7013 45.404 17.422 45.404 14.718ZM47.276 14.718C47.276 16.954 47.978 18.8347 49.382 20.36C50.8033 21.868 52.58 22.622 54.712 22.622C56.844 22.622 58.612 21.868 60.016 20.36C61.4373 18.852 62.148 16.9713 62.148 14.718C62.148 12.5513 61.4373 10.74 60.016 9.284C58.612 7.828 56.844 7.1 54.712 7.1C52.58 7.1 50.8033 7.828 49.382 9.284C47.978 10.74 47.276 12.5513 47.276 14.718ZM71.7471 17.474C71.7471 15.4807 72.4057 13.8427 73.7231 12.56C75.0404 11.26 76.6697 10.61 78.6111 10.61C79.5124 10.61 80.3964 10.7747 81.2631 11.104C82.1297 11.416 82.8404 11.8753 83.3951 12.482L82.4851 13.808C82.0171 13.3227 81.4364 12.9327 80.7431 12.638C80.0671 12.3433 79.3737 12.196 78.6631 12.196C77.2071 12.196 75.9937 12.69 75.0231 13.678C74.0524 14.666 73.5671 15.9313 73.5671 17.474C73.5671 18.9993 74.0524 20.256 75.0231 21.244C76.0111 22.2147 77.2417 22.7 78.7151 22.7C79.4777 22.7 80.2404 22.544 81.0031 22.232C81.7657 21.9027 82.3984 21.4607 82.9011 20.906L83.7071 22.232C83.1351 22.8733 82.3897 23.3847 81.4711 23.766C80.5697 24.13 79.6164 24.312 78.6111 24.312C76.6524 24.312 75.0144 23.6793 73.6971 22.414C72.3971 21.1313 71.7471 19.4847 71.7471 17.474ZM91.6369 19.242V10.922H93.4309V18.774C93.4309 20.0047 93.6129 20.958 93.9769 21.634C94.3582 22.31 95.1209 22.648 96.2649 22.648C97.7035 22.648 98.8649 22.1107 99.7489 21.036C100.65 19.9613 101.101 18.6787 101.101 17.188V10.922H102.869V24H101.127V21.946L101.231 20.906H101.179C100.867 21.7207 100.252 22.492 99.3329 23.22C98.4315 23.948 97.3309 24.312 96.0309 24.312C94.5055 24.312 93.3875 23.896 92.6769 23.064C91.9835 22.232 91.6369 20.958 91.6369 19.242ZM112.148 20.906V5.722H113.916V20.516C113.916 21.8333 114.41 22.492 115.398 22.492C115.571 22.492 115.71 22.4833 115.814 22.466V24.052C115.606 24.0867 115.389 24.104 115.164 24.104C114.904 24.104 114.661 24.0867 114.436 24.052C114.211 24.0173 113.951 23.9393 113.656 23.818C113.361 23.6793 113.11 23.4973 112.902 23.272C112.694 23.0467 112.512 22.7347 112.356 22.336C112.217 21.92 112.148 21.4433 112.148 20.906ZM123.46 19.242V10.922H125.254V18.774C125.254 20.0047 125.436 20.958 125.8 21.634C126.182 22.31 126.944 22.648 128.088 22.648C129.527 22.648 130.688 22.1107 131.572 21.036C132.474 19.9613 132.924 18.6787 132.924 17.188V10.922H134.692V24H132.95V21.946L133.054 20.906H133.002C132.69 21.7207 132.075 22.492 131.156 23.22C130.255 23.948 129.154 24.312 127.854 24.312C126.329 24.312 125.211 23.896 124.5 23.064C123.807 22.232 123.46 20.958 123.46 19.242ZM142.828 22.414L143.764 21.166C144.786 22.2233 146.104 22.752 147.716 22.752C148.478 22.752 149.102 22.57 149.588 22.206C150.09 21.8247 150.342 21.3047 150.342 20.646C150.342 20.1087 150.099 19.658 149.614 19.294C149.146 18.9127 148.565 18.6007 147.872 18.358C147.196 18.098 146.511 17.8207 145.818 17.526C145.142 17.2313 144.561 16.8153 144.076 16.278C143.608 15.7233 143.374 15.0473 143.374 14.25C143.374 13.106 143.798 12.2133 144.648 11.572C145.497 10.9307 146.554 10.61 147.82 10.61C149.501 10.61 150.844 11.0867 151.85 12.04L151.018 13.366C150.654 13.002 150.168 12.716 149.562 12.508C148.955 12.2827 148.348 12.17 147.742 12.17C146.996 12.17 146.372 12.3433 145.87 12.69C145.367 13.0193 145.116 13.522 145.116 14.198C145.116 14.7353 145.35 15.1947 145.818 15.576C146.303 15.9573 146.892 16.278 147.586 16.538C148.279 16.7807 148.964 17.0493 149.64 17.344C150.333 17.6387 150.914 18.0633 151.382 18.618C151.867 19.1553 152.11 19.8227 152.11 20.62C152.11 21.6947 151.694 22.5787 150.862 23.272C150.03 23.9653 148.972 24.312 147.69 24.312C145.662 24.312 144.041 23.6793 142.828 22.414Z" fill="white"/>
<path d="M29.654 24.9695H29.6313L29.6426 24.9522L28.5152 22.9802H28.4925L28.5039 22.9572L27.3765 20.9851H27.348L27.3651 20.9621L26.2434 18.9958H26.2092L26.2263 18.967L25.0989 16.995H25.0761L25.0875 16.972L23.9601 14.9999H23.9316L23.9487 14.9769L22.8213 13.0106H22.7871L22.8042 12.9818L21.6825 11.0155L20.5437 13.0048L21.6711 14.9711L21.6882 14.9941L22.8156 16.9662L22.827 16.9892L23.9544 18.9613L23.9715 18.99L25.0932 20.9564L25.1103 20.9793L26.2377 22.9514L26.2491 22.9744L27.3765 24.9465L27.3878 24.9637L28.5152 26.9358L28.5266 26.9531H23.9544L23.9658 26.9358L22.8384 24.9637H22.8156L22.827 24.9465L21.6996 22.9744H21.6768L21.6882 22.9514L20.5608 20.9793H20.5323L20.5494 20.9564L19.4277 18.99H19.3935L19.4106 18.9613L20.538 16.9892L20.5494 16.9662L19.422 14.9941L18.2832 13.0048L20.5608 9.02041L19.422 7.03109L17.1444 3.0467L16.0056 1.05737L14.8668 3.0467L12.5893 7.03109L11.4505 9.02041L6.89532 16.9892L5.75653 18.9785L5.76222 18.99H8.02841L8.03411 18.9785L9.1729 16.9892L13.7281 9.02041L14.8668 7.03109L16.0056 5.04177L17.1444 7.03109L18.2832 9.02041L13.7281 16.9892H11.4505L10.3117 18.9785L10.3174 18.99H10.306L9.1729 20.9736L9.17859 20.9851H4.61204L0.0568848 28.9539H20.5494L20.5551 28.9424L19.422 26.9646H3.45617L3.46187 26.9531L5.73375 22.9802L5.73945 22.9744L5.74514 22.9802H8.01133L8.01703 22.9744L8.02272 22.9802H10.2889L10.2946 22.9744L10.3003 22.9802H12.5665L12.5722 22.9744L12.5779 22.9802H14.8441L14.8498 22.9744L14.8555 22.9802L15.9829 24.9522L15.9943 24.9695H18.2491L18.2604 24.9522L18.2718 24.9695H20.5266L20.538 24.9522L20.5494 24.9695L21.6768 26.9416L21.6882 26.9588L22.8213 28.9366L22.827 28.9481H25.0875L25.0932 28.9366L25.0989 28.9481H27.3594L27.3651 28.9366L27.3708 28.9481H31.9259L29.654 24.9695ZM19.3822 22.9744H17.1273H17.1046L17.116 22.9514L15.9886 20.9793H15.9772H13.711H11.422L11.4277 20.9678L12.5608 18.9843L12.5665 18.9728L12.5722 18.9843H14.8384L14.8441 18.9728L15.9829 16.9835L17.1217 14.9941L18.2604 16.9835L17.1217 18.9728L17.1273 18.9843L18.2491 20.9506L18.2661 20.9736L19.3935 22.9457L19.4049 22.9687H19.3822V22.9744Z" fill="white"/>
</svg>
