<svg width="42" height="42" viewBox="0 0 42 42" fill="none" xmlns="http://www.w3.org/2000/svg">
<g clip-path="url(#clip0)">
<path d="M22.625 22.6099C22.625 24.4167 21.1551 25.8867 19.3482 25.8867C17.5414 25.8867 16.0714 24.4167 16.0714 22.6099C16.0714 21.3997 16.7314 20.3414 17.7098 19.7739V10.7315H20.9866V19.7739C21.965 20.3414 22.625 21.3997 22.625 22.6099ZM41.9829 31.703L25.1645 42V21.406L41.9829 31.703ZM28.4413 36.1516L35.7074 31.703L28.4413 27.2544V36.1516ZM3.29193 22.6099C3.29193 13.7564 10.4947 6.55359 19.3482 6.55359C28.2017 6.55359 35.4045 13.7564 35.4045 22.6099C35.4045 23.0122 35.3892 23.411 35.36 23.806L38.4374 25.6901C38.5981 24.6807 38.6814 23.6517 38.6814 22.6099C38.6814 17.4458 36.6704 12.5908 33.0189 8.93934C32.8816 8.80213 32.7421 8.66794 32.6016 8.5354L33.9589 6.90773L36.1833 8.76264L38.2819 6.24606L31.3164 0.437534L29.2178 2.95411L31.4421 4.80902L30.0372 6.49371C27.3435 4.69909 24.2481 3.61807 20.9865 3.3461V0H17.7097V3.34618C13.1637 3.72522 8.94014 5.67672 5.6776 8.93926C2.02611 12.5908 0.0151367 17.4458 0.0151367 22.6099C0.0151367 27.774 2.02611 32.6289 5.67768 36.2804C9.32918 39.932 14.1841 41.943 19.3482 41.943C20.2047 41.943 21.0523 41.8865 21.8877 41.7775V38.4647C21.0603 38.5967 20.2122 38.6662 19.3482 38.6662C10.4947 38.6662 3.29193 31.4634 3.29193 22.6099Z" fill="#4B71F8"/>
<path d="M26.7 24.6719L38.7 31.6001L26.7 38.5283L26.7 24.6719Z" stroke="#FFE57E" stroke-width="3"/>
</g>
<defs>
<clipPath id="clip0">
<rect width="42" height="42" fill="white"/>
</clipPath>
</defs>
</svg>
