<svg width="43" height="43" viewBox="0 0 43 43" fill="none" xmlns="http://www.w3.org/2000/svg">
<g clip-path="url(#clip0)">
<path d="M31.2254 42.9943C29.9136 42.9943 28.6116 42.6107 27.4799 41.8578L18.4634 35.8585C17.691 35.3446 17.4815 34.3018 17.9954 33.5294C18.5093 32.7571 19.5521 32.5475 20.3244 33.0614L29.341 39.0607C30.3207 39.7127 31.502 39.8187 32.582 39.3519C33.6619 38.8853 34.3942 37.9525 34.5908 36.7926L39.5844 7.33879C39.7981 6.07834 39.3222 4.85837 38.3116 4.0754C37.3008 3.29236 36.0004 3.13655 34.833 3.6583L5.36875 16.8326C4.21824 17.3471 3.46879 18.4038 3.36397 19.6595C3.25907 20.9153 3.82281 22.0817 4.87203 22.7798L8.98582 25.5169C9.7582 26.0308 9.96767 27.0735 9.45382 27.8459C8.93988 28.6181 7.89705 28.8278 7.12475 28.3139L3.01096 25.5769C-1.41276 22.7431 -0.833895 15.8255 3.99743 13.7656L33.4616 0.591208C35.7452 -0.429702 38.3918 -0.112468 40.369 1.41936C42.3463 2.95102 43.3148 5.43438 42.8968 7.90018L37.9032 37.354C37.5185 39.6232 36.0275 41.5229 33.9147 42.4358C33.0495 42.8097 32.1351 42.9943 31.2254 42.9943ZM14.6065 41.3202V33.5635C14.6065 32.0524 15.2221 30.5758 16.2956 29.5123L32.0829 13.8726C32.7421 13.2197 32.747 12.1561 32.0941 11.4971C31.4412 10.838 30.3775 10.8329 29.7186 11.4859L13.9312 27.1256C12.2253 28.8157 11.2469 31.1622 11.2469 33.5635V41.3202C11.2469 42.2479 11.9989 43 12.9267 43C13.8544 43 14.6065 42.2479 14.6065 41.3202Z" fill="#4B71F8"/>
<path d="M14.6065 41.3202V33.5636C14.6065 32.0525 15.2221 30.5759 16.2956 29.5124L32.0829 13.8727C32.742 13.2198 32.747 12.1561 32.094 11.4972C31.4412 10.8381 30.3774 10.833 29.7185 11.486L13.9312 27.1257C12.2252 28.8158 11.2468 31.1623 11.2468 33.5636V41.3202C11.2468 42.248 11.9989 43.0001 12.9266 43.0001C13.8544 43.0001 14.6065 42.248 14.6065 41.3202Z" fill="#FFE57E"/>
</g>
<defs>
<clipPath id="clip0">
<rect width="43" height="43" fill="white"/>
</clipPath>
</defs>
</svg>
