<svg width="47" height="47" viewBox="0 0 47 47" fill="none" xmlns="http://www.w3.org/2000/svg">
<g opacity="0.3" clip-path="url(#clip0)">
<mask id="path-1-outside-1" maskUnits="userSpaceOnUse" x="-1" y="2.8623" width="49" height="41" fill="black">
<rect fill="white" x="-1" y="2.8623" width="49" height="41"/>
<path d="M46.9999 33.1913C46.9999 30.441 46.1763 27.7855 44.618 25.5116C43.4971 23.876 42.0537 22.5178 40.3811 21.5085C42.3504 19.6435 43.5825 17.0076 43.5825 14.0877C43.5825 8.44946 38.9954 3.8623 33.3573 3.8623C30.014 3.8623 26.8822 5.51577 24.9799 8.23003C24.4965 8.15963 24.0026 8.12164 23.4999 8.12164C22.9972 8.12164 22.5035 8.15975 22.0201 8.23003C20.1177 5.51577 16.9859 3.8623 13.6427 3.8623C8.0045 3.8623 3.41734 8.44946 3.41734 14.0877C3.41734 17.0076 4.64949 19.6435 6.61891 21.5085C4.94614 22.5177 3.50276 23.876 2.38203 25.5114C0.823705 27.7855 0 30.441 0 33.1913V38.8788H9.85733V43.1381H37.1428V38.8788H47L46.9999 33.1913ZM33.3573 6.38604C37.604 6.38604 41.0589 9.84098 41.0589 14.0878C41.0589 18.3347 37.604 21.7896 33.3573 21.7896C33.2812 21.7896 33.2051 21.7885 33.1289 21.7862C33.1347 21.7701 33.1395 21.7535 33.1452 21.7374C33.2766 21.3646 33.3863 20.9818 33.4742 20.5908C33.4804 20.563 33.4875 20.5355 33.4934 20.5076C33.5163 20.4021 33.5363 20.2956 33.5559 20.1889C33.5651 20.1384 33.5746 20.0881 33.583 20.0375C33.5989 19.9422 33.6133 19.8466 33.6265 19.7505C33.6357 19.6838 33.6441 19.617 33.652 19.5502C33.662 19.4654 33.6717 19.3805 33.6797 19.295C33.6877 19.2078 33.6938 19.1205 33.6996 19.0331C33.7041 18.9642 33.7098 18.8955 33.713 18.8263C33.7199 18.6778 33.7238 18.529 33.7243 18.3801C33.7243 18.3691 33.7252 18.3584 33.7252 18.3473C33.7252 18.3414 33.7247 18.3354 33.7247 18.3295C33.7244 18.1775 33.72 18.0263 33.7132 17.8756C33.7112 17.8318 33.7086 17.7882 33.706 17.7445C33.6986 17.6165 33.6889 17.489 33.6769 17.3622C33.6741 17.3334 33.6718 17.3047 33.6689 17.276C33.2876 13.5904 30.9592 10.4358 27.6003 8.97664C29.0477 7.35056 31.1413 6.38604 33.3573 6.38604ZM20.8351 11.1206C20.8597 11.1116 20.8846 11.1032 20.9092 11.0943C20.9858 11.0669 21.063 11.041 21.1406 11.0158C21.1994 10.997 21.2586 10.9789 21.3182 10.9615C21.3614 10.9487 21.4048 10.9365 21.4484 10.9244C21.5261 10.903 21.6042 10.8822 21.6831 10.8632C22.266 10.7216 22.874 10.6447 23.4997 10.6447C24.1259 10.6453 24.7341 10.7222 25.3172 10.8638C25.3955 10.8827 25.4731 10.9034 25.5505 10.9246C25.5947 10.9369 25.6388 10.9492 25.6826 10.9622C25.7414 10.9795 25.8 10.9974 25.8581 11.016C25.9367 11.0413 26.0148 11.0676 26.0923 11.0953C26.1162 11.1038 26.14 11.1119 26.1637 11.1206C28.7394 12.0731 30.6706 14.3654 31.1077 17.1473C31.1111 17.1695 31.1144 17.1919 31.1177 17.2142C31.1317 17.3085 31.1434 17.4035 31.1539 17.4987C31.1577 17.5338 31.1617 17.5688 31.1651 17.604C31.1735 17.6909 31.1796 17.7785 31.1852 17.8663C31.1875 17.9039 31.1906 17.9414 31.1924 17.9791C31.1977 18.0913 31.2006 18.2041 31.201 18.3175C31.201 18.3274 31.2016 18.3369 31.2016 18.3468C31.2016 18.3513 31.2014 18.356 31.2014 18.3605C31.2011 18.4703 31.1978 18.5793 31.193 18.688C31.1915 18.7222 31.19 18.7564 31.188 18.7904C31.182 18.8954 31.1742 18.9999 31.1641 19.1036C31.1602 19.1437 31.1549 19.1837 31.1504 19.2237C31.1427 19.2909 31.1341 19.3579 31.1248 19.4245C31.1174 19.4764 31.1101 19.5283 31.1018 19.5799C31.089 19.6586 31.0749 19.7367 31.0598 19.8145C31.0463 19.8838 31.0315 19.9528 31.0161 20.0217C31.0069 20.0632 30.9973 20.1047 30.9873 20.146C30.9627 20.2483 30.9357 20.35 30.907 20.4513C30.8955 20.4916 30.8848 20.5321 30.8727 20.572C30.8551 20.63 30.8362 20.6876 30.8174 20.7451C30.8022 20.7912 30.7867 20.837 30.7707 20.8826C30.7525 20.9345 30.7346 20.9865 30.7154 21.038C30.6828 21.1254 30.6484 21.2121 30.6127 21.298C30.5968 21.3364 30.5799 21.3744 30.5634 21.4126C30.5322 21.4841 30.5002 21.5553 30.4669 21.6257C30.4629 21.634 30.459 21.6424 30.4551 21.6507C30.4431 21.6757 30.4313 21.7008 30.419 21.7258C30.3817 21.802 30.3428 21.8773 30.3029 21.952C30.2874 21.981 30.2724 22.0104 30.2565 22.0393C30.2555 22.0412 30.2545 22.043 30.2535 22.0448C30.2098 22.1242 30.1643 22.2025 30.118 22.2802C30.0995 22.311 30.0814 22.3419 30.0626 22.3723C30.0121 22.4542 29.9602 22.5352 29.9069 22.615C29.8737 22.6646 29.839 22.7131 29.8047 22.762C29.7755 22.8034 29.7465 22.8449 29.7166 22.8856C29.6778 22.9384 29.6384 22.9905 29.5982 23.0423C29.571 23.0775 29.5435 23.1125 29.5157 23.1473C29.4733 23.2003 29.4305 23.2531 29.3869 23.3049C29.3597 23.3371 29.3319 23.3686 29.3042 23.4003C29.2588 23.4524 29.2135 23.5047 29.1668 23.5555C29.1391 23.5857 29.1103 23.6147 29.082 23.6445C29.0061 23.7246 28.9283 23.8029 28.8491 23.8798C28.802 23.9253 28.7552 23.971 28.707 24.0153C28.6737 24.046 28.6395 24.0758 28.6056 24.1059C28.5503 24.155 28.4947 24.2036 28.438 24.251C28.4092 24.2751 28.3802 24.299 28.3511 24.3227C28.2825 24.3785 28.2132 24.4331 28.1426 24.4866C28.1234 24.5011 28.1045 24.5159 28.0852 24.5303C26.8032 25.4833 25.2164 26.0482 23.4998 26.0482C21.7831 26.0482 20.196 25.4832 18.914 24.5299C18.8951 24.5157 18.8766 24.5012 18.8578 24.487C18.787 24.4333 18.7172 24.3783 18.6484 24.3223C18.6195 24.2987 18.5906 24.2751 18.5621 24.2511C18.5052 24.2034 18.4494 24.1546 18.3939 24.1054C18.3602 24.0754 18.3262 24.0458 18.293 24.0153C18.2447 23.9709 18.1977 23.9251 18.1505 23.8795C18.0709 23.8024 17.9931 23.7238 17.9168 23.6435C17.889 23.6141 17.8604 23.5854 17.8331 23.5556C17.7862 23.5047 17.7409 23.4523 17.6955 23.4002C17.6679 23.3685 17.6401 23.3371 17.613 23.3049C17.5692 23.2531 17.5266 23.2003 17.4842 23.1474C17.4564 23.1126 17.4288 23.0777 17.4015 23.0423C17.3615 22.9906 17.322 22.9385 17.2833 22.8857C17.2534 22.8449 17.2242 22.8032 17.1951 22.7617C17.1608 22.713 17.1262 22.6646 17.0931 22.6151C17.0395 22.535 16.9874 22.4537 16.9368 22.3716C16.9182 22.3414 16.9003 22.311 16.8822 22.2806C16.8351 22.2017 16.789 22.1225 16.7448 22.0419C16.7285 22.0122 16.7131 21.982 16.6971 21.9523C16.6572 21.8773 16.6182 21.8017 16.5807 21.7254C16.5673 21.6983 16.5543 21.6709 16.5413 21.6436C16.5393 21.6395 16.5374 21.6353 16.5355 21.6311C16.5006 21.5574 16.4672 21.483 16.4345 21.4079C16.419 21.3722 16.4032 21.3366 16.3883 21.3008C16.3517 21.213 16.3167 21.1244 16.2833 21.0351C16.2653 20.9869 16.2486 20.9382 16.2316 20.8896C16.214 20.8397 16.1971 20.7895 16.1806 20.7392C16.1628 20.6847 16.1449 20.6301 16.1282 20.5754C16.1034 20.4935 16.0799 20.4111 16.0578 20.3282C16.0423 20.27 16.0283 20.2114 16.014 20.1528C16.0029 20.1068 15.9922 20.0607 15.982 20.0144C15.9694 19.9576 15.9566 19.901 15.9453 19.8439C15.9277 19.7551 15.9117 19.6658 15.8973 19.5759C15.8895 19.5275 15.8827 19.4789 15.8757 19.4304C15.8655 19.3586 15.8563 19.2865 15.8481 19.214C15.8441 19.1783 15.8394 19.1426 15.8357 19.1069C15.8253 19.0005 15.8173 18.8934 15.8113 18.7859C15.8095 18.755 15.8081 18.7241 15.8067 18.6932C15.8016 18.5782 15.7979 18.4629 15.7979 18.3468C15.7979 18.2224 15.8014 18.0988 15.8074 17.9758C15.809 17.9424 15.8118 17.9092 15.8137 17.8759C15.8192 17.7835 15.8259 17.6914 15.8347 17.5998C15.8378 17.5679 15.8414 17.5361 15.8448 17.5043C15.8557 17.4051 15.8679 17.3064 15.8826 17.2084C15.8853 17.1893 15.8881 17.1702 15.8911 17.1511C16.3268 14.3676 18.2584 12.0737 20.8351 11.1206ZM5.94095 14.0878C5.94095 9.8411 9.39589 6.38604 13.6427 6.38604C15.8588 6.38604 17.9523 7.35068 19.3997 8.97639C16.0397 10.436 13.7107 13.5922 13.3306 17.2793C13.3279 17.3043 13.326 17.3294 13.3236 17.3545C13.311 17.4859 13.301 17.6177 13.2935 17.7503C13.2912 17.7907 13.2887 17.831 13.2868 17.8715C13.2796 18.0293 13.2747 18.1877 13.2747 18.3472C13.2747 18.5082 13.2793 18.6688 13.2869 18.8293C13.2899 18.8939 13.2952 18.9579 13.2994 19.0221C13.3056 19.1145 13.3119 19.2068 13.3205 19.2989C13.328 19.3808 13.3374 19.4622 13.347 19.5436C13.3553 19.6145 13.3641 19.6852 13.374 19.7558C13.3868 19.8486 13.4007 19.941 13.416 20.0329C13.4252 20.0876 13.4353 20.1421 13.4453 20.1966C13.4642 20.2996 13.4835 20.4023 13.5055 20.5041C13.5128 20.5377 13.5211 20.571 13.5287 20.6044C13.6143 20.9833 13.7207 21.3543 13.8474 21.7161C13.8555 21.7394 13.8625 21.763 13.8707 21.7862C13.7947 21.7885 13.7184 21.7896 13.6425 21.7896C9.39589 21.7895 5.94095 18.3345 5.94095 14.0878ZM11.973 30.1759C11.9452 30.2197 11.9187 30.2643 11.8915 30.3083C11.8338 30.4014 11.7767 30.4948 11.7214 30.5891C11.6905 30.6417 11.6607 30.6947 11.6307 30.7477C11.581 30.8351 11.5319 30.9228 11.4842 31.0112C11.4541 31.0669 11.4246 31.1228 11.3953 31.1787C11.3494 31.2666 11.3046 31.3551 11.2607 31.4438C11.2331 31.4996 11.2056 31.5552 11.1788 31.6112C11.1341 31.7047 11.0911 31.799 11.0486 31.8934C11.0255 31.9447 11.0018 31.9957 10.9794 32.0473C10.9302 32.1604 10.8833 32.2743 10.8372 32.3886C10.8237 32.4221 10.8094 32.4551 10.7962 32.4886C10.7378 32.6371 10.6819 32.7866 10.6289 32.9369C10.6168 32.9713 10.606 33.0062 10.594 33.0406C10.5541 33.1564 10.5152 33.2727 10.4785 33.3894C10.4617 33.443 10.4462 33.4969 10.4301 33.5506C10.4004 33.6496 10.3713 33.7486 10.3439 33.8483C10.3276 33.9076 10.3121 33.967 10.2966 34.0266C10.2716 34.1222 10.2476 34.2181 10.2249 34.3144C10.2104 34.3753 10.1962 34.4363 10.1827 34.4974C10.161 34.5949 10.1407 34.6928 10.1212 34.7909C10.1094 34.8498 10.0973 34.9087 10.0863 34.9679C10.0665 35.0746 10.0487 35.1819 10.0315 35.2893C10.0234 35.3397 10.0144 35.39 10.0069 35.4404C9.98338 35.5982 9.96206 35.7563 9.94414 35.9151C9.94389 35.917 9.94376 35.9189 9.94364 35.9208C9.92736 36.0653 9.91335 36.21 9.90162 36.3552H2.52361V33.1913C2.52361 28.8686 5.0086 24.9879 8.90176 23.1434C10.32 23.8889 11.9322 24.3132 13.6426 24.3132C14.1372 24.3132 14.6334 24.2766 15.1257 24.2042C15.2024 24.3136 15.2804 24.4219 15.3612 24.5281C15.3884 24.5638 15.4167 24.5986 15.4445 24.634C15.5242 24.7359 15.6051 24.8367 15.6886 24.9355C15.7228 24.976 15.7579 25.0157 15.7927 25.0557C15.871 25.1455 15.9504 25.2342 16.0317 25.3212C16.0744 25.367 16.1178 25.412 16.1612 25.457C16.2355 25.5336 16.3108 25.6091 16.3874 25.6834C16.4162 25.7113 16.4433 25.7408 16.4723 25.7685C16.3627 25.8347 16.254 25.9026 16.1464 25.9719C16.1289 25.9831 16.1117 25.995 16.0943 26.0063C15.9867 26.0762 15.8802 26.1476 15.7747 26.2204C15.7382 26.2457 15.7019 26.2712 15.6655 26.2967C15.5715 26.3629 15.4785 26.4303 15.3863 26.4988C15.3571 26.5205 15.3276 26.5417 15.2987 26.5636C15.1814 26.6524 15.0654 26.7427 14.951 26.8351C14.926 26.8553 14.9015 26.8761 14.8765 26.8965C14.7854 26.9711 14.6952 27.0469 14.6061 27.1239C14.5715 27.1537 14.5372 27.1837 14.5029 27.2139C14.4137 27.2925 14.3256 27.3722 14.2384 27.4531C14.2157 27.4742 14.1925 27.4949 14.1699 27.5162C14.0629 27.6169 13.9576 27.7195 13.8537 27.8238C13.8267 27.8509 13.8003 27.8786 13.7736 27.9058C13.6941 27.987 13.6155 28.069 13.5379 28.1521C13.5071 28.1852 13.4763 28.2182 13.4458 28.2517C13.3585 28.3471 13.2724 28.4437 13.1877 28.5418C13.1745 28.5572 13.1607 28.5721 13.1475 28.5876C13.051 28.7003 12.9566 28.8151 12.8634 28.931C12.8375 28.9633 12.8121 28.9962 12.7865 29.0288C12.7164 29.1178 12.6474 29.2076 12.5795 29.2984C12.5533 29.3334 12.5269 29.3683 12.5011 29.4036C12.4122 29.5247 12.3245 29.6469 12.2394 29.7712C12.1479 29.9046 12.0593 30.0398 11.973 30.1759ZM12.3809 40.6146V38.879V37.4506C12.3809 37.3105 12.3836 37.171 12.3888 37.0318C12.3904 36.986 12.3941 36.9406 12.3963 36.8949C12.4009 36.802 12.4052 36.709 12.412 36.6166C12.4161 36.5604 12.4224 36.5048 12.4275 36.4487C12.4348 36.3672 12.4414 36.2856 12.4505 36.2046C12.4571 36.1453 12.4659 36.0863 12.4734 36.0272C12.4833 35.9501 12.4925 35.8728 12.5038 35.7961C12.513 35.7351 12.5241 35.6745 12.5342 35.6137C12.5466 35.5397 12.5581 35.4655 12.572 35.392C12.5837 35.3298 12.5973 35.2682 12.6101 35.2062C12.6247 35.1348 12.6387 35.0631 12.6547 34.9922C12.6689 34.9296 12.685 34.8677 12.7002 34.8054C12.7172 34.736 12.7335 34.6662 12.7518 34.5972C12.7684 34.5345 12.7869 34.4724 12.8045 34.4102C12.8237 34.3424 12.8424 34.2745 12.8628 34.2073C12.8819 34.1447 12.9028 34.0826 12.9229 34.0204C12.9443 33.9544 12.9651 33.8883 12.9877 33.8228C13.0092 33.7608 13.0323 33.6994 13.0547 33.6379C13.0785 33.5731 13.1017 33.508 13.1265 33.4436C13.1503 33.3824 13.1755 33.322 13.2001 33.2612C13.226 33.1977 13.2515 33.1339 13.2785 33.0709C13.3046 33.0102 13.3321 32.9501 13.3592 32.8901C13.3871 32.8281 13.4147 32.7659 13.4437 32.7046C13.4721 32.6447 13.5019 32.5855 13.5313 32.526C13.5613 32.4655 13.591 32.4048 13.622 32.3448C13.6527 32.2858 13.6846 32.2275 13.7163 32.1691C13.7483 32.1099 13.78 32.0507 13.8131 31.9922C13.8459 31.9341 13.88 31.877 13.9136 31.8196C13.9477 31.7618 13.9815 31.7039 14.0167 31.6466C14.0517 31.5897 14.0878 31.5336 14.1237 31.4774C14.1598 31.421 14.1957 31.3646 14.2328 31.3088C14.2699 31.253 14.308 31.198 14.3461 31.143C14.384 31.0881 14.4219 31.0332 14.4608 30.9789C14.4999 30.9244 14.5401 30.8707 14.5804 30.8168C14.6203 30.7634 14.66 30.7101 14.7008 30.6574C14.7419 30.6043 14.784 30.552 14.8262 30.4995C14.8679 30.4475 14.9098 30.3956 14.9525 30.3444C14.9955 30.2929 15.0394 30.2421 15.0833 30.1913C15.1271 30.1407 15.171 30.0901 15.2158 30.0402C15.2606 29.9902 15.3064 29.941 15.3521 29.8918C15.3978 29.8427 15.4435 29.7939 15.49 29.7457C15.5367 29.6972 15.5843 29.6495 15.632 29.6019C15.6795 29.5544 15.7274 29.5071 15.7758 29.4602C15.8241 29.4137 15.8732 29.3678 15.9226 29.3219C15.972 29.276 16.0217 29.2302 16.0721 29.185C16.1223 29.1401 16.173 29.0958 16.2241 29.0518C16.2754 29.0075 16.327 28.9635 16.3791 28.9201C16.4309 28.8769 16.4833 28.8344 16.536 28.7921C16.5892 28.7495 16.6427 28.7072 16.6967 28.6654C16.7501 28.6243 16.8039 28.5837 16.8581 28.5433C16.9131 28.5023 16.9685 28.4618 17.0245 28.4218C17.0793 28.3825 17.1345 28.3439 17.1902 28.3056C17.2472 28.2663 17.3045 28.2276 17.3623 28.1894C17.4184 28.1523 17.4751 28.1155 17.532 28.0793C17.5909 28.0418 17.6502 28.0049 17.7099 27.9685C17.7674 27.9335 17.8254 27.8988 17.8837 27.8647C17.9442 27.8292 18.0053 27.7943 18.0667 27.7598C18.1257 27.7268 18.185 27.6941 18.2447 27.662C18.3071 27.6285 18.3701 27.5956 18.4334 27.563C18.4935 27.5321 18.5538 27.5017 18.6146 27.4718C18.6624 27.4483 18.7108 27.4256 18.7591 27.4027C20.1772 28.1482 21.7897 28.5724 23.4999 28.5724C25.2103 28.5724 26.8226 28.1482 28.2408 27.4027C28.2887 27.4255 28.3367 27.448 28.3841 27.4713C28.4457 27.5015 28.5066 27.5323 28.5675 27.5635C28.63 27.5957 28.6924 27.6282 28.7542 27.6614C28.8145 27.6938 28.8745 27.7269 28.934 27.7603C28.9947 27.7944 29.055 27.8289 29.1148 27.8639C29.174 27.8985 29.2327 27.9337 29.291 27.9693C29.3499 28.0053 29.4083 28.0416 29.4664 28.0786C29.5242 28.1153 29.5814 28.1524 29.6384 28.1901C29.6955 28.2278 29.7522 28.2662 29.8084 28.3049C29.8646 28.3437 29.9205 28.3827 29.9759 28.4223C30.0313 28.4619 30.086 28.502 30.1406 28.5427C30.1953 28.5833 30.2497 28.6243 30.3036 28.6659C30.3571 28.7073 30.4101 28.7492 30.4628 28.7915C30.5158 28.834 30.5686 28.8768 30.6208 28.9202C30.6727 28.9633 30.7239 29.0071 30.7749 29.0512C30.8262 29.0955 30.8773 29.14 30.9278 29.1853C30.9778 29.2301 31.0271 29.2755 31.0762 29.3211C31.1259 29.3672 31.1755 29.4137 31.2243 29.4607C31.2724 29.5071 31.3197 29.554 31.3668 29.6011C31.4147 29.649 31.4627 29.6971 31.5097 29.7458C31.5559 29.7937 31.6015 29.8422 31.6468 29.8909C31.6929 29.9405 31.739 29.9902 31.7842 30.0405C31.8286 30.09 31.8721 30.1401 31.9155 30.1903C31.9598 30.2414 32.0041 30.2927 32.0474 30.3446C32.0899 30.3955 32.1314 30.4471 32.1729 30.4987C32.2153 30.5514 32.2577 30.6041 32.2991 30.6576C32.3397 30.7099 32.3792 30.7631 32.4189 30.8162C32.4592 30.8702 32.4996 30.9243 32.539 30.9791C32.5777 31.033 32.6155 31.0877 32.6532 31.1424C32.6914 31.1976 32.7298 31.2529 32.767 31.3089C32.8038 31.3643 32.8394 31.4203 32.8753 31.4763C32.9115 31.533 32.9478 31.5895 32.983 31.6468C33.0178 31.7035 33.0514 31.761 33.0852 31.8183C33.1193 31.8761 33.1536 31.9338 33.1865 31.9922C33.2195 32.0505 33.251 32.1095 33.2829 32.1683C33.3147 32.227 33.3468 32.2855 33.3775 32.3447C33.4085 32.4045 33.438 32.4652 33.4681 32.5257C33.4975 32.5851 33.5274 32.6444 33.5557 32.7045C33.5848 32.7658 33.6123 32.8277 33.64 32.8896C33.6673 32.95 33.6949 33.0101 33.721 33.071C33.7479 33.1335 33.773 33.1967 33.7988 33.2598C33.8238 33.3211 33.8492 33.3822 33.8731 33.444C33.8978 33.508 33.9209 33.5727 33.9445 33.6373C33.9671 33.699 33.9902 33.7605 34.0116 33.8227C34.0344 33.8884 34.0553 33.9549 34.0767 34.0212C34.0968 34.0831 34.1176 34.1448 34.1366 34.2073C34.1571 34.2745 34.1757 34.3425 34.195 34.4103C34.2126 34.4725 34.2311 34.5345 34.2477 34.5972C34.266 34.6662 34.2823 34.7358 34.2993 34.8054C34.3146 34.8676 34.3306 34.9296 34.3448 34.9922C34.3608 35.0631 34.3747 35.1347 34.3894 35.206C34.4022 35.2679 34.4158 35.3296 34.4275 35.392C34.4413 35.4649 34.4526 35.5385 34.465 35.6119C34.4752 35.6734 34.4866 35.7344 34.4958 35.7963C34.5071 35.8723 34.5162 35.9491 34.5261 36.0255C34.5338 36.0852 34.5426 36.1445 34.5493 36.2044C34.5584 36.2855 34.5649 36.3671 34.5723 36.4486C34.5773 36.5046 34.5836 36.5603 34.5878 36.6164C34.5947 36.7089 34.5989 36.802 34.6034 36.895C34.6057 36.9406 34.6094 36.986 34.611 37.0317C34.6162 37.1709 34.6188 37.3104 34.6188 37.4505V38.8787V40.6146H12.3809ZM37.0989 36.3552C37.0742 36.0479 37.0386 35.7424 36.9934 35.4388C36.9862 35.3907 36.9776 35.343 36.9699 35.2951C36.9524 35.1852 36.9341 35.0755 36.9138 34.9662C36.9031 34.9087 36.8913 34.8514 36.8798 34.794C36.86 34.6942 36.8393 34.5946 36.8173 34.4955C36.8039 34.4357 36.79 34.3758 36.7759 34.3163C36.7528 34.2189 36.7285 34.1218 36.7033 34.0251C36.688 33.9664 36.6728 33.9078 36.6566 33.8493C36.629 33.7486 36.5995 33.6484 36.5694 33.5484C36.5535 33.4956 36.5384 33.4427 36.5219 33.3901C36.4846 33.2716 36.4453 33.1538 36.4048 33.0362C36.3934 33.0034 36.3831 32.9702 36.3715 32.9374C36.3182 32.7866 36.2623 32.6367 36.2036 32.4877C36.191 32.4558 36.1773 32.4242 36.1644 32.3923C36.1178 32.2766 36.0701 32.1611 36.0203 32.0466C35.9982 31.9957 35.9749 31.9455 35.9522 31.8949C35.9093 31.7995 35.8659 31.7045 35.8207 31.6101C35.7943 31.5548 35.7671 31.4999 35.7399 31.4451C35.6956 31.3555 35.6503 31.2663 35.604 31.1776C35.575 31.122 35.5459 31.0668 35.5161 31.0116C35.4681 30.9229 35.4189 30.8349 35.369 30.747C35.3389 30.6943 35.3093 30.6415 35.2786 30.5892C35.2231 30.4944 35.1657 30.4007 35.1076 30.307C35.0806 30.2634 35.0544 30.2193 35.0269 30.1761C34.9404 30.0399 34.8519 29.9048 34.7603 29.7712C34.675 29.6467 34.5873 29.5246 34.4984 29.4035C34.4727 29.3684 34.4465 29.3337 34.4205 29.2989C34.3522 29.2076 34.2829 29.1175 34.2126 29.0282C34.1873 28.996 34.1622 28.9635 34.1364 28.9315C34.0432 28.8152 33.9484 28.7001 33.8516 28.5872C33.839 28.5726 33.826 28.5583 33.8134 28.5437C33.7281 28.4449 33.6413 28.3475 33.5533 28.2513C33.5231 28.2182 33.4927 28.1856 33.4621 28.1528C33.3841 28.0691 33.305 27.9865 33.225 27.9049C33.1987 27.8781 33.1728 27.8509 33.1462 27.8243C33.0421 27.7198 32.9363 27.6169 32.8291 27.5159C32.807 27.4951 32.7843 27.4749 32.7621 27.4542C32.6744 27.3728 32.5858 27.2927 32.4962 27.2137C32.4621 27.1837 32.4278 27.1539 32.3935 27.1241C32.3042 27.047 32.2139 26.9712 32.1227 26.8965C32.0979 26.8762 32.0735 26.8554 32.0485 26.8352C31.9342 26.7428 31.8182 26.6525 31.701 26.5639C31.6717 26.5418 31.642 26.5204 31.6126 26.4985C31.5207 26.4304 31.4282 26.3633 31.3346 26.2974C31.2979 26.2715 31.2612 26.2458 31.2243 26.2203C31.1198 26.1483 31.0145 26.0776 30.908 26.0085C30.8893 25.9963 30.871 25.9837 30.8523 25.9717C30.7448 25.9027 30.6366 25.835 30.527 25.7688C30.5553 25.742 30.5818 25.7133 30.6097 25.6861C30.6879 25.6104 30.7648 25.5334 30.8405 25.4552C30.8827 25.4115 30.9248 25.3677 30.9662 25.3233C31.0488 25.235 31.1293 25.1449 31.2088 25.0536C31.2426 25.0149 31.2766 24.9764 31.3097 24.9371C31.3944 24.8369 31.4767 24.7345 31.5576 24.6309C31.5841 24.5971 31.6112 24.5638 31.6372 24.5296C31.7183 24.423 31.7967 24.3142 31.8738 24.2045C32.3661 24.2768 32.8623 24.3133 33.3569 24.3133C35.0673 24.3133 36.6796 23.8891 38.0977 23.1435C41.991 24.988 44.4759 28.8687 44.4759 33.1914V36.3552H37.0989Z"/>
</mask>
<path d="M46.9999 33.1913C46.9999 30.441 46.1763 27.7855 44.618 25.5116C43.4971 23.876 42.0537 22.5178 40.3811 21.5085C42.3504 19.6435 43.5825 17.0076 43.5825 14.0877C43.5825 8.44946 38.9954 3.8623 33.3573 3.8623C30.014 3.8623 26.8822 5.51577 24.9799 8.23003C24.4965 8.15963 24.0026 8.12164 23.4999 8.12164C22.9972 8.12164 22.5035 8.15975 22.0201 8.23003C20.1177 5.51577 16.9859 3.8623 13.6427 3.8623C8.0045 3.8623 3.41734 8.44946 3.41734 14.0877C3.41734 17.0076 4.64949 19.6435 6.61891 21.5085C4.94614 22.5177 3.50276 23.876 2.38203 25.5114C0.823705 27.7855 0 30.441 0 33.1913V38.8788H9.85733V43.1381H37.1428V38.8788H47L46.9999 33.1913ZM33.3573 6.38604C37.604 6.38604 41.0589 9.84098 41.0589 14.0878C41.0589 18.3347 37.604 21.7896 33.3573 21.7896C33.2812 21.7896 33.2051 21.7885 33.1289 21.7862C33.1347 21.7701 33.1395 21.7535 33.1452 21.7374C33.2766 21.3646 33.3863 20.9818 33.4742 20.5908C33.4804 20.563 33.4875 20.5355 33.4934 20.5076C33.5163 20.4021 33.5363 20.2956 33.5559 20.1889C33.5651 20.1384 33.5746 20.0881 33.583 20.0375C33.5989 19.9422 33.6133 19.8466 33.6265 19.7505C33.6357 19.6838 33.6441 19.617 33.652 19.5502C33.662 19.4654 33.6717 19.3805 33.6797 19.295C33.6877 19.2078 33.6938 19.1205 33.6996 19.0331C33.7041 18.9642 33.7098 18.8955 33.713 18.8263C33.7199 18.6778 33.7238 18.529 33.7243 18.3801C33.7243 18.3691 33.7252 18.3584 33.7252 18.3473C33.7252 18.3414 33.7247 18.3354 33.7247 18.3295C33.7244 18.1775 33.72 18.0263 33.7132 17.8756C33.7112 17.8318 33.7086 17.7882 33.706 17.7445C33.6986 17.6165 33.6889 17.489 33.6769 17.3622C33.6741 17.3334 33.6718 17.3047 33.6689 17.276C33.2876 13.5904 30.9592 10.4358 27.6003 8.97664C29.0477 7.35056 31.1413 6.38604 33.3573 6.38604ZM20.8351 11.1206C20.8597 11.1116 20.8846 11.1032 20.9092 11.0943C20.9858 11.0669 21.063 11.041 21.1406 11.0158C21.1994 10.997 21.2586 10.9789 21.3182 10.9615C21.3614 10.9487 21.4048 10.9365 21.4484 10.9244C21.5261 10.903 21.6042 10.8822 21.6831 10.8632C22.266 10.7216 22.874 10.6447 23.4997 10.6447C24.1259 10.6453 24.7341 10.7222 25.3172 10.8638C25.3955 10.8827 25.4731 10.9034 25.5505 10.9246C25.5947 10.9369 25.6388 10.9492 25.6826 10.9622C25.7414 10.9795 25.8 10.9974 25.8581 11.016C25.9367 11.0413 26.0148 11.0676 26.0923 11.0953C26.1162 11.1038 26.14 11.1119 26.1637 11.1206C28.7394 12.0731 30.6706 14.3654 31.1077 17.1473C31.1111 17.1695 31.1144 17.1919 31.1177 17.2142C31.1317 17.3085 31.1434 17.4035 31.1539 17.4987C31.1577 17.5338 31.1617 17.5688 31.1651 17.604C31.1735 17.6909 31.1796 17.7785 31.1852 17.8663C31.1875 17.9039 31.1906 17.9414 31.1924 17.9791C31.1977 18.0913 31.2006 18.2041 31.201 18.3175C31.201 18.3274 31.2016 18.3369 31.2016 18.3468C31.2016 18.3513 31.2014 18.356 31.2014 18.3605C31.2011 18.4703 31.1978 18.5793 31.193 18.688C31.1915 18.7222 31.19 18.7564 31.188 18.7904C31.182 18.8954 31.1742 18.9999 31.1641 19.1036C31.1602 19.1437 31.1549 19.1837 31.1504 19.2237C31.1427 19.2909 31.1341 19.3579 31.1248 19.4245C31.1174 19.4764 31.1101 19.5283 31.1018 19.5799C31.089 19.6586 31.0749 19.7367 31.0598 19.8145C31.0463 19.8838 31.0315 19.9528 31.0161 20.0217C31.0069 20.0632 30.9973 20.1047 30.9873 20.146C30.9627 20.2483 30.9357 20.35 30.907 20.4513C30.8955 20.4916 30.8848 20.5321 30.8727 20.572C30.8551 20.63 30.8362 20.6876 30.8174 20.7451C30.8022 20.7912 30.7867 20.837 30.7707 20.8826C30.7525 20.9345 30.7346 20.9865 30.7154 21.038C30.6828 21.1254 30.6484 21.2121 30.6127 21.298C30.5968 21.3364 30.5799 21.3744 30.5634 21.4126C30.5322 21.4841 30.5002 21.5553 30.4669 21.6257C30.4629 21.634 30.459 21.6424 30.4551 21.6507C30.4431 21.6757 30.4313 21.7008 30.419 21.7258C30.3817 21.802 30.3428 21.8773 30.3029 21.952C30.2874 21.981 30.2724 22.0104 30.2565 22.0393C30.2555 22.0412 30.2545 22.043 30.2535 22.0448C30.2098 22.1242 30.1643 22.2025 30.118 22.2802C30.0995 22.311 30.0814 22.3419 30.0626 22.3723C30.0121 22.4542 29.9602 22.5352 29.9069 22.615C29.8737 22.6646 29.839 22.7131 29.8047 22.762C29.7755 22.8034 29.7465 22.8449 29.7166 22.8856C29.6778 22.9384 29.6384 22.9905 29.5982 23.0423C29.571 23.0775 29.5435 23.1125 29.5157 23.1473C29.4733 23.2003 29.4305 23.2531 29.3869 23.3049C29.3597 23.3371 29.3319 23.3686 29.3042 23.4003C29.2588 23.4524 29.2135 23.5047 29.1668 23.5555C29.1391 23.5857 29.1103 23.6147 29.082 23.6445C29.0061 23.7246 28.9283 23.8029 28.8491 23.8798C28.802 23.9253 28.7552 23.971 28.707 24.0153C28.6737 24.046 28.6395 24.0758 28.6056 24.1059C28.5503 24.155 28.4947 24.2036 28.438 24.251C28.4092 24.2751 28.3802 24.299 28.3511 24.3227C28.2825 24.3785 28.2132 24.4331 28.1426 24.4866C28.1234 24.5011 28.1045 24.5159 28.0852 24.5303C26.8032 25.4833 25.2164 26.0482 23.4998 26.0482C21.7831 26.0482 20.196 25.4832 18.914 24.5299C18.8951 24.5157 18.8766 24.5012 18.8578 24.487C18.787 24.4333 18.7172 24.3783 18.6484 24.3223C18.6195 24.2987 18.5906 24.2751 18.5621 24.2511C18.5052 24.2034 18.4494 24.1546 18.3939 24.1054C18.3602 24.0754 18.3262 24.0458 18.293 24.0153C18.2447 23.9709 18.1977 23.9251 18.1505 23.8795C18.0709 23.8024 17.9931 23.7238 17.9168 23.6435C17.889 23.6141 17.8604 23.5854 17.8331 23.5556C17.7862 23.5047 17.7409 23.4523 17.6955 23.4002C17.6679 23.3685 17.6401 23.3371 17.613 23.3049C17.5692 23.2531 17.5266 23.2003 17.4842 23.1474C17.4564 23.1126 17.4288 23.0777 17.4015 23.0423C17.3615 22.9906 17.322 22.9385 17.2833 22.8857C17.2534 22.8449 17.2242 22.8032 17.1951 22.7617C17.1608 22.713 17.1262 22.6646 17.0931 22.6151C17.0395 22.535 16.9874 22.4537 16.9368 22.3716C16.9182 22.3414 16.9003 22.311 16.8822 22.2806C16.8351 22.2017 16.789 22.1225 16.7448 22.0419C16.7285 22.0122 16.7131 21.982 16.6971 21.9523C16.6572 21.8773 16.6182 21.8017 16.5807 21.7254C16.5673 21.6983 16.5543 21.6709 16.5413 21.6436C16.5393 21.6395 16.5374 21.6353 16.5355 21.6311C16.5006 21.5574 16.4672 21.483 16.4345 21.4079C16.419 21.3722 16.4032 21.3366 16.3883 21.3008C16.3517 21.213 16.3167 21.1244 16.2833 21.0351C16.2653 20.9869 16.2486 20.9382 16.2316 20.8896C16.214 20.8397 16.1971 20.7895 16.1806 20.7392C16.1628 20.6847 16.1449 20.6301 16.1282 20.5754C16.1034 20.4935 16.0799 20.4111 16.0578 20.3282C16.0423 20.27 16.0283 20.2114 16.014 20.1528C16.0029 20.1068 15.9922 20.0607 15.982 20.0144C15.9694 19.9576 15.9566 19.901 15.9453 19.8439C15.9277 19.7551 15.9117 19.6658 15.8973 19.5759C15.8895 19.5275 15.8827 19.4789 15.8757 19.4304C15.8655 19.3586 15.8563 19.2865 15.8481 19.214C15.8441 19.1783 15.8394 19.1426 15.8357 19.1069C15.8253 19.0005 15.8173 18.8934 15.8113 18.7859C15.8095 18.755 15.8081 18.7241 15.8067 18.6932C15.8016 18.5782 15.7979 18.4629 15.7979 18.3468C15.7979 18.2224 15.8014 18.0988 15.8074 17.9758C15.809 17.9424 15.8118 17.9092 15.8137 17.8759C15.8192 17.7835 15.8259 17.6914 15.8347 17.5998C15.8378 17.5679 15.8414 17.5361 15.8448 17.5043C15.8557 17.4051 15.8679 17.3064 15.8826 17.2084C15.8853 17.1893 15.8881 17.1702 15.8911 17.1511C16.3268 14.3676 18.2584 12.0737 20.8351 11.1206ZM5.94095 14.0878C5.94095 9.8411 9.39589 6.38604 13.6427 6.38604C15.8588 6.38604 17.9523 7.35068 19.3997 8.97639C16.0397 10.436 13.7107 13.5922 13.3306 17.2793C13.3279 17.3043 13.326 17.3294 13.3236 17.3545C13.311 17.4859 13.301 17.6177 13.2935 17.7503C13.2912 17.7907 13.2887 17.831 13.2868 17.8715C13.2796 18.0293 13.2747 18.1877 13.2747 18.3472C13.2747 18.5082 13.2793 18.6688 13.2869 18.8293C13.2899 18.8939 13.2952 18.9579 13.2994 19.0221C13.3056 19.1145 13.3119 19.2068 13.3205 19.2989C13.328 19.3808 13.3374 19.4622 13.347 19.5436C13.3553 19.6145 13.3641 19.6852 13.374 19.7558C13.3868 19.8486 13.4007 19.941 13.416 20.0329C13.4252 20.0876 13.4353 20.1421 13.4453 20.1966C13.4642 20.2996 13.4835 20.4023 13.5055 20.5041C13.5128 20.5377 13.5211 20.571 13.5287 20.6044C13.6143 20.9833 13.7207 21.3543 13.8474 21.7161C13.8555 21.7394 13.8625 21.763 13.8707 21.7862C13.7947 21.7885 13.7184 21.7896 13.6425 21.7896C9.39589 21.7895 5.94095 18.3345 5.94095 14.0878ZM11.973 30.1759C11.9452 30.2197 11.9187 30.2643 11.8915 30.3083C11.8338 30.4014 11.7767 30.4948 11.7214 30.5891C11.6905 30.6417 11.6607 30.6947 11.6307 30.7477C11.581 30.8351 11.5319 30.9228 11.4842 31.0112C11.4541 31.0669 11.4246 31.1228 11.3953 31.1787C11.3494 31.2666 11.3046 31.3551 11.2607 31.4438C11.2331 31.4996 11.2056 31.5552 11.1788 31.6112C11.1341 31.7047 11.0911 31.799 11.0486 31.8934C11.0255 31.9447 11.0018 31.9957 10.9794 32.0473C10.9302 32.1604 10.8833 32.2743 10.8372 32.3886C10.8237 32.4221 10.8094 32.4551 10.7962 32.4886C10.7378 32.6371 10.6819 32.7866 10.6289 32.9369C10.6168 32.9713 10.606 33.0062 10.594 33.0406C10.5541 33.1564 10.5152 33.2727 10.4785 33.3894C10.4617 33.443 10.4462 33.4969 10.4301 33.5506C10.4004 33.6496 10.3713 33.7486 10.3439 33.8483C10.3276 33.9076 10.3121 33.967 10.2966 34.0266C10.2716 34.1222 10.2476 34.2181 10.2249 34.3144C10.2104 34.3753 10.1962 34.4363 10.1827 34.4974C10.161 34.5949 10.1407 34.6928 10.1212 34.7909C10.1094 34.8498 10.0973 34.9087 10.0863 34.9679C10.0665 35.0746 10.0487 35.1819 10.0315 35.2893C10.0234 35.3397 10.0144 35.39 10.0069 35.4404C9.98338 35.5982 9.96206 35.7563 9.94414 35.9151C9.94389 35.917 9.94376 35.9189 9.94364 35.9208C9.92736 36.0653 9.91335 36.21 9.90162 36.3552H2.52361V33.1913C2.52361 28.8686 5.0086 24.9879 8.90176 23.1434C10.32 23.8889 11.9322 24.3132 13.6426 24.3132C14.1372 24.3132 14.6334 24.2766 15.1257 24.2042C15.2024 24.3136 15.2804 24.4219 15.3612 24.5281C15.3884 24.5638 15.4167 24.5986 15.4445 24.634C15.5242 24.7359 15.6051 24.8367 15.6886 24.9355C15.7228 24.976 15.7579 25.0157 15.7927 25.0557C15.871 25.1455 15.9504 25.2342 16.0317 25.3212C16.0744 25.367 16.1178 25.412 16.1612 25.457C16.2355 25.5336 16.3108 25.6091 16.3874 25.6834C16.4162 25.7113 16.4433 25.7408 16.4723 25.7685C16.3627 25.8347 16.254 25.9026 16.1464 25.9719C16.1289 25.9831 16.1117 25.995 16.0943 26.0063C15.9867 26.0762 15.8802 26.1476 15.7747 26.2204C15.7382 26.2457 15.7019 26.2712 15.6655 26.2967C15.5715 26.3629 15.4785 26.4303 15.3863 26.4988C15.3571 26.5205 15.3276 26.5417 15.2987 26.5636C15.1814 26.6524 15.0654 26.7427 14.951 26.8351C14.926 26.8553 14.9015 26.8761 14.8765 26.8965C14.7854 26.9711 14.6952 27.0469 14.6061 27.1239C14.5715 27.1537 14.5372 27.1837 14.5029 27.2139C14.4137 27.2925 14.3256 27.3722 14.2384 27.4531C14.2157 27.4742 14.1925 27.4949 14.1699 27.5162C14.0629 27.6169 13.9576 27.7195 13.8537 27.8238C13.8267 27.8509 13.8003 27.8786 13.7736 27.9058C13.6941 27.987 13.6155 28.069 13.5379 28.1521C13.5071 28.1852 13.4763 28.2182 13.4458 28.2517C13.3585 28.3471 13.2724 28.4437 13.1877 28.5418C13.1745 28.5572 13.1607 28.5721 13.1475 28.5876C13.051 28.7003 12.9566 28.8151 12.8634 28.931C12.8375 28.9633 12.8121 28.9962 12.7865 29.0288C12.7164 29.1178 12.6474 29.2076 12.5795 29.2984C12.5533 29.3334 12.5269 29.3683 12.5011 29.4036C12.4122 29.5247 12.3245 29.6469 12.2394 29.7712C12.1479 29.9046 12.0593 30.0398 11.973 30.1759ZM12.3809 40.6146V38.879V37.4506C12.3809 37.3105 12.3836 37.171 12.3888 37.0318C12.3904 36.986 12.3941 36.9406 12.3963 36.8949C12.4009 36.802 12.4052 36.709 12.412 36.6166C12.4161 36.5604 12.4224 36.5048 12.4275 36.4487C12.4348 36.3672 12.4414 36.2856 12.4505 36.2046C12.4571 36.1453 12.4659 36.0863 12.4734 36.0272C12.4833 35.9501 12.4925 35.8728 12.5038 35.7961C12.513 35.7351 12.5241 35.6745 12.5342 35.6137C12.5466 35.5397 12.5581 35.4655 12.572 35.392C12.5837 35.3298 12.5973 35.2682 12.6101 35.2062C12.6247 35.1348 12.6387 35.0631 12.6547 34.9922C12.6689 34.9296 12.685 34.8677 12.7002 34.8054C12.7172 34.736 12.7335 34.6662 12.7518 34.5972C12.7684 34.5345 12.7869 34.4724 12.8045 34.4102C12.8237 34.3424 12.8424 34.2745 12.8628 34.2073C12.8819 34.1447 12.9028 34.0826 12.9229 34.0204C12.9443 33.9544 12.9651 33.8883 12.9877 33.8228C13.0092 33.7608 13.0323 33.6994 13.0547 33.6379C13.0785 33.5731 13.1017 33.508 13.1265 33.4436C13.1503 33.3824 13.1755 33.322 13.2001 33.2612C13.226 33.1977 13.2515 33.1339 13.2785 33.0709C13.3046 33.0102 13.3321 32.9501 13.3592 32.8901C13.3871 32.8281 13.4147 32.7659 13.4437 32.7046C13.4721 32.6447 13.5019 32.5855 13.5313 32.526C13.5613 32.4655 13.591 32.4048 13.622 32.3448C13.6527 32.2858 13.6846 32.2275 13.7163 32.1691C13.7483 32.1099 13.78 32.0507 13.8131 31.9922C13.8459 31.9341 13.88 31.877 13.9136 31.8196C13.9477 31.7618 13.9815 31.7039 14.0167 31.6466C14.0517 31.5897 14.0878 31.5336 14.1237 31.4774C14.1598 31.421 14.1957 31.3646 14.2328 31.3088C14.2699 31.253 14.308 31.198 14.3461 31.143C14.384 31.0881 14.4219 31.0332 14.4608 30.9789C14.4999 30.9244 14.5401 30.8707 14.5804 30.8168C14.6203 30.7634 14.66 30.7101 14.7008 30.6574C14.7419 30.6043 14.784 30.552 14.8262 30.4995C14.8679 30.4475 14.9098 30.3956 14.9525 30.3444C14.9955 30.2929 15.0394 30.2421 15.0833 30.1913C15.1271 30.1407 15.171 30.0901 15.2158 30.0402C15.2606 29.9902 15.3064 29.941 15.3521 29.8918C15.3978 29.8427 15.4435 29.7939 15.49 29.7457C15.5367 29.6972 15.5843 29.6495 15.632 29.6019C15.6795 29.5544 15.7274 29.5071 15.7758 29.4602C15.8241 29.4137 15.8732 29.3678 15.9226 29.3219C15.972 29.276 16.0217 29.2302 16.0721 29.185C16.1223 29.1401 16.173 29.0958 16.2241 29.0518C16.2754 29.0075 16.327 28.9635 16.3791 28.9201C16.4309 28.8769 16.4833 28.8344 16.536 28.7921C16.5892 28.7495 16.6427 28.7072 16.6967 28.6654C16.7501 28.6243 16.8039 28.5837 16.8581 28.5433C16.9131 28.5023 16.9685 28.4618 17.0245 28.4218C17.0793 28.3825 17.1345 28.3439 17.1902 28.3056C17.2472 28.2663 17.3045 28.2276 17.3623 28.1894C17.4184 28.1523 17.4751 28.1155 17.532 28.0793C17.5909 28.0418 17.6502 28.0049 17.7099 27.9685C17.7674 27.9335 17.8254 27.8988 17.8837 27.8647C17.9442 27.8292 18.0053 27.7943 18.0667 27.7598C18.1257 27.7268 18.185 27.6941 18.2447 27.662C18.3071 27.6285 18.3701 27.5956 18.4334 27.563C18.4935 27.5321 18.5538 27.5017 18.6146 27.4718C18.6624 27.4483 18.7108 27.4256 18.7591 27.4027C20.1772 28.1482 21.7897 28.5724 23.4999 28.5724C25.2103 28.5724 26.8226 28.1482 28.2408 27.4027C28.2887 27.4255 28.3367 27.448 28.3841 27.4713C28.4457 27.5015 28.5066 27.5323 28.5675 27.5635C28.63 27.5957 28.6924 27.6282 28.7542 27.6614C28.8145 27.6938 28.8745 27.7269 28.934 27.7603C28.9947 27.7944 29.055 27.8289 29.1148 27.8639C29.174 27.8985 29.2327 27.9337 29.291 27.9693C29.3499 28.0053 29.4083 28.0416 29.4664 28.0786C29.5242 28.1153 29.5814 28.1524 29.6384 28.1901C29.6955 28.2278 29.7522 28.2662 29.8084 28.3049C29.8646 28.3437 29.9205 28.3827 29.9759 28.4223C30.0313 28.4619 30.086 28.502 30.1406 28.5427C30.1953 28.5833 30.2497 28.6243 30.3036 28.6659C30.3571 28.7073 30.4101 28.7492 30.4628 28.7915C30.5158 28.834 30.5686 28.8768 30.6208 28.9202C30.6727 28.9633 30.7239 29.0071 30.7749 29.0512C30.8262 29.0955 30.8773 29.14 30.9278 29.1853C30.9778 29.2301 31.0271 29.2755 31.0762 29.3211C31.1259 29.3672 31.1755 29.4137 31.2243 29.4607C31.2724 29.5071 31.3197 29.554 31.3668 29.6011C31.4147 29.649 31.4627 29.6971 31.5097 29.7458C31.5559 29.7937 31.6015 29.8422 31.6468 29.8909C31.6929 29.9405 31.739 29.9902 31.7842 30.0405C31.8286 30.09 31.8721 30.1401 31.9155 30.1903C31.9598 30.2414 32.0041 30.2927 32.0474 30.3446C32.0899 30.3955 32.1314 30.4471 32.1729 30.4987C32.2153 30.5514 32.2577 30.6041 32.2991 30.6576C32.3397 30.7099 32.3792 30.7631 32.4189 30.8162C32.4592 30.8702 32.4996 30.9243 32.539 30.9791C32.5777 31.033 32.6155 31.0877 32.6532 31.1424C32.6914 31.1976 32.7298 31.2529 32.767 31.3089C32.8038 31.3643 32.8394 31.4203 32.8753 31.4763C32.9115 31.533 32.9478 31.5895 32.983 31.6468C33.0178 31.7035 33.0514 31.761 33.0852 31.8183C33.1193 31.8761 33.1536 31.9338 33.1865 31.9922C33.2195 32.0505 33.251 32.1095 33.2829 32.1683C33.3147 32.227 33.3468 32.2855 33.3775 32.3447C33.4085 32.4045 33.438 32.4652 33.4681 32.5257C33.4975 32.5851 33.5274 32.6444 33.5557 32.7045C33.5848 32.7658 33.6123 32.8277 33.64 32.8896C33.6673 32.95 33.6949 33.0101 33.721 33.071C33.7479 33.1335 33.773 33.1967 33.7988 33.2598C33.8238 33.3211 33.8492 33.3822 33.8731 33.444C33.8978 33.508 33.9209 33.5727 33.9445 33.6373C33.9671 33.699 33.9902 33.7605 34.0116 33.8227C34.0344 33.8884 34.0553 33.9549 34.0767 34.0212C34.0968 34.0831 34.1176 34.1448 34.1366 34.2073C34.1571 34.2745 34.1757 34.3425 34.195 34.4103C34.2126 34.4725 34.2311 34.5345 34.2477 34.5972C34.266 34.6662 34.2823 34.7358 34.2993 34.8054C34.3146 34.8676 34.3306 34.9296 34.3448 34.9922C34.3608 35.0631 34.3747 35.1347 34.3894 35.206C34.4022 35.2679 34.4158 35.3296 34.4275 35.392C34.4413 35.4649 34.4526 35.5385 34.465 35.6119C34.4752 35.6734 34.4866 35.7344 34.4958 35.7963C34.5071 35.8723 34.5162 35.9491 34.5261 36.0255C34.5338 36.0852 34.5426 36.1445 34.5493 36.2044C34.5584 36.2855 34.5649 36.3671 34.5723 36.4486C34.5773 36.5046 34.5836 36.5603 34.5878 36.6164C34.5947 36.7089 34.5989 36.802 34.6034 36.895C34.6057 36.9406 34.6094 36.986 34.611 37.0317C34.6162 37.1709 34.6188 37.3104 34.6188 37.4505V38.8787V40.6146H12.3809ZM37.0989 36.3552C37.0742 36.0479 37.0386 35.7424 36.9934 35.4388C36.9862 35.3907 36.9776 35.343 36.9699 35.2951C36.9524 35.1852 36.9341 35.0755 36.9138 34.9662C36.9031 34.9087 36.8913 34.8514 36.8798 34.794C36.86 34.6942 36.8393 34.5946 36.8173 34.4955C36.8039 34.4357 36.79 34.3758 36.7759 34.3163C36.7528 34.2189 36.7285 34.1218 36.7033 34.0251C36.688 33.9664 36.6728 33.9078 36.6566 33.8493C36.629 33.7486 36.5995 33.6484 36.5694 33.5484C36.5535 33.4956 36.5384 33.4427 36.5219 33.3901C36.4846 33.2716 36.4453 33.1538 36.4048 33.0362C36.3934 33.0034 36.3831 32.9702 36.3715 32.9374C36.3182 32.7866 36.2623 32.6367 36.2036 32.4877C36.191 32.4558 36.1773 32.4242 36.1644 32.3923C36.1178 32.2766 36.0701 32.1611 36.0203 32.0466C35.9982 31.9957 35.9749 31.9455 35.9522 31.8949C35.9093 31.7995 35.8659 31.7045 35.8207 31.6101C35.7943 31.5548 35.7671 31.4999 35.7399 31.4451C35.6956 31.3555 35.6503 31.2663 35.604 31.1776C35.575 31.122 35.5459 31.0668 35.5161 31.0116C35.4681 30.9229 35.4189 30.8349 35.369 30.747C35.3389 30.6943 35.3093 30.6415 35.2786 30.5892C35.2231 30.4944 35.1657 30.4007 35.1076 30.307C35.0806 30.2634 35.0544 30.2193 35.0269 30.1761C34.9404 30.0399 34.8519 29.9048 34.7603 29.7712C34.675 29.6467 34.5873 29.5246 34.4984 29.4035C34.4727 29.3684 34.4465 29.3337 34.4205 29.2989C34.3522 29.2076 34.2829 29.1175 34.2126 29.0282C34.1873 28.996 34.1622 28.9635 34.1364 28.9315C34.0432 28.8152 33.9484 28.7001 33.8516 28.5872C33.839 28.5726 33.826 28.5583 33.8134 28.5437C33.7281 28.4449 33.6413 28.3475 33.5533 28.2513C33.5231 28.2182 33.4927 28.1856 33.4621 28.1528C33.3841 28.0691 33.305 27.9865 33.225 27.9049C33.1987 27.8781 33.1728 27.8509 33.1462 27.8243C33.0421 27.7198 32.9363 27.6169 32.8291 27.5159C32.807 27.4951 32.7843 27.4749 32.7621 27.4542C32.6744 27.3728 32.5858 27.2927 32.4962 27.2137C32.4621 27.1837 32.4278 27.1539 32.3935 27.1241C32.3042 27.047 32.2139 26.9712 32.1227 26.8965C32.0979 26.8762 32.0735 26.8554 32.0485 26.8352C31.9342 26.7428 31.8182 26.6525 31.701 26.5639C31.6717 26.5418 31.642 26.5204 31.6126 26.4985C31.5207 26.4304 31.4282 26.3633 31.3346 26.2974C31.2979 26.2715 31.2612 26.2458 31.2243 26.2203C31.1198 26.1483 31.0145 26.0776 30.908 26.0085C30.8893 25.9963 30.871 25.9837 30.8523 25.9717C30.7448 25.9027 30.6366 25.835 30.527 25.7688C30.5553 25.742 30.5818 25.7133 30.6097 25.6861C30.6879 25.6104 30.7648 25.5334 30.8405 25.4552C30.8827 25.4115 30.9248 25.3677 30.9662 25.3233C31.0488 25.235 31.1293 25.1449 31.2088 25.0536C31.2426 25.0149 31.2766 24.9764 31.3097 24.9371C31.3944 24.8369 31.4767 24.7345 31.5576 24.6309C31.5841 24.5971 31.6112 24.5638 31.6372 24.5296C31.7183 24.423 31.7967 24.3142 31.8738 24.2045C32.3661 24.2768 32.8623 24.3133 33.3569 24.3133C35.0673 24.3133 36.6796 23.8891 38.0977 23.1435C41.991 24.988 44.4759 28.8687 44.4759 33.1914V36.3552H37.0989Z" fill="#4B71F8"/>
<path d="M46.9999 33.1913C46.9999 30.441 46.1763 27.7855 44.618 25.5116C43.4971 23.876 42.0537 22.5178 40.3811 21.5085C42.3504 19.6435 43.5825 17.0076 43.5825 14.0877C43.5825 8.44946 38.9954 3.8623 33.3573 3.8623C30.014 3.8623 26.8822 5.51577 24.9799 8.23003C24.4965 8.15963 24.0026 8.12164 23.4999 8.12164C22.9972 8.12164 22.5035 8.15975 22.0201 8.23003C20.1177 5.51577 16.9859 3.8623 13.6427 3.8623C8.0045 3.8623 3.41734 8.44946 3.41734 14.0877C3.41734 17.0076 4.64949 19.6435 6.61891 21.5085C4.94614 22.5177 3.50276 23.876 2.38203 25.5114C0.823705 27.7855 0 30.441 0 33.1913V38.8788H9.85733V43.1381H37.1428V38.8788H47L46.9999 33.1913ZM33.3573 6.38604C37.604 6.38604 41.0589 9.84098 41.0589 14.0878C41.0589 18.3347 37.604 21.7896 33.3573 21.7896C33.2812 21.7896 33.2051 21.7885 33.1289 21.7862C33.1347 21.7701 33.1395 21.7535 33.1452 21.7374C33.2766 21.3646 33.3863 20.9818 33.4742 20.5908C33.4804 20.563 33.4875 20.5355 33.4934 20.5076C33.5163 20.4021 33.5363 20.2956 33.5559 20.1889C33.5651 20.1384 33.5746 20.0881 33.583 20.0375C33.5989 19.9422 33.6133 19.8466 33.6265 19.7505C33.6357 19.6838 33.6441 19.617 33.652 19.5502C33.662 19.4654 33.6717 19.3805 33.6797 19.295C33.6877 19.2078 33.6938 19.1205 33.6996 19.0331C33.7041 18.9642 33.7098 18.8955 33.713 18.8263C33.7199 18.6778 33.7238 18.529 33.7243 18.3801C33.7243 18.3691 33.7252 18.3584 33.7252 18.3473C33.7252 18.3414 33.7247 18.3354 33.7247 18.3295C33.7244 18.1775 33.72 18.0263 33.7132 17.8756C33.7112 17.8318 33.7086 17.7882 33.706 17.7445C33.6986 17.6165 33.6889 17.489 33.6769 17.3622C33.6741 17.3334 33.6718 17.3047 33.6689 17.276C33.2876 13.5904 30.9592 10.4358 27.6003 8.97664C29.0477 7.35056 31.1413 6.38604 33.3573 6.38604ZM20.8351 11.1206C20.8597 11.1116 20.8846 11.1032 20.9092 11.0943C20.9858 11.0669 21.063 11.041 21.1406 11.0158C21.1994 10.997 21.2586 10.9789 21.3182 10.9615C21.3614 10.9487 21.4048 10.9365 21.4484 10.9244C21.5261 10.903 21.6042 10.8822 21.6831 10.8632C22.266 10.7216 22.874 10.6447 23.4997 10.6447C24.1259 10.6453 24.7341 10.7222 25.3172 10.8638C25.3955 10.8827 25.4731 10.9034 25.5505 10.9246C25.5947 10.9369 25.6388 10.9492 25.6826 10.9622C25.7414 10.9795 25.8 10.9974 25.8581 11.016C25.9367 11.0413 26.0148 11.0676 26.0923 11.0953C26.1162 11.1038 26.14 11.1119 26.1637 11.1206C28.7394 12.0731 30.6706 14.3654 31.1077 17.1473C31.1111 17.1695 31.1144 17.1919 31.1177 17.2142C31.1317 17.3085 31.1434 17.4035 31.1539 17.4987C31.1577 17.5338 31.1617 17.5688 31.1651 17.604C31.1735 17.6909 31.1796 17.7785 31.1852 17.8663C31.1875 17.9039 31.1906 17.9414 31.1924 17.9791C31.1977 18.0913 31.2006 18.2041 31.201 18.3175C31.201 18.3274 31.2016 18.3369 31.2016 18.3468C31.2016 18.3513 31.2014 18.356 31.2014 18.3605C31.2011 18.4703 31.1978 18.5793 31.193 18.688C31.1915 18.7222 31.19 18.7564 31.188 18.7904C31.182 18.8954 31.1742 18.9999 31.1641 19.1036C31.1602 19.1437 31.1549 19.1837 31.1504 19.2237C31.1427 19.2909 31.1341 19.3579 31.1248 19.4245C31.1174 19.4764 31.1101 19.5283 31.1018 19.5799C31.089 19.6586 31.0749 19.7367 31.0598 19.8145C31.0463 19.8838 31.0315 19.9528 31.0161 20.0217C31.0069 20.0632 30.9973 20.1047 30.9873 20.146C30.9627 20.2483 30.9357 20.35 30.907 20.4513C30.8955 20.4916 30.8848 20.5321 30.8727 20.572C30.8551 20.63 30.8362 20.6876 30.8174 20.7451C30.8022 20.7912 30.7867 20.837 30.7707 20.8826C30.7525 20.9345 30.7346 20.9865 30.7154 21.038C30.6828 21.1254 30.6484 21.2121 30.6127 21.298C30.5968 21.3364 30.5799 21.3744 30.5634 21.4126C30.5322 21.4841 30.5002 21.5553 30.4669 21.6257C30.4629 21.634 30.459 21.6424 30.4551 21.6507C30.4431 21.6757 30.4313 21.7008 30.419 21.7258C30.3817 21.802 30.3428 21.8773 30.3029 21.952C30.2874 21.981 30.2724 22.0104 30.2565 22.0393C30.2555 22.0412 30.2545 22.043 30.2535 22.0448C30.2098 22.1242 30.1643 22.2025 30.118 22.2802C30.0995 22.311 30.0814 22.3419 30.0626 22.3723C30.0121 22.4542 29.9602 22.5352 29.9069 22.615C29.8737 22.6646 29.839 22.7131 29.8047 22.762C29.7755 22.8034 29.7465 22.8449 29.7166 22.8856C29.6778 22.9384 29.6384 22.9905 29.5982 23.0423C29.571 23.0775 29.5435 23.1125 29.5157 23.1473C29.4733 23.2003 29.4305 23.2531 29.3869 23.3049C29.3597 23.3371 29.3319 23.3686 29.3042 23.4003C29.2588 23.4524 29.2135 23.5047 29.1668 23.5555C29.1391 23.5857 29.1103 23.6147 29.082 23.6445C29.0061 23.7246 28.9283 23.8029 28.8491 23.8798C28.802 23.9253 28.7552 23.971 28.707 24.0153C28.6737 24.046 28.6395 24.0758 28.6056 24.1059C28.5503 24.155 28.4947 24.2036 28.438 24.251C28.4092 24.2751 28.3802 24.299 28.3511 24.3227C28.2825 24.3785 28.2132 24.4331 28.1426 24.4866C28.1234 24.5011 28.1045 24.5159 28.0852 24.5303C26.8032 25.4833 25.2164 26.0482 23.4998 26.0482C21.7831 26.0482 20.196 25.4832 18.914 24.5299C18.8951 24.5157 18.8766 24.5012 18.8578 24.487C18.787 24.4333 18.7172 24.3783 18.6484 24.3223C18.6195 24.2987 18.5906 24.2751 18.5621 24.2511C18.5052 24.2034 18.4494 24.1546 18.3939 24.1054C18.3602 24.0754 18.3262 24.0458 18.293 24.0153C18.2447 23.9709 18.1977 23.9251 18.1505 23.8795C18.0709 23.8024 17.9931 23.7238 17.9168 23.6435C17.889 23.6141 17.8604 23.5854 17.8331 23.5556C17.7862 23.5047 17.7409 23.4523 17.6955 23.4002C17.6679 23.3685 17.6401 23.3371 17.613 23.3049C17.5692 23.2531 17.5266 23.2003 17.4842 23.1474C17.4564 23.1126 17.4288 23.0777 17.4015 23.0423C17.3615 22.9906 17.322 22.9385 17.2833 22.8857C17.2534 22.8449 17.2242 22.8032 17.1951 22.7617C17.1608 22.713 17.1262 22.6646 17.0931 22.6151C17.0395 22.535 16.9874 22.4537 16.9368 22.3716C16.9182 22.3414 16.9003 22.311 16.8822 22.2806C16.8351 22.2017 16.789 22.1225 16.7448 22.0419C16.7285 22.0122 16.7131 21.982 16.6971 21.9523C16.6572 21.8773 16.6182 21.8017 16.5807 21.7254C16.5673 21.6983 16.5543 21.6709 16.5413 21.6436C16.5393 21.6395 16.5374 21.6353 16.5355 21.6311C16.5006 21.5574 16.4672 21.483 16.4345 21.4079C16.419 21.3722 16.4032 21.3366 16.3883 21.3008C16.3517 21.213 16.3167 21.1244 16.2833 21.0351C16.2653 20.9869 16.2486 20.9382 16.2316 20.8896C16.214 20.8397 16.1971 20.7895 16.1806 20.7392C16.1628 20.6847 16.1449 20.6301 16.1282 20.5754C16.1034 20.4935 16.0799 20.4111 16.0578 20.3282C16.0423 20.27 16.0283 20.2114 16.014 20.1528C16.0029 20.1068 15.9922 20.0607 15.982 20.0144C15.9694 19.9576 15.9566 19.901 15.9453 19.8439C15.9277 19.7551 15.9117 19.6658 15.8973 19.5759C15.8895 19.5275 15.8827 19.4789 15.8757 19.4304C15.8655 19.3586 15.8563 19.2865 15.8481 19.214C15.8441 19.1783 15.8394 19.1426 15.8357 19.1069C15.8253 19.0005 15.8173 18.8934 15.8113 18.7859C15.8095 18.755 15.8081 18.7241 15.8067 18.6932C15.8016 18.5782 15.7979 18.4629 15.7979 18.3468C15.7979 18.2224 15.8014 18.0988 15.8074 17.9758C15.809 17.9424 15.8118 17.9092 15.8137 17.8759C15.8192 17.7835 15.8259 17.6914 15.8347 17.5998C15.8378 17.5679 15.8414 17.5361 15.8448 17.5043C15.8557 17.4051 15.8679 17.3064 15.8826 17.2084C15.8853 17.1893 15.8881 17.1702 15.8911 17.1511C16.3268 14.3676 18.2584 12.0737 20.8351 11.1206ZM5.94095 14.0878C5.94095 9.8411 9.39589 6.38604 13.6427 6.38604C15.8588 6.38604 17.9523 7.35068 19.3997 8.97639C16.0397 10.436 13.7107 13.5922 13.3306 17.2793C13.3279 17.3043 13.326 17.3294 13.3236 17.3545C13.311 17.4859 13.301 17.6177 13.2935 17.7503C13.2912 17.7907 13.2887 17.831 13.2868 17.8715C13.2796 18.0293 13.2747 18.1877 13.2747 18.3472C13.2747 18.5082 13.2793 18.6688 13.2869 18.8293C13.2899 18.8939 13.2952 18.9579 13.2994 19.0221C13.3056 19.1145 13.3119 19.2068 13.3205 19.2989C13.328 19.3808 13.3374 19.4622 13.347 19.5436C13.3553 19.6145 13.3641 19.6852 13.374 19.7558C13.3868 19.8486 13.4007 19.941 13.416 20.0329C13.4252 20.0876 13.4353 20.1421 13.4453 20.1966C13.4642 20.2996 13.4835 20.4023 13.5055 20.5041C13.5128 20.5377 13.5211 20.571 13.5287 20.6044C13.6143 20.9833 13.7207 21.3543 13.8474 21.7161C13.8555 21.7394 13.8625 21.763 13.8707 21.7862C13.7947 21.7885 13.7184 21.7896 13.6425 21.7896C9.39589 21.7895 5.94095 18.3345 5.94095 14.0878ZM11.973 30.1759C11.9452 30.2197 11.9187 30.2643 11.8915 30.3083C11.8338 30.4014 11.7767 30.4948 11.7214 30.5891C11.6905 30.6417 11.6607 30.6947 11.6307 30.7477C11.581 30.8351 11.5319 30.9228 11.4842 31.0112C11.4541 31.0669 11.4246 31.1228 11.3953 31.1787C11.3494 31.2666 11.3046 31.3551 11.2607 31.4438C11.2331 31.4996 11.2056 31.5552 11.1788 31.6112C11.1341 31.7047 11.0911 31.799 11.0486 31.8934C11.0255 31.9447 11.0018 31.9957 10.9794 32.0473C10.9302 32.1604 10.8833 32.2743 10.8372 32.3886C10.8237 32.4221 10.8094 32.4551 10.7962 32.4886C10.7378 32.6371 10.6819 32.7866 10.6289 32.9369C10.6168 32.9713 10.606 33.0062 10.594 33.0406C10.5541 33.1564 10.5152 33.2727 10.4785 33.3894C10.4617 33.443 10.4462 33.4969 10.4301 33.5506C10.4004 33.6496 10.3713 33.7486 10.3439 33.8483C10.3276 33.9076 10.3121 33.967 10.2966 34.0266C10.2716 34.1222 10.2476 34.2181 10.2249 34.3144C10.2104 34.3753 10.1962 34.4363 10.1827 34.4974C10.161 34.5949 10.1407 34.6928 10.1212 34.7909C10.1094 34.8498 10.0973 34.9087 10.0863 34.9679C10.0665 35.0746 10.0487 35.1819 10.0315 35.2893C10.0234 35.3397 10.0144 35.39 10.0069 35.4404C9.98338 35.5982 9.96206 35.7563 9.94414 35.9151C9.94389 35.917 9.94376 35.9189 9.94364 35.9208C9.92736 36.0653 9.91335 36.21 9.90162 36.3552H2.52361V33.1913C2.52361 28.8686 5.0086 24.9879 8.90176 23.1434C10.32 23.8889 11.9322 24.3132 13.6426 24.3132C14.1372 24.3132 14.6334 24.2766 15.1257 24.2042C15.2024 24.3136 15.2804 24.4219 15.3612 24.5281C15.3884 24.5638 15.4167 24.5986 15.4445 24.634C15.5242 24.7359 15.6051 24.8367 15.6886 24.9355C15.7228 24.976 15.7579 25.0157 15.7927 25.0557C15.871 25.1455 15.9504 25.2342 16.0317 25.3212C16.0744 25.367 16.1178 25.412 16.1612 25.457C16.2355 25.5336 16.3108 25.6091 16.3874 25.6834C16.4162 25.7113 16.4433 25.7408 16.4723 25.7685C16.3627 25.8347 16.254 25.9026 16.1464 25.9719C16.1289 25.9831 16.1117 25.995 16.0943 26.0063C15.9867 26.0762 15.8802 26.1476 15.7747 26.2204C15.7382 26.2457 15.7019 26.2712 15.6655 26.2967C15.5715 26.3629 15.4785 26.4303 15.3863 26.4988C15.3571 26.5205 15.3276 26.5417 15.2987 26.5636C15.1814 26.6524 15.0654 26.7427 14.951 26.8351C14.926 26.8553 14.9015 26.8761 14.8765 26.8965C14.7854 26.9711 14.6952 27.0469 14.6061 27.1239C14.5715 27.1537 14.5372 27.1837 14.5029 27.2139C14.4137 27.2925 14.3256 27.3722 14.2384 27.4531C14.2157 27.4742 14.1925 27.4949 14.1699 27.5162C14.0629 27.6169 13.9576 27.7195 13.8537 27.8238C13.8267 27.8509 13.8003 27.8786 13.7736 27.9058C13.6941 27.987 13.6155 28.069 13.5379 28.1521C13.5071 28.1852 13.4763 28.2182 13.4458 28.2517C13.3585 28.3471 13.2724 28.4437 13.1877 28.5418C13.1745 28.5572 13.1607 28.5721 13.1475 28.5876C13.051 28.7003 12.9566 28.8151 12.8634 28.931C12.8375 28.9633 12.8121 28.9962 12.7865 29.0288C12.7164 29.1178 12.6474 29.2076 12.5795 29.2984C12.5533 29.3334 12.5269 29.3683 12.5011 29.4036C12.4122 29.5247 12.3245 29.6469 12.2394 29.7712C12.1479 29.9046 12.0593 30.0398 11.973 30.1759ZM12.3809 40.6146V38.879V37.4506C12.3809 37.3105 12.3836 37.171 12.3888 37.0318C12.3904 36.986 12.3941 36.9406 12.3963 36.8949C12.4009 36.802 12.4052 36.709 12.412 36.6166C12.4161 36.5604 12.4224 36.5048 12.4275 36.4487C12.4348 36.3672 12.4414 36.2856 12.4505 36.2046C12.4571 36.1453 12.4659 36.0863 12.4734 36.0272C12.4833 35.9501 12.4925 35.8728 12.5038 35.7961C12.513 35.7351 12.5241 35.6745 12.5342 35.6137C12.5466 35.5397 12.5581 35.4655 12.572 35.392C12.5837 35.3298 12.5973 35.2682 12.6101 35.2062C12.6247 35.1348 12.6387 35.0631 12.6547 34.9922C12.6689 34.9296 12.685 34.8677 12.7002 34.8054C12.7172 34.736 12.7335 34.6662 12.7518 34.5972C12.7684 34.5345 12.7869 34.4724 12.8045 34.4102C12.8237 34.3424 12.8424 34.2745 12.8628 34.2073C12.8819 34.1447 12.9028 34.0826 12.9229 34.0204C12.9443 33.9544 12.9651 33.8883 12.9877 33.8228C13.0092 33.7608 13.0323 33.6994 13.0547 33.6379C13.0785 33.5731 13.1017 33.508 13.1265 33.4436C13.1503 33.3824 13.1755 33.322 13.2001 33.2612C13.226 33.1977 13.2515 33.1339 13.2785 33.0709C13.3046 33.0102 13.3321 32.9501 13.3592 32.8901C13.3871 32.8281 13.4147 32.7659 13.4437 32.7046C13.4721 32.6447 13.5019 32.5855 13.5313 32.526C13.5613 32.4655 13.591 32.4048 13.622 32.3448C13.6527 32.2858 13.6846 32.2275 13.7163 32.1691C13.7483 32.1099 13.78 32.0507 13.8131 31.9922C13.8459 31.9341 13.88 31.877 13.9136 31.8196C13.9477 31.7618 13.9815 31.7039 14.0167 31.6466C14.0517 31.5897 14.0878 31.5336 14.1237 31.4774C14.1598 31.421 14.1957 31.3646 14.2328 31.3088C14.2699 31.253 14.308 31.198 14.3461 31.143C14.384 31.0881 14.4219 31.0332 14.4608 30.9789C14.4999 30.9244 14.5401 30.8707 14.5804 30.8168C14.6203 30.7634 14.66 30.7101 14.7008 30.6574C14.7419 30.6043 14.784 30.552 14.8262 30.4995C14.8679 30.4475 14.9098 30.3956 14.9525 30.3444C14.9955 30.2929 15.0394 30.2421 15.0833 30.1913C15.1271 30.1407 15.171 30.0901 15.2158 30.0402C15.2606 29.9902 15.3064 29.941 15.3521 29.8918C15.3978 29.8427 15.4435 29.7939 15.49 29.7457C15.5367 29.6972 15.5843 29.6495 15.632 29.6019C15.6795 29.5544 15.7274 29.5071 15.7758 29.4602C15.8241 29.4137 15.8732 29.3678 15.9226 29.3219C15.972 29.276 16.0217 29.2302 16.0721 29.185C16.1223 29.1401 16.173 29.0958 16.2241 29.0518C16.2754 29.0075 16.327 28.9635 16.3791 28.9201C16.4309 28.8769 16.4833 28.8344 16.536 28.7921C16.5892 28.7495 16.6427 28.7072 16.6967 28.6654C16.7501 28.6243 16.8039 28.5837 16.8581 28.5433C16.9131 28.5023 16.9685 28.4618 17.0245 28.4218C17.0793 28.3825 17.1345 28.3439 17.1902 28.3056C17.2472 28.2663 17.3045 28.2276 17.3623 28.1894C17.4184 28.1523 17.4751 28.1155 17.532 28.0793C17.5909 28.0418 17.6502 28.0049 17.7099 27.9685C17.7674 27.9335 17.8254 27.8988 17.8837 27.8647C17.9442 27.8292 18.0053 27.7943 18.0667 27.7598C18.1257 27.7268 18.185 27.6941 18.2447 27.662C18.3071 27.6285 18.3701 27.5956 18.4334 27.563C18.4935 27.5321 18.5538 27.5017 18.6146 27.4718C18.6624 27.4483 18.7108 27.4256 18.7591 27.4027C20.1772 28.1482 21.7897 28.5724 23.4999 28.5724C25.2103 28.5724 26.8226 28.1482 28.2408 27.4027C28.2887 27.4255 28.3367 27.448 28.3841 27.4713C28.4457 27.5015 28.5066 27.5323 28.5675 27.5635C28.63 27.5957 28.6924 27.6282 28.7542 27.6614C28.8145 27.6938 28.8745 27.7269 28.934 27.7603C28.9947 27.7944 29.055 27.8289 29.1148 27.8639C29.174 27.8985 29.2327 27.9337 29.291 27.9693C29.3499 28.0053 29.4083 28.0416 29.4664 28.0786C29.5242 28.1153 29.5814 28.1524 29.6384 28.1901C29.6955 28.2278 29.7522 28.2662 29.8084 28.3049C29.8646 28.3437 29.9205 28.3827 29.9759 28.4223C30.0313 28.4619 30.086 28.502 30.1406 28.5427C30.1953 28.5833 30.2497 28.6243 30.3036 28.6659C30.3571 28.7073 30.4101 28.7492 30.4628 28.7915C30.5158 28.834 30.5686 28.8768 30.6208 28.9202C30.6727 28.9633 30.7239 29.0071 30.7749 29.0512C30.8262 29.0955 30.8773 29.14 30.9278 29.1853C30.9778 29.2301 31.0271 29.2755 31.0762 29.3211C31.1259 29.3672 31.1755 29.4137 31.2243 29.4607C31.2724 29.5071 31.3197 29.554 31.3668 29.6011C31.4147 29.649 31.4627 29.6971 31.5097 29.7458C31.5559 29.7937 31.6015 29.8422 31.6468 29.8909C31.6929 29.9405 31.739 29.9902 31.7842 30.0405C31.8286 30.09 31.8721 30.1401 31.9155 30.1903C31.9598 30.2414 32.0041 30.2927 32.0474 30.3446C32.0899 30.3955 32.1314 30.4471 32.1729 30.4987C32.2153 30.5514 32.2577 30.6041 32.2991 30.6576C32.3397 30.7099 32.3792 30.7631 32.4189 30.8162C32.4592 30.8702 32.4996 30.9243 32.539 30.9791C32.5777 31.033 32.6155 31.0877 32.6532 31.1424C32.6914 31.1976 32.7298 31.2529 32.767 31.3089C32.8038 31.3643 32.8394 31.4203 32.8753 31.4763C32.9115 31.533 32.9478 31.5895 32.983 31.6468C33.0178 31.7035 33.0514 31.761 33.0852 31.8183C33.1193 31.8761 33.1536 31.9338 33.1865 31.9922C33.2195 32.0505 33.251 32.1095 33.2829 32.1683C33.3147 32.227 33.3468 32.2855 33.3775 32.3447C33.4085 32.4045 33.438 32.4652 33.4681 32.5257C33.4975 32.5851 33.5274 32.6444 33.5557 32.7045C33.5848 32.7658 33.6123 32.8277 33.64 32.8896C33.6673 32.95 33.6949 33.0101 33.721 33.071C33.7479 33.1335 33.773 33.1967 33.7988 33.2598C33.8238 33.3211 33.8492 33.3822 33.8731 33.444C33.8978 33.508 33.9209 33.5727 33.9445 33.6373C33.9671 33.699 33.9902 33.7605 34.0116 33.8227C34.0344 33.8884 34.0553 33.9549 34.0767 34.0212C34.0968 34.0831 34.1176 34.1448 34.1366 34.2073C34.1571 34.2745 34.1757 34.3425 34.195 34.4103C34.2126 34.4725 34.2311 34.5345 34.2477 34.5972C34.266 34.6662 34.2823 34.7358 34.2993 34.8054C34.3146 34.8676 34.3306 34.9296 34.3448 34.9922C34.3608 35.0631 34.3747 35.1347 34.3894 35.206C34.4022 35.2679 34.4158 35.3296 34.4275 35.392C34.4413 35.4649 34.4526 35.5385 34.465 35.6119C34.4752 35.6734 34.4866 35.7344 34.4958 35.7963C34.5071 35.8723 34.5162 35.9491 34.5261 36.0255C34.5338 36.0852 34.5426 36.1445 34.5493 36.2044C34.5584 36.2855 34.5649 36.3671 34.5723 36.4486C34.5773 36.5046 34.5836 36.5603 34.5878 36.6164C34.5947 36.7089 34.5989 36.802 34.6034 36.895C34.6057 36.9406 34.6094 36.986 34.611 37.0317C34.6162 37.1709 34.6188 37.3104 34.6188 37.4505V38.8787V40.6146H12.3809ZM37.0989 36.3552C37.0742 36.0479 37.0386 35.7424 36.9934 35.4388C36.9862 35.3907 36.9776 35.343 36.9699 35.2951C36.9524 35.1852 36.9341 35.0755 36.9138 34.9662C36.9031 34.9087 36.8913 34.8514 36.8798 34.794C36.86 34.6942 36.8393 34.5946 36.8173 34.4955C36.8039 34.4357 36.79 34.3758 36.7759 34.3163C36.7528 34.2189 36.7285 34.1218 36.7033 34.0251C36.688 33.9664 36.6728 33.9078 36.6566 33.8493C36.629 33.7486 36.5995 33.6484 36.5694 33.5484C36.5535 33.4956 36.5384 33.4427 36.5219 33.3901C36.4846 33.2716 36.4453 33.1538 36.4048 33.0362C36.3934 33.0034 36.3831 32.9702 36.3715 32.9374C36.3182 32.7866 36.2623 32.6367 36.2036 32.4877C36.191 32.4558 36.1773 32.4242 36.1644 32.3923C36.1178 32.2766 36.0701 32.1611 36.0203 32.0466C35.9982 31.9957 35.9749 31.9455 35.9522 31.8949C35.9093 31.7995 35.8659 31.7045 35.8207 31.6101C35.7943 31.5548 35.7671 31.4999 35.7399 31.4451C35.6956 31.3555 35.6503 31.2663 35.604 31.1776C35.575 31.122 35.5459 31.0668 35.5161 31.0116C35.4681 30.9229 35.4189 30.8349 35.369 30.747C35.3389 30.6943 35.3093 30.6415 35.2786 30.5892C35.2231 30.4944 35.1657 30.4007 35.1076 30.307C35.0806 30.2634 35.0544 30.2193 35.0269 30.1761C34.9404 30.0399 34.8519 29.9048 34.7603 29.7712C34.675 29.6467 34.5873 29.5246 34.4984 29.4035C34.4727 29.3684 34.4465 29.3337 34.4205 29.2989C34.3522 29.2076 34.2829 29.1175 34.2126 29.0282C34.1873 28.996 34.1622 28.9635 34.1364 28.9315C34.0432 28.8152 33.9484 28.7001 33.8516 28.5872C33.839 28.5726 33.826 28.5583 33.8134 28.5437C33.7281 28.4449 33.6413 28.3475 33.5533 28.2513C33.5231 28.2182 33.4927 28.1856 33.4621 28.1528C33.3841 28.0691 33.305 27.9865 33.225 27.9049C33.1987 27.8781 33.1728 27.8509 33.1462 27.8243C33.0421 27.7198 32.9363 27.6169 32.8291 27.5159C32.807 27.4951 32.7843 27.4749 32.7621 27.4542C32.6744 27.3728 32.5858 27.2927 32.4962 27.2137C32.4621 27.1837 32.4278 27.1539 32.3935 27.1241C32.3042 27.047 32.2139 26.9712 32.1227 26.8965C32.0979 26.8762 32.0735 26.8554 32.0485 26.8352C31.9342 26.7428 31.8182 26.6525 31.701 26.5639C31.6717 26.5418 31.642 26.5204 31.6126 26.4985C31.5207 26.4304 31.4282 26.3633 31.3346 26.2974C31.2979 26.2715 31.2612 26.2458 31.2243 26.2203C31.1198 26.1483 31.0145 26.0776 30.908 26.0085C30.8893 25.9963 30.871 25.9837 30.8523 25.9717C30.7448 25.9027 30.6366 25.835 30.527 25.7688C30.5553 25.742 30.5818 25.7133 30.6097 25.6861C30.6879 25.6104 30.7648 25.5334 30.8405 25.4552C30.8827 25.4115 30.9248 25.3677 30.9662 25.3233C31.0488 25.235 31.1293 25.1449 31.2088 25.0536C31.2426 25.0149 31.2766 24.9764 31.3097 24.9371C31.3944 24.8369 31.4767 24.7345 31.5576 24.6309C31.5841 24.5971 31.6112 24.5638 31.6372 24.5296C31.7183 24.423 31.7967 24.3142 31.8738 24.2045C32.3661 24.2768 32.8623 24.3133 33.3569 24.3133C35.0673 24.3133 36.6796 23.8891 38.0977 23.1435C41.991 24.988 44.4759 28.8687 44.4759 33.1914V36.3552H37.0989Z" stroke="#4B71F8" stroke-width="0.6" mask="url(#path-1-outside-1)"/>
<path d="M23.0267 25.8C27.1693 25.8 29.9296 26.9056 31.7981 28.4308C33.6818 29.9684 34.7987 32.0469 35.4378 34.2228C36.0784 36.404 36.2178 38.6159 36.1896 40.3062C36.18 40.8776 36.1514 41.3831 36.118 41.8H11.0264C10.999 41.3847 10.9767 40.8834 10.9717 40.3182C10.9569 38.62 11.0999 36.3948 11.7059 34.1991C12.3121 32.0027 13.3572 29.9213 15.0855 28.3922C16.7882 26.8858 19.2832 25.8 23.0267 25.8Z" stroke="#FFE57E" stroke-width="3"/>
<circle cx="24" cy="19" r="8" fill="#1A1C3E"/>
<circle cx="23.5" cy="18.5" r="9" stroke="#FFE57E" stroke-width="3"/>
</g>
<defs>
<clipPath id="clip0">
<rect width="47" height="47" fill="white"/>
</clipPath>
</defs>
</svg>
